<svg width="24" height="24" viewBox="0 0 24 24" fill="none" xmlns="http://www.w3.org/2000/svg">
<g clip-path="url(#clip0_2047_1464)">
<path fill-rule="evenodd" clip-rule="evenodd" d="M12 24C18.6274 24 24 18.6274 24 12C24 5.37258 18.6274 0 12 0C5.37258 0 0 5.37258 0 12C0 18.6274 5.37258 24 12 24ZM11 6C11 5.44772 11.4477 5 12 5C12.5523 5 13 5.44772 13 6V11H18C18.5523 11 19 11.4477 19 12C19 12.5523 18.5523 13 18 13H13V18C13 18.5523 12.5523 19 12 19C11.4477 19 11 18.5523 11 18V13H6C5.44772 13 5 12.5523 5 12C5 11.4477 5.44772 11 6 11H11V6Z" fill="#141415"/>
</g>
<defs>
<clipPath id="clip0_2047_1464">
<rect width="24" height="24" fill="white"/>
</clipPath>
</defs>
</svg>
