<svg width="24" height="24" viewBox="0 0 24 24" fill="none" xmlns="http://www.w3.org/2000/svg">
<path fill-rule="evenodd" clip-rule="evenodd" d="M6.92078 3.3L3.75716 20.7H20.2453L17.0817 3.3H6.92078ZM1.21564 21.8211C1.10403 22.435 1.5756 23 2.1995 23H21.8029C22.4268 23 22.8984 22.435 22.7868 21.8211L19.1505 1.82112C19.064 1.34562 18.6499 1 18.1666 1H5.83584C5.35255 1 4.93843 1.34562 4.85197 1.82112L1.21564 21.8211ZM8.55124 16.85C8.55124 16.2149 8.03637 15.7 7.40125 15.7C6.76613 15.7 6.25126 16.2149 6.25126 16.85C6.25126 17.4851 6.76613 18 7.40125 18C8.03637 18 8.55124 17.4851 8.55124 16.85ZM13.1528 16.85C13.1528 16.2149 12.6379 15.7 12.0028 15.7C11.3677 15.7 10.8528 16.2149 10.8528 16.85C10.8528 17.4851 11.3677 18 12.0028 18C12.6379 18 13.1528 17.4851 13.1528 16.85ZM16.6004 15.7C17.2355 15.7 17.7504 16.2149 17.7504 16.85C17.7504 17.4851 17.2355 18 16.6004 18C15.9653 18 15.4504 17.4851 15.4504 16.85C15.4504 16.2149 15.9653 15.7 16.6004 15.7ZM9.70201 11.0999C10.3371 11.0999 10.852 11.6148 10.852 12.2499C10.852 12.885 10.3371 13.3999 9.70201 13.3999C9.06689 13.3999 8.55202 12.885 8.55202 12.2499C8.55202 11.6148 9.06689 11.0999 9.70201 11.0999ZM14.3035 11.0999C14.9387 11.0999 15.4535 11.6148 15.4535 12.2499C15.4535 12.885 14.9387 13.3999 14.3035 13.3999C13.6684 13.3999 13.1536 12.885 13.1536 12.2499C13.1536 11.6148 13.6684 11.0999 14.3035 11.0999Z" fill="#141415"/>
</svg>
