<svg width="53" height="56" viewBox="0 0 53 56" fill="none" xmlns="http://www.w3.org/2000/svg">
<rect x="12.8398" y="16.3992" width="22.5487" height="20.4988" fill="#EFF0EF"/>
<path fill-rule="evenodd" clip-rule="evenodd" d="M1.17124 16.4031C2.17537 9.8815 7.01277 2.72298 15.6084 0.553004C24.1858 -1.4488 35.8494 1.80141 40.1717 13.3041C41.2775 16.2468 44.1048 20.3783 47.3883 22.2153C52.4776 25.0628 53.8568 29.526 52.0661 34.7826C50.6335 38.9878 46.5368 40.581 42.068 40.7114C38.1729 40.825 29.6946 42.3876 25.4163 49.6992C21.1381 57.0107 14.1098 55.507 10.7901 54.4752C9.05923 53.8422 5.58268 52.2418 3.70919 45.9178C1.74303 39.2809 -0.607215 27.9537 1.17124 16.4031ZM20.5547 29.6477C22.6962 31.3021 25.6776 31.1061 27.2139 29.2098C28.7502 27.3135 28.2596 24.4351 26.1182 22.7807C23.9767 21.1263 20.9953 21.3224 19.459 23.2186C17.9227 25.1149 18.4133 27.9933 20.5547 29.6477Z" fill="#FFEB1A"/>
<path fill-rule="evenodd" clip-rule="evenodd" d="M20.8856 29.9282C24.7835 32.9394 30.1828 32.6162 32.9455 29.2062C35.7082 25.7962 34.788 20.5908 30.8902 17.5795C26.9924 14.5682 21.593 14.8914 18.8303 18.3014C16.2557 21.4792 16.8796 26.2164 20.1311 29.2838C20.153 29.3046 20.175 29.3252 20.1973 29.3457C20.4153 29.5476 20.6448 29.7421 20.8856 29.9282ZM20.1973 29.3457C20.3111 29.4503 20.4306 29.5512 20.5558 29.6479C22.6973 31.3023 25.6787 31.1062 27.215 29.21C28.7513 27.3137 28.2607 24.4353 26.1192 22.7809C23.9778 21.1265 20.9963 21.3225 19.46 23.2188C18.0311 24.9825 18.3556 27.5959 20.1311 29.2838C20.153 29.3046 20.175 29.3252 20.1973 29.3457Z" fill="#4D4600"/>
<path d="M18.4418 17.9867C15.6825 21.3925 16.3784 26.3979 19.7495 29.611C19.8016 29.6615 19.8548 29.7111 19.9091 29.76C20.1226 29.955 20.3462 30.1433 20.58 30.3238C24.6501 33.4682 30.3683 33.1816 33.334 29.521C36.3077 25.8505 35.27 20.3314 31.1959 17.1838C27.1258 14.0394 21.4075 14.3261 18.4418 17.9867ZM18.099 25.1852C17.3798 22.9012 17.7239 20.4613 19.2188 18.6162C21.7784 15.4568 26.859 15.097 30.5845 17.9752C34.3059 20.8502 35.1087 25.742 32.557 28.8915C30.7236 31.1545 27.5967 31.9812 24.6009 31.2103C25.7609 31.0344 26.8352 30.473 27.6035 29.5247C29.3473 27.3723 28.7477 24.1797 26.4249 22.3852C25.6165 21.7607 24.6889 21.3742 23.7498 21.2266C21.9956 20.9505 20.2014 21.508 19.0705 22.9039C18.518 23.5858 18.2008 24.372 18.099 25.1852ZM1.66542 16.4792C2.64393 10.124 7.35898 3.15328 15.7264 1.0389C24.1265 -0.91949 35.4928 2.27388 39.7037 13.4799C40.2761 15.0033 41.2854 16.8148 42.5672 18.4794C43.8475 20.1419 45.4236 21.6891 47.1441 22.6517C49.6061 24.0291 51.1276 25.771 51.8361 27.7631C52.546 29.7592 52.4621 32.0697 51.5928 34.6213C50.2615 38.5293 46.4437 40.0835 42.0535 40.2116C38.1037 40.3269 29.3964 41.9072 24.9848 49.4467C22.9256 52.9659 20.2337 54.334 17.6691 54.7215C15.082 55.1125 12.5887 54.5098 10.9503 54.0014C10.1188 53.6966 8.89409 53.1675 7.64979 51.9703C6.39984 50.7677 5.1038 48.8651 4.1886 45.7758C2.23225 39.172 -0.097077 27.9262 1.66542 16.4792Z" stroke="black" stroke-opacity="0.17"/>
</svg>
