<svg width="24" height="24" viewBox="0 0 24 24" fill="none" xmlns="http://www.w3.org/2000/svg">
<path d="M12.448 8.10275C13.0003 8.10275 13.448 8.55046 13.448 9.10275V13.1027C13.448 13.655 13.0003 14.1027 12.448 14.1027C11.8957 14.1027 11.448 13.655 11.448 13.1027V9.10275C11.448 8.55046 11.8957 8.10275 12.448 8.10275Z" fill="#141415"/>
<path d="M12.448 16.1027C11.8957 16.1027 11.448 16.5505 11.448 17.1027C11.448 17.655 11.8957 18.1027 12.448 18.1027H12.458C13.0103 18.1027 13.458 17.655 13.458 17.1027C13.458 16.5505 13.0103 16.1027 12.458 16.1027H12.448Z" fill="#141415"/>
<path fill-rule="evenodd" clip-rule="evenodd" d="M10.9762 2.38584C11.4255 2.13289 11.9324 2 12.448 2C12.9636 2 13.4705 2.13289 13.9198 2.38584C14.3691 2.6388 14.7456 3.00328 15.013 3.44412L15.0159 3.44886L23.4859 17.5889L23.494 17.6027C23.756 18.0563 23.8946 18.5706 23.896 19.0945C23.8975 19.6183 23.7618 20.1334 23.5024 20.5885C23.243 21.0436 22.8689 21.4228 22.4174 21.6885C21.966 21.9541 21.4528 22.0969 20.929 22.1027L20.918 22.1028L3.96703 22.1027C3.44322 22.097 2.93006 21.9541 2.47859 21.6885C2.02712 21.4228 1.65307 21.0436 1.39367 20.5885C1.13426 20.1334 0.998545 19.6183 1.00001 19.0945C1.00148 18.5706 1.14008 18.0563 1.40203 17.6027L1.41015 17.5889L9.88015 3.44887L10.738 3.96273L9.88302 3.44412C10.1504 3.00328 10.5269 2.6388 10.9762 2.38584ZM11.5942 4.47938L3.13071 18.6086C3.04553 18.7584 3.00049 18.9277 3 19.1001C2.99952 19.2747 3.04475 19.4464 3.13122 19.5981C3.21769 19.7498 3.34237 19.8762 3.49286 19.9647C3.64204 20.0525 3.81141 20.1 3.98442 20.1027H20.9116C21.0846 20.1 21.254 20.0525 21.4032 19.9647C21.5537 19.8762 21.6783 19.7498 21.7648 19.5981C21.8513 19.4464 21.8965 19.2747 21.896 19.1001C21.8956 18.9277 21.8505 18.7584 21.7654 18.6086L13.303 4.48137L13.3018 4.47938C13.2127 4.33333 13.0877 4.21255 12.9386 4.12861C12.7889 4.0443 12.6199 4 12.448 4C12.2762 4 12.1072 4.0443 11.9574 4.12861C11.8083 4.21255 11.6833 4.33333 11.5942 4.47938Z" fill="#141415"/>
</svg>
