<svg width="54" height="56" viewBox="0 0 54 56" fill="none" xmlns="http://www.w3.org/2000/svg">
<rect x="7.05566" y="15.3989" width="22.5487" height="20.4988" fill="#EFF0EF"/>
<path fill-rule="evenodd" clip-rule="evenodd" d="M1.53648 16.428C2.5406 9.9064 7.37799 2.74788 15.9736 0.577907C24.5509 -1.4239 36.2145 1.82631 40.5369 13.329C41.6426 16.2717 44.4699 20.4032 47.7534 22.2402C52.8427 25.0877 54.2219 29.5509 52.4312 34.8075C50.9986 39.0127 46.902 40.6059 42.4332 40.7363C38.538 40.85 30.0597 42.4125 25.7815 49.7241C21.5033 57.0356 14.475 55.5319 11.1553 54.5001C9.42444 53.8671 5.9479 52.2667 4.07442 45.9427C2.10826 39.3058 -0.241978 27.9786 1.53648 16.428ZM20.9199 29.6726C23.0614 31.327 26.0428 31.131 27.5791 29.2347C29.1154 27.3384 28.6248 24.4601 26.4833 22.8056C24.3419 21.1512 21.3604 21.3473 19.8241 23.2435C18.2878 25.1398 18.7784 28.0182 20.9199 29.6726Z" fill="#FFEB1A"/>
<path fill-rule="evenodd" clip-rule="evenodd" d="M21.2508 29.9531C25.1486 32.9643 30.548 32.6411 33.3107 29.2311C36.0733 25.8211 35.1531 20.6157 31.2553 17.6044C27.3575 14.5931 21.9582 14.9163 19.1955 18.3263C16.6209 21.5041 17.2448 26.2413 20.4963 29.3087C20.5181 29.3295 20.5402 29.3501 20.5625 29.3706C20.7805 29.5725 21.01 29.767 21.2508 29.9531ZM20.5625 29.3706C20.6763 29.4752 20.7958 29.5761 20.921 29.6728C23.0625 31.3272 26.0439 31.1311 27.5802 29.2349C29.1165 27.3386 28.6259 24.4602 26.4844 22.8058C24.3429 21.1514 21.3615 21.3474 19.8252 23.2437C18.3963 25.0074 18.7208 27.6208 20.4963 29.3087C20.5181 29.3295 20.5402 29.3501 20.5625 29.3706Z" fill="#FFEB1A"/>
<path fill-rule="evenodd" clip-rule="evenodd" d="M15.9736 0.577907C7.37799 2.74788 2.5406 9.9064 1.53648 16.428C0.265941 24.6798 1.10258 32.8176 2.40098 39.2126C3.45176 38.858 4.52321 38.5674 5.60696 38.3433C5.92926 38.2773 6.24702 38.4782 6.31501 38.7934C6.38265 39.1078 6.17758 39.4175 5.85376 39.4842C4.76783 39.7088 3.69479 40.0035 2.64382 40.3652C2.72882 40.7544 2.81525 41.1363 2.9027 41.5105C5.5999 40.5604 8.41932 40.0869 11.3124 40.1011C11.6427 40.1021 11.9085 40.3648 11.9071 40.6864C11.906 41.0088 11.6379 41.2685 11.3072 41.2667C8.50931 41.2534 5.78385 41.7191 3.17872 42.6536C3.27586 43.0434 3.3737 43.4234 3.47171 43.7933C7.45474 42.3516 11.8304 42.0478 15.9777 42.9479C16.3003 43.0178 16.5031 43.3293 16.4312 43.6433C16.3603 43.9577 16.0403 44.1559 15.7184 44.0857C11.7581 43.2252 7.57725 43.5269 3.78062 44.9248C3.87913 45.2752 3.97724 45.6146 4.07442 45.9427L4.10654 46.0501C9.15703 44.1504 14.7549 44.3495 19.6721 46.6436C19.9692 46.7823 20.0951 47.1308 19.953 47.4208C19.8101 47.711 19.4532 47.8346 19.1557 47.6952C14.5173 45.5317 9.23468 45.3524 4.47502 47.1608C4.61399 47.5428 4.75914 47.9047 4.90945 48.2477C10.8153 46.0127 17.5767 47.1043 22.4355 51.1585C22.6861 51.3684 22.7151 51.7359 22.5011 51.9807C22.2861 52.2252 21.9094 52.2535 21.6584 52.0448C17.1568 48.2882 10.9 47.2639 5.41947 49.306C5.61371 49.6728 5.81391 50.0137 6.01829 50.3307C11.1701 48.4779 16.9758 49.5234 21.1244 53.1384C21.3931 53.3727 21.6518 53.6152 21.9 53.8655C23.3076 52.9934 24.6421 51.6714 25.7815 49.7241C30.0597 42.4125 38.538 40.85 42.4332 40.7363C46.902 40.6059 50.9986 39.0127 52.4312 34.8075C54.2219 29.5509 52.8427 25.0877 47.7534 22.2402C44.4699 20.4032 41.6427 16.2717 40.5369 13.329C36.2145 1.82631 24.5509 -1.4239 15.9736 0.577907ZM19.5755 54.9124C19.9891 54.7877 20.4021 54.6341 20.8117 54.4476C20.655 54.297 20.494 54.1497 20.329 54.0059C16.5909 50.749 11.3915 49.759 6.72717 51.3198C7.01158 51.6764 7.29988 51.9939 7.58774 52.2771C11.7223 51.0689 16.2477 52.0127 19.5349 54.8769C19.5485 54.8887 19.562 54.9006 19.5755 54.9124ZM18.1172 55.2396C15.4153 53.2011 11.9488 52.4762 8.67455 53.201C9.62795 53.8961 10.5121 54.2648 11.1553 54.5C12.8168 55.0165 15.4074 55.6511 18.1172 55.2396ZM23.9839 21.7361C22.4052 21.5058 20.8152 22.0218 19.8252 23.2437C18.3963 25.0074 18.7208 27.6208 20.4963 29.3087C20.4758 29.2894 20.4554 29.27 20.4351 29.2505C20.4957 29.3099 20.5579 29.3681 20.6219 29.4252C20.602 29.4071 20.5822 29.3889 20.5625 29.3706C20.6763 29.4752 20.7958 29.5761 20.921 29.6728C21.6674 30.2494 22.5159 30.6013 23.3697 30.7347C24.9649 30.9836 26.5785 30.4697 27.5791 29.2347C29.1154 27.3384 28.6248 24.4601 26.4833 22.8056C25.76 22.2468 24.9409 21.8991 24.1139 21.7568C24.0706 21.7493 24.0272 21.7424 23.9839 21.7361ZM20.4963 29.3087C20.5182 29.3295 20.5402 29.3501 20.5625 29.3706C20.5403 29.35 20.5183 29.3294 20.4963 29.3087Z" fill="black"/>
<path fill-rule="evenodd" clip-rule="evenodd" d="M21.2632 29.9344C25.133 32.9215 30.4935 32.6009 33.2363 29.2183C35.9791 25.8357 35.0655 20.6721 31.1957 17.685C27.326 14.6979 21.9655 15.0185 19.2227 18.4011C16.6748 21.5433 17.2821 26.2223 20.4831 29.2659C20.5252 29.3065 20.5681 29.3466 20.6118 29.3861C20.8187 29.5759 21.0358 29.7589 21.2632 29.9344ZM20.6118 29.3861C20.7152 29.4795 20.8231 29.5698 20.9357 29.6567C23.0618 31.2978 26.0217 31.1033 27.547 29.2223C29.0722 27.3413 28.5851 24.486 26.4591 22.8449C24.333 21.2038 21.373 21.3982 19.8478 23.2793C18.4375 25.0186 18.7476 27.5908 20.4831 29.2659C20.5256 29.3063 20.5685 29.3464 20.6118 29.3861Z" fill="#686767"/>
</svg>
