<svg width="24" height="24" viewBox="0 0 24 24" fill="none" xmlns="http://www.w3.org/2000/svg">
<path d="M19.5015 13.0719C19.2807 13.0719 19.0499 13.0014 18.8291 12.9511C18.382 12.8524 17.9426 12.7212 17.5144 12.5586C17.0488 12.3887 16.537 12.3975 16.0776 12.5833C15.6181 12.7691 15.2433 13.1188 15.0255 13.5651L14.8047 14.018C13.8273 13.4724 12.9291 12.7951 12.1351 12.005C11.3472 11.2087 10.6719 10.3078 10.1279 9.32761L10.5494 9.04578C10.9944 8.82728 11.343 8.45146 11.5283 7.99063C11.7136 7.5298 11.7224 7.01654 11.553 6.5496C11.3927 6.11955 11.2619 5.679 11.1616 5.23105C11.1114 5.00961 11.0713 4.77811 11.0412 4.54661C10.9193 3.83763 10.549 3.19559 9.99704 2.73611C9.44505 2.27663 8.74763 2.0299 8.03036 2.04036H5.01955C4.58703 2.03629 4.15871 2.12573 3.76375 2.30259C3.36879 2.47945 3.01647 2.73959 2.73076 3.06529C2.44505 3.39098 2.23268 3.7746 2.10808 4.19001C1.98349 4.60542 1.9496 5.04289 2.00874 5.47261C2.5434 9.68934 4.46358 13.6072 7.46598 16.6074C10.4684 19.6077 14.3819 21.5192 18.5883 22.04H18.9696C19.7097 22.0411 20.4242 21.7688 20.9768 21.2751C21.2943 20.9903 21.548 20.6411 21.721 20.2508C21.894 19.8604 21.9824 19.4376 21.9804 19.0104V15.9908C21.9681 15.2917 21.7143 14.6185 21.2622 14.0861C20.8101 13.5538 20.1878 13.1953 19.5015 13.0719ZM20.0033 19.111C20.0032 19.254 19.9726 19.3952 19.9138 19.5254C19.855 19.6555 19.7692 19.7716 19.6621 19.8659C19.5503 19.9636 19.4192 20.0365 19.2774 20.0798C19.1356 20.1232 18.9863 20.136 18.8392 20.1176C15.0806 19.6342 11.5894 17.9097 8.91625 15.2161C6.24314 12.5224 4.54024 9.01291 4.07616 5.24111C4.06077 5.0937 4.07504 4.94469 4.11814 4.80291C4.16124 4.66114 4.23228 4.52949 4.32706 4.41576C4.42111 4.3084 4.53687 4.22235 4.66666 4.16334C4.79644 4.10433 4.93727 4.07372 5.07976 4.07354H8.09057C8.32396 4.06833 8.55185 4.14488 8.73503 4.29002C8.91821 4.43515 9.04521 4.63978 9.09417 4.8687C9.13432 5.14381 9.1845 5.41558 9.24472 5.68398C9.36023 6.21468 9.51454 6.73612 9.70637 7.2441L8.30133 7.89834C8.18119 7.95362 8.07313 8.03216 7.98334 8.12944C7.89356 8.22672 7.82381 8.34082 7.77812 8.46521C7.73243 8.5896 7.71168 8.72181 7.71708 8.85426C7.72247 8.98671 7.7539 9.11679 7.80956 9.23702C9.25466 12.3394 11.7414 14.8334 14.8348 16.2827C15.0791 16.3834 15.3532 16.3834 15.5975 16.2827C15.7227 16.2378 15.8377 16.1684 15.9359 16.0786C16.0341 15.9887 16.1135 15.8802 16.1696 15.7593L16.7918 14.3502C17.3109 14.5356 17.8403 14.6902 18.3775 14.8132C18.6451 14.8736 18.9161 14.9239 19.1904 14.9642C19.4187 15.0133 19.6227 15.1406 19.7674 15.3243C19.9121 15.5081 19.9885 15.7366 19.9833 15.9707L20.0033 19.111Z" fill="#141415"/>
</svg>
