<svg width="16" height="16" viewBox="0 0 16 16" fill="none" xmlns="http://www.w3.org/2000/svg">
<path fill-rule="evenodd" clip-rule="evenodd" d="M8 16C12.4183 16 16 12.4183 16 8C16 3.58172 12.4183 0 8 0C3.58172 0 0 3.58172 0 8C0 12.4183 3.58172 16 8 16ZM8.76261 11.0614C9.17359 11.3398 9.66412 11.4801 10.2342 11.4823C10.8043 11.4823 11.2937 11.3431 11.7025 11.0647C12.1113 10.7863 12.425 10.383 12.6438 9.85494C12.8647 9.32684 12.9752 8.69048 12.9752 7.94585C12.9774 7.20563 12.868 6.5759 12.6471 6.05664C12.4261 5.53518 12.1101 5.13745 11.6992 4.86346C11.2904 4.58947 10.8021 4.45247 10.2342 4.45247C9.66633 4.45247 9.17691 4.58947 8.76592 4.86346C8.35715 5.13524 8.04228 5.53186 7.82132 6.05333C7.60257 6.57479 7.4932 7.20563 7.4932 7.94585C7.49099 8.68827 7.59926 9.32353 7.81801 9.85162C8.03897 10.3797 8.35383 10.783 8.76261 11.0614ZM11.1655 9.70579C10.9335 10.0969 10.6231 10.2924 10.2342 10.2924C9.97568 10.2924 9.7503 10.2063 9.55806 10.0339C9.36583 9.85935 9.21668 9.59862 9.11062 9.25172C9.00677 8.9026 8.95484 8.46731 8.95484 7.94585C8.95705 7.1747 9.07416 6.59578 9.30617 6.2091C9.53818 5.82242 9.84752 5.62908 10.2342 5.62908C10.4927 5.62908 10.717 5.71526 10.907 5.88761C11.0993 6.05996 11.2473 6.31737 11.3512 6.65986C11.4572 7.00235 11.5102 7.43101 11.5102 7.94585C11.5125 8.72804 11.3976 9.31469 11.1655 9.70579ZM6.05279 11.3332V4.54528H4.70384L3.02344 5.6092V6.88193L4.57789 5.90749H4.61766V11.3332H6.05279Z" fill="white"/>
</svg>
