<svg width="81" height="80" viewBox="0 0 81 80" fill="none" xmlns="http://www.w3.org/2000/svg">
<g clip-path="url(#clip0_2514_15039)">
<rect x="0.5" width="80" height="80" rx="40" fill="#1A1A1A" fill-opacity="0.74"/>
<rect width="80" height="80" transform="translate(0.5)" fill="#1A1A1A" fill-opacity="0.12"/>
<path d="M48.5 37C48.2348 37 47.9804 37.1054 47.7929 37.2929C47.6054 37.4804 47.5 37.7348 47.5 38V41.38L46.02 39.9C45.4974 39.3815 44.7911 39.0906 44.055 39.0906C43.3189 39.0906 42.6126 39.3815 42.09 39.9L41.39 40.61L38.91 38.12C38.3874 37.6015 37.6811 37.3106 36.945 37.3106C36.2089 37.3106 35.5026 37.6015 34.98 38.12L33.5 39.61V34C33.5 33.7348 33.6054 33.4804 33.7929 33.2929C33.9804 33.1054 34.2348 33 34.5 33H42.5C42.7652 33 43.0196 32.8946 43.2071 32.7071C43.3946 32.5196 43.5 32.2652 43.5 32C43.5 31.7348 43.3946 31.4804 43.2071 31.2929C43.0196 31.1054 42.7652 31 42.5 31H34.5C33.7044 31 32.9413 31.3161 32.3787 31.8787C31.8161 32.4413 31.5 33.2044 31.5 34V46.22C31.5026 46.9565 31.7964 47.6621 32.3172 48.1828C32.8379 48.7036 33.5435 48.9974 34.28 49H46.72C46.9909 48.9963 47.26 48.9559 47.52 48.88C48.0974 48.718 48.6058 48.3711 48.9671 47.8924C49.3283 47.4137 49.5226 46.8297 49.52 46.23V38C49.52 37.867 49.4935 37.7353 49.442 37.6126C49.3905 37.49 49.3151 37.3789 49.2201 37.2857C49.1251 37.1926 49.0125 37.1194 48.8888 37.0703C48.7652 37.0212 48.633 36.9973 48.5 37ZM34.5 47C34.2348 47 33.9804 46.8946 33.7929 46.7071C33.6054 46.5196 33.5 46.2652 33.5 46V42.43L36.39 39.54C36.5362 39.3947 36.7339 39.3131 36.94 39.3131C37.1461 39.3131 37.3438 39.3947 37.49 39.54L44.96 47H34.5ZM47.5 46C47.4936 46.1936 47.431 46.3812 47.32 46.54L42.8 42L43.51 41.3C43.5817 41.2268 43.6673 41.1687 43.7617 41.129C43.8561 41.0893 43.9576 41.0689 44.06 41.0689C44.1624 41.0689 44.2639 41.0893 44.3583 41.129C44.4527 41.1687 44.5383 41.2268 44.61 41.3L47.5 44.21V46ZM50.5 31H49.5V30C49.5 29.7348 49.3946 29.4804 49.2071 29.2929C49.0196 29.1054 48.7652 29 48.5 29C48.2348 29 47.9804 29.1054 47.7929 29.2929C47.6054 29.4804 47.5 29.7348 47.5 30V31H46.5C46.2348 31 45.9804 31.1054 45.7929 31.2929C45.6054 31.4804 45.5 31.7348 45.5 32C45.5 32.2652 45.6054 32.5196 45.7929 32.7071C45.9804 32.8946 46.2348 33 46.5 33H47.5V34C47.5 34.2652 47.6054 34.5196 47.7929 34.7071C47.9804 34.8946 48.2348 35 48.5 35C48.7652 35 49.0196 34.8946 49.2071 34.7071C49.3946 34.5196 49.5 34.2652 49.5 34V33H50.5C50.7652 33 51.0196 32.8946 51.2071 32.7071C51.3946 32.5196 51.5 32.2652 51.5 32C51.5 31.7348 51.3946 31.4804 51.2071 31.2929C51.0196 31.1054 50.7652 31 50.5 31Z" fill="white"/>
</g>
<defs>
<clipPath id="clip0_2514_15039">
<rect x="0.5" width="80" height="80" rx="40" fill="white"/>
</clipPath>
</defs>
</svg>
