<svg width="24" height="24" viewBox="0 0 24 24" fill="none" xmlns="http://www.w3.org/2000/svg">
<path d="M1.70711 5.29289C1.31658 4.90237 0.683417 4.90237 0.292893 5.29289C-0.0976311 5.68342 -0.0976311 6.31658 0.292893 6.70711L7.79289 14.2071C8.18342 14.5976 8.81658 14.5976 9.20711 14.2071L13.5 9.91421L20.5858 17H17C16.4477 17 16 17.4477 16 18C16 18.5523 16.4477 19 17 19H23C23.5523 19 24 18.5523 24 18V12C24 11.4477 23.5523 11 23 11C22.4477 11 22 11.4477 22 12V15.5858L14.2071 7.79289C13.8166 7.40237 13.1834 7.40237 12.7929 7.79289L8.5 12.0858L1.70711 5.29289Z" fill="#141415"/>
</svg>
