<svg width="50" height="45" viewBox="0 0 50 45" fill="none" xmlns="http://www.w3.org/2000/svg">
<g filter="url(#filter0_d_2761_22912)">
<path d="M4.22266 26V18.9297H8.65625V19.8574H5.29688V21.9961H8.42188V22.9141H5.29688V25.0723H8.69531V26H4.22266ZM10.5801 26H9.4375L11.9766 18.9297H13.2168L15.7656 26H14.623L13.9785 24.1348H11.2246L10.5801 26ZM11.5371 23.2363H13.666L12.6211 20.2188H12.5723L11.5371 23.2363ZM20.4531 20.7949C20.3848 20.1406 19.8086 19.7598 18.998 19.7598C18.1289 19.7598 17.582 20.1992 17.582 20.8047C17.582 21.4785 18.3145 21.7324 18.8711 21.8691L19.5547 22.0547C20.4629 22.2695 21.5859 22.7676 21.5957 24.0469C21.5859 25.2383 20.6387 26.1172 18.9688 26.1172C17.3867 26.1172 16.3906 25.3262 16.3223 24.0371H17.3965C17.4648 24.8086 18.1387 25.1797 18.9688 25.1797C19.8672 25.1797 20.5215 24.7207 20.5312 24.0273C20.5215 23.4121 19.9453 23.1582 19.1934 22.9629L18.3535 22.7383C17.2207 22.4258 16.5078 21.8496 16.5078 20.8633C16.5078 19.6426 17.6016 18.832 19.0273 18.832C20.4629 18.832 21.4688 19.6523 21.498 20.7949H20.4531ZM22.2012 18.9297H23.4219L25.2578 22.1328H25.3359L27.1816 18.9297H28.4023L25.834 23.2266V26H24.7598V23.2266L22.2012 18.9297Z" fill="#AAABB1"/>
<g clip-path="url(#clip0_2761_22912)">
<path d="M34.3536 19.1464C34.1583 18.9512 33.8417 18.9512 33.6464 19.1464C33.4512 19.3417 33.4512 19.6583 33.6464 19.8536L37.3964 23.6036C37.5917 23.7988 37.9083 23.7988 38.1036 23.6036L40.25 21.4571L43.7929 25H42C41.7239 25 41.5 25.2239 41.5 25.5C41.5 25.7761 41.7239 26 42 26H45C45.2761 26 45.5 25.7761 45.5 25.5V22.5C45.5 22.2239 45.2761 22 45 22C44.7239 22 44.5 22.2239 44.5 22.5V24.2929L40.6036 20.3964C40.4083 20.2012 40.0917 20.2012 39.8964 20.3964L37.75 22.5429L34.3536 19.1464Z" fill="#69A5FF"/>
</g>
</g>
<defs>
<filter id="filter0_d_2761_22912" x="-1" y="0" width="51" height="53" filterUnits="userSpaceOnUse" color-interpolation-filters="sRGB">
<feFlood flood-opacity="0" result="BackgroundImageFix"/>
<feColorMatrix in="SourceAlpha" type="matrix" values="0 0 0 0 0 0 0 0 0 0 0 0 0 0 0 0 0 0 127 0" result="hardAlpha"/>
<feOffset dy="4"/>
<feGaussianBlur stdDeviation="2"/>
<feComposite in2="hardAlpha" operator="out"/>
<feColorMatrix type="matrix" values="0 0 0 0 0 0 0 0 0 0 0 0 0 0 0 0 0 0 0.25 0"/>
<feBlend mode="normal" in2="BackgroundImageFix" result="effect1_dropShadow_2761_22912"/>
<feBlend mode="normal" in="SourceGraphic" in2="effect1_dropShadow_2761_22912" result="shape"/>
</filter>
<clipPath id="clip0_2761_22912">
<rect width="12" height="12" fill="white" transform="translate(33.5 16.5)"/>
</clipPath>
</defs>
</svg>
