<svg width="24" height="24" viewBox="0 0 24 24" fill="none" xmlns="http://www.w3.org/2000/svg">
<path fill-rule="evenodd" clip-rule="evenodd" d="M4.47781 9.72727C4.47781 5.45962 7.84561 2 12 2C16.1544 2 19.5222 5.45962 19.5222 9.72727V14.0333C19.5222 14.1566 19.5222 14.2183 19.5297 14.279C19.5363 14.3329 19.5473 14.3862 19.5627 14.4384C19.5799 14.4971 19.6044 14.5537 19.6534 14.667L20.5617 16.7663C20.8843 17.5118 21.0455 17.8846 20.9888 18.1851C20.9392 18.4477 20.7862 18.6796 20.564 18.829C20.3098 19 19.9026 19 19.0882 19H4.91181C4.0974 19 3.6902 19 3.43599 18.829C3.21378 18.6796 3.06082 18.4477 3.01121 18.1851C2.95445 17.8846 3.11574 17.5118 3.43832 16.7663L4.34656 14.667C4.39557 14.5537 4.42008 14.4971 4.43733 14.4384C4.45265 14.3862 4.46369 14.3329 4.47033 14.279C4.47781 14.2183 4.47781 14.1566 4.47781 14.0333V9.72727ZM9.4926 21C8.93868 21 8.48964 21.4477 8.48964 22C8.48964 22.5523 8.93868 23 9.4926 23H14.5074C15.0613 23 15.5104 22.5523 15.5104 22C15.5104 21.4477 15.0613 21 14.5074 21H9.4926Z" fill="#141415"/>
</svg>
