<svg width="16" height="16" viewBox="0 0 16 16" fill="none" xmlns="http://www.w3.org/2000/svg">
<path fill-rule="evenodd" clip-rule="evenodd" d="M16 8C16 12.4183 12.4183 16 8 16C3.58172 16 0 12.4183 0 8C0 3.58172 3.58172 0 8 0C12.4183 0 16 3.58172 16 8ZM11.7031 5V10.6562H10.3672V6.25H10.3359L9.0625 7.03125V5.875L10.4609 5H11.7031ZM4 5V10.6562H6.51562C7.76562 10.6562 8.47656 9.99219 8.47656 9.07812C8.47656 8.25781 7.88281 7.74219 7.20312 7.71094V7.65625C7.82031 7.53125 8.25781 7.08594 8.25781 6.4375C8.25781 5.57812 7.60156 5 6.33594 5H4ZM7.08594 8.92969C7.08594 9.33594 6.8125 9.57812 6.20312 9.57812H5.32812V8.20312H6.22656C6.75781 8.20312 7.08594 8.48438 7.08594 8.92969ZM6.89844 6.6875C6.89844 7.09375 6.57031 7.33594 6.11719 7.33594H5.32812V6.0625H6.13281C6.60938 6.0625 6.89844 6.30469 6.89844 6.6875Z" fill="white"/>
</svg>
