<svg width="16" height="16" viewBox="0 0 16 16" fill="none" xmlns="http://www.w3.org/2000/svg">
<path fill-rule="evenodd" clip-rule="evenodd" d="M16 8C16 12.4183 12.4183 16 8 16C3.58172 16 0 12.4183 0 8C0 3.58172 3.58172 0 8 0C12.4183 0 16 3.58172 16 8ZM10.582 10.8125C9.34766 10.8125 8.22266 10.0781 8.22266 8.00781C8.23047 6.13281 9.16797 5 10.6133 5C11.8008 5 12.6055 5.75781 12.7148 6.70312H11.4023C11.3164 6.33594 11.0117 6.14062 10.6133 6.14062C9.89453 6.14062 9.54297 6.78906 9.54297 7.82031H9.58203C9.82422 7.3125 10.3945 7.00781 11.0273 7.00781C12.0508 7.00781 12.7773 7.76562 12.7773 8.82031C12.7773 10 11.8867 10.8125 10.582 10.8125ZM10.5742 9.78125C11.0977 9.78125 11.4883 9.39062 11.4805 8.85938C11.4883 8.33594 11.1055 7.94531 10.582 7.94531C10.0586 7.94531 9.66797 8.34375 9.66797 8.86719C9.66797 9.375 10.0508 9.78125 10.5742 9.78125ZM3.19922 5.07812V10.7344H5.71484C6.96484 10.7344 7.67578 10.0703 7.67578 9.15625C7.67578 8.33594 7.08203 7.82031 6.40234 7.78906V7.73438C7.01953 7.60938 7.45703 7.16406 7.45703 6.51562C7.45703 5.65625 6.80078 5.07812 5.53516 5.07812H3.19922ZM6.28516 9.00781C6.28516 9.41406 6.01172 9.65625 5.40234 9.65625H4.52734V8.28125H5.42578C5.95703 8.28125 6.28516 8.5625 6.28516 9.00781ZM6.09766 6.76562C6.09766 7.17188 5.76953 7.41406 5.31641 7.41406H4.52734V6.14062H5.33203C5.80859 6.14062 6.09766 6.38281 6.09766 6.76562Z" fill="white"/>
</svg>
