<svg width="24" height="24" viewBox="0 0 24 24" fill="none" xmlns="http://www.w3.org/2000/svg">
<path fill-rule="evenodd" clip-rule="evenodd" d="M12 11.1538C14.7614 11.1538 17 8.88083 17 6.07692C17 3.27302 14.7614 1 12 1C9.23858 1 7 3.27302 7 6.07692C7 8.88083 9.23858 11.1538 12 11.1538ZM2.08957 16.8542C2 17.2386 2 17.5869 2 18.2834C2 19.5229 2 20.1426 2.15795 20.6449C2.48615 21.6886 3.29156 22.5064 4.3194 22.8396C4.81406 23 5.42441 23 6.6451 23H17.3549C18.5756 23 19.1859 23 19.6806 22.8396C20.7084 22.5064 21.5138 21.6886 21.842 20.6449C22 20.1426 22 19.5229 22 18.2834C22 17.5869 22 17.2386 21.9104 16.8542C21.7467 16.1516 21.1874 15.3043 20.6097 14.8834C20.2936 14.6532 20.0617 14.5564 19.5978 14.3628C17.2553 13.3852 14.6896 12.8462 12 12.8462C9.31036 12.8462 6.74472 13.3852 4.40218 14.3628C3.93833 14.5564 3.70641 14.6532 3.39032 14.8834C2.81255 15.3043 2.25331 16.1516 2.08957 16.8542Z" fill="#141415"/>
</svg>
