<svg width="24" height="24" viewBox="0 0 24 24" fill="none" xmlns="http://www.w3.org/2000/svg">
<path d="M13.1 6.5H9.8C9.50827 6.5 9.22848 6.61589 9.02219 6.82218C8.8159 7.02847 8.7 7.30826 8.7 7.6V16.4C8.7 16.6917 8.8159 16.9715 9.02219 17.1778C9.22848 17.3841 9.50827 17.5 9.8 17.5C10.0917 17.5 10.3715 17.3841 10.5778 17.1778C10.7841 16.9715 10.9 16.6917 10.9 16.4V14.2H13.1C13.9752 14.2 14.8146 13.8523 15.4335 13.2334C16.0523 12.6146 16.4 11.7752 16.4 10.9V9.8C16.4 8.92478 16.0523 8.08542 15.4335 7.46655C14.8146 6.84768 13.9752 6.5 13.1 6.5ZM14.2 10.9C14.2 11.1917 14.0841 11.4715 13.8778 11.6778C13.6715 11.8841 13.3917 12 13.1 12H10.9V8.7H13.1C13.3917 8.7 13.6715 8.81589 13.8778 9.02218C14.0841 9.22847 14.2 9.50826 14.2 9.8V10.9ZM12 1C9.82441 1 7.69767 1.64514 5.88873 2.85383C4.07979 4.06253 2.66989 5.78049 1.83733 7.79048C1.00477 9.80047 0.786929 12.0122 1.21137 14.146C1.6358 16.2798 2.68345 18.2398 4.22183 19.7782C5.76021 21.3165 7.72022 22.3642 9.85401 22.7886C11.9878 23.2131 14.1995 22.9952 16.2095 22.1627C18.2195 21.3301 19.9375 19.9202 21.1462 18.1113C22.3549 16.3023 23 14.1756 23 12C23 10.5555 22.7155 9.12506 22.1627 7.79048C21.6099 6.4559 20.7996 5.24327 19.7782 4.22182C18.7567 3.20038 17.5441 2.39013 16.2095 1.83732C14.8749 1.28452 13.4445 1 12 1ZM12 20.8C10.2595 20.8 8.55814 20.2839 7.11099 19.3169C5.66383 18.35 4.53592 16.9756 3.86986 15.3676C3.20381 13.7596 3.02954 11.9902 3.36909 10.2832C3.70864 8.57617 4.54676 7.00816 5.77746 5.77746C7.00817 4.54676 8.57618 3.70864 10.2832 3.36909C11.9902 3.02954 13.7596 3.20381 15.3676 3.86986C16.9756 4.53591 18.35 5.66383 19.3169 7.11098C20.2839 8.55813 20.8 10.2595 20.8 12C20.8 14.3339 19.8729 16.5722 18.2225 18.2225C16.5722 19.8729 14.3339 20.8 12 20.8Z" fill="#141415"/>
</svg>
