<svg width="135" height="169" viewBox="0 0 135 169" fill="none" xmlns="http://www.w3.org/2000/svg">
<path fill-rule="evenodd" clip-rule="evenodd" d="M46.0603 14.5791C29.4107 18.8134 20.0407 32.7821 18.0957 45.5078C15.6347 61.6101 17.2553 77.4898 19.7704 89.9688C21.8064 89.2765 23.8824 88.7092 25.9823 88.2718C26.6066 88.143 27.2221 88.5349 27.3538 89.15C27.4848 89.7636 27.0876 90.3679 26.4603 90.498C24.3562 90.9365 22.2771 91.5116 20.2408 92.2178C20.4056 92.9781 20.5732 93.7241 20.7428 94.4549C25.9698 92.599 31.434 91.674 37.0409 91.7017C37.6808 91.7037 38.1956 92.2163 38.1929 92.8439C38.1908 93.4729 37.6714 93.9796 37.0308 93.9762C31.6083 93.9502 26.3262 94.8601 21.2775 96.6857C21.4654 97.445 21.6546 98.1855 21.8441 98.9061C29.5589 96.0932 38.0341 95.5006 46.067 97.2569C46.6918 97.3932 47.0847 98.0011 46.9453 98.6138C46.808 99.2274 46.1882 99.6142 45.5648 99.4771C37.8941 97.7982 29.7962 98.3867 22.4425 101.114C22.6333 101.798 22.8234 102.461 23.0117 103.101L23.0738 103.31C32.855 99.6054 43.6957 99.9946 53.2183 104.47C53.7939 104.741 54.0377 105.421 53.7624 105.987C53.4857 106.553 52.7944 106.794 52.2182 106.522C43.2356 102.301 33.0054 101.951 23.7875 105.477C24.0571 106.224 24.3388 106.931 24.6305 107.602C36.0715 103.237 49.1712 105.367 58.5843 113.279C59.0696 113.689 59.1258 114.406 58.7114 114.884C58.2948 115.361 57.5652 115.416 57.0791 115.009C48.358 107.677 36.2357 105.679 25.6186 109.667C25.9948 110.382 26.3826 111.047 26.7785 111.666C36.7589 108.048 48.0071 110.087 56.0444 117.143C56.5639 117.599 57.0639 118.071 57.5439 118.558C60.2688 116.856 62.8521 114.277 65.0581 110.48C73.3449 96.2123 89.7673 93.1632 97.3121 92.9414C105.968 92.687 113.903 89.5781 116.678 81.3723C120.147 71.1151 117.475 62.4058 107.617 56.8495C101.257 53.2648 95.7809 45.2029 93.639 39.4606C85.2667 17.0151 62.6745 10.6729 46.0603 14.5791ZM53.0471 120.601C53.8464 120.357 54.6445 120.058 55.4361 119.695C55.1334 119.402 54.8226 119.115 54.5037 118.835C47.2617 112.479 37.188 110.547 28.1518 113.596C28.7035 114.292 29.2628 114.912 29.8212 115.465C37.8326 113.103 46.6032 114.944 52.9732 120.536C52.9979 120.557 53.0225 120.579 53.0471 120.601ZM50.2235 121.24C44.9876 117.263 38.2704 115.85 31.9267 117.268C33.7716 118.622 35.4825 119.34 36.7272 119.799C39.9479 120.807 44.9706 122.047 50.2235 121.24ZM61.5761 55.8657C58.5182 55.4164 55.4383 56.4232 53.5208 58.8076C50.7547 62.2471 51.3809 67.3425 54.8144 70.6364L54.7025 70.5291C54.8196 70.6448 54.9401 70.7584 55.0639 70.8696L54.9526 70.7665C55.1719 70.9695 55.4022 71.1652 55.6433 71.3528C57.0891 72.4781 58.7326 73.1646 60.3864 73.4249C63.4764 73.9106 66.6019 72.9079 68.54 70.498C71.5158 66.7978 70.5655 61.1811 66.4175 57.9527C65.0094 56.8568 63.4138 56.1771 61.8039 55.9019C61.728 55.8889 61.652 55.8769 61.5761 55.8657ZM54.8207 70.6424C54.863 70.6829 54.9057 70.7232 54.9489 70.7631L54.8207 70.6424Z" fill="#A053E9"/>
<path fill-rule="evenodd" clip-rule="evenodd" d="M56.3127 71.8572C63.8112 77.6889 74.1945 77.0679 79.5044 70.4702C84.8143 63.8725 83.04 53.7965 75.5415 47.9648C68.043 42.1332 57.6597 42.7542 52.3499 49.3519C47.5686 55.2928 48.5312 64.054 54.2449 69.9971C54.6455 70.4496 55.094 70.8752 55.5892 71.2664C55.8241 71.4678 56.0653 71.6648 56.3127 71.8572ZM55.5892 71.2664C55.6104 71.2832 55.6317 71.2999 55.6531 71.3165C59.7729 74.5205 65.5063 74.1435 68.4591 70.4746C71.4119 66.8057 70.4659 61.2341 66.3461 58.0301C62.2264 54.8262 56.493 55.2031 53.5402 58.872C50.9605 62.0773 51.3566 66.7348 54.2449 69.9971C54.6672 70.4364 55.1154 70.8602 55.5892 71.2664Z" fill="#1F0736"/>
<path fill-rule="evenodd" clip-rule="evenodd" d="M72.2292 164C73.1613 164 73.9169 163.222 73.9169 162.262L73.9169 149.738C73.9169 148.778 73.1613 148 72.2292 148C71.2971 148 70.5414 148.778 70.5414 149.738V162.262C70.5414 163.222 71.2971 164 72.2292 164ZM43.2629 148.796C43.5849 148.796 43.8928 148.926 44.1867 149.186C44.4807 149.431 44.6277 149.77 44.6277 150.202C44.6277 150.332 44.6067 150.476 44.5647 150.635L40.4284 163.178C40.3444 163.438 40.1904 163.64 39.9665 163.784C39.7565 163.913 39.5326 163.986 39.2946 164C39.0566 164 38.8187 163.928 38.5807 163.784C38.3568 163.64 38.1818 163.43 38.0558 163.157L35.0704 156.175L32.0719 163.157C31.9459 163.43 31.7639 163.64 31.526 163.784C31.302 163.928 31.071 164 30.8331 164C30.6091 163.986 30.3851 163.913 30.1612 163.784C29.9372 163.64 29.7833 163.438 29.6993 163.178L25.563 150.635C25.521 150.476 25.5 150.332 25.5 150.202C25.5 149.77 25.647 149.431 25.9409 149.186C26.2489 148.926 26.5638 148.796 26.8858 148.796C27.1517 148.796 27.3967 148.868 27.6206 149.013C27.8586 149.157 28.0196 149.366 28.1035 149.64L31.2339 159.414L33.9615 152.668C34.0735 152.408 34.2345 152.206 34.4444 152.062C34.6544 151.903 34.8924 151.831 35.1583 151.846C35.4243 151.831 35.6622 151.903 35.8722 152.062C36.0822 152.206 36.2361 152.408 36.3341 152.668L38.9177 159.341L42.0241 149.64C42.1081 149.366 42.2691 149.157 42.507 149.013C42.745 148.868 42.997 148.796 43.2629 148.796ZM50.4333 164C49.2456 164 48.2116 163.747 47.3314 163.242C46.4651 162.722 45.7944 162.022 45.3193 161.142C44.8582 160.261 44.6277 159.265 44.6277 158.153C44.6277 156.854 44.8792 155.75 45.3822 154.84C45.8992 153.916 46.5699 153.209 47.3942 152.718C48.2186 152.227 49.0919 151.982 50.0141 151.982C50.7267 151.982 51.3974 152.133 52.0261 152.437C52.6689 152.74 53.2348 153.158 53.7238 153.693C54.2128 154.212 54.5971 154.819 54.8765 155.512C55.1699 156.204 55.3167 156.941 55.3167 157.72C55.3027 158.067 55.1699 158.348 54.9184 158.565C54.6669 158.781 54.3735 158.89 54.0382 158.89H47.1171C47.1917 159.29 47.319 159.651 47.499 159.972C47.8204 160.506 48.2256 160.918 48.7146 161.207C49.2176 161.481 49.7486 161.618 50.3075 161.618C50.8245 161.618 51.2367 161.575 51.5441 161.488C51.8515 161.401 52.096 161.3 52.2776 161.185C52.4732 161.055 52.6479 160.947 52.8016 160.86C53.0531 160.73 53.2906 160.665 53.5142 160.665C53.8216 160.665 54.0731 160.774 54.2687 160.99C54.4783 161.207 54.5831 161.459 54.5831 161.748C54.5831 162.138 54.3875 162.491 53.9963 162.809C53.633 163.127 53.123 163.408 52.4663 163.654C51.8096 163.884 51.1319 164 50.4333 164ZM47.2685 156.226C47.2177 156.379 47.1753 156.545 47.1413 156.724H52.6339V156.573C52.606 156.154 52.4593 155.779 52.1938 155.447C51.9423 155.115 51.6209 154.855 51.2297 154.667C50.8524 154.465 50.4472 154.364 50.0141 154.364C49.5949 154.364 49.2037 154.422 48.8404 154.537C48.4771 154.653 48.1627 154.847 47.8972 155.122C47.6318 155.396 47.4222 155.764 47.2685 156.226ZM76.5892 151.475C77.5213 151.475 78.2769 150.697 78.2769 149.738C78.2769 148.778 77.5213 148 76.5892 148C75.6571 148 74.9014 148.778 74.9014 149.738C74.9014 150.697 75.6571 151.475 76.5892 151.475ZM76.5892 164C77.5213 164 78.2769 163.222 78.2769 162.262V154.226C78.2769 153.267 77.5213 152.489 76.5892 152.489C75.6571 152.489 74.9014 153.267 74.9014 154.226V162.262C74.9014 163.222 75.6571 164 76.5892 164ZM101.05 162.463C100.954 163.328 100.24 164 99.3736 164C98.4415 164 97.6859 163.222 97.6859 162.262V149.738C97.6859 148.778 98.4415 148 99.3736 148C100.306 148 101.061 148.778 101.061 149.738V153.544C101.957 152.595 103.14 152.018 104.437 152.018C107.233 152.018 109.5 154.7 109.5 158.009C109.5 161.318 107.233 164 104.437 164C103.135 164 101.947 163.418 101.05 162.463ZM103.593 161.032C102.195 161.032 101.061 159.784 101.061 158.244C101.061 156.705 102.195 155.457 103.593 155.457C104.991 155.457 106.125 156.705 106.125 158.244C106.125 159.784 104.991 161.032 103.593 161.032ZM95.8575 152.561C95.2422 152.012 94.0448 151.475 92.817 151.475C91.4633 151.475 90.2336 152.104 89.3252 153.128C89.1991 152.937 89.0346 152.748 88.8252 152.561C88.2099 152.012 87.0125 151.475 85.7848 151.475C84.4214 151.475 83.1839 152.113 82.2737 153.149C81.9646 152.747 81.4862 152.489 80.9491 152.489C80.0171 152.489 79.2614 153.267 79.2614 154.226V162.262C79.2614 163.222 80.0171 164 80.9491 164C81.8812 164 82.6369 163.222 82.6369 162.262V156.337C82.7609 155.41 83.5327 154.697 84.4662 154.697C85.3965 154.697 86.1662 155.405 86.2936 156.327V162.262C86.2936 163.222 87.0493 164 87.9814 164C88.9134 164 89.6691 163.222 89.6691 162.262V156.337C89.7931 155.41 90.5649 154.697 91.4985 154.697C92.4287 154.697 93.1984 155.405 93.3259 156.327V162.262C93.3259 163.222 94.0816 164 95.0136 164C95.9457 164 96.7013 163.222 96.7013 162.262V154.226C96.7013 153.683 96.4728 153.11 95.8575 152.561ZM64.9639 163.911C66.415 163.682 67.7695 163.022 68.8606 162.01L68.8571 162.006C69.2614 161.685 69.5218 161.182 69.5218 160.615C69.5218 159.646 68.7583 158.86 67.8165 158.86C67.3252 158.86 66.8824 159.074 66.5711 159.416C65.9757 159.964 65.2384 160.322 64.4488 160.446C63.6543 160.571 62.8414 160.455 62.1106 160.11C61.3796 159.766 60.7627 159.208 60.3355 158.507C59.9084 157.806 59.6897 156.992 59.7066 156.165C59.7233 155.337 59.975 154.533 60.4303 153.851C60.8856 153.169 61.5247 152.639 62.269 152.326C63.0132 152.013 63.8301 151.932 64.6189 152.091C65.353 152.239 66.0329 152.59 66.5866 153.105C66.8987 153.46 67.3499 153.683 67.8516 153.683C68.7934 153.683 69.5569 152.897 69.5569 151.928C69.5569 151.46 69.3791 151.035 69.0891 150.72L69.0902 150.719L69.025 150.654C67.9866 149.632 66.6853 148.937 65.2743 148.652C63.8336 148.361 62.3419 148.51 60.9826 149.081C59.6234 149.652 58.456 150.62 57.6245 151.866C56.793 153.111 56.3336 154.58 56.3028 156.091C56.2721 157.602 56.6713 159.09 57.4515 160.37C58.2316 161.65 59.3585 162.668 60.6933 163.297C62.0282 163.926 63.5126 164.139 64.9639 163.911Z" fill="#141415"/>
</svg>
