<svg width="24" height="24" viewBox="0 0 24 24" fill="none" xmlns="http://www.w3.org/2000/svg">
<path fill-rule="evenodd" clip-rule="evenodd" d="M18 2C17.1722 2 16.3783 2.32885 15.7929 2.91421L3.29291 15.4142C3.16476 15.5424 3.07384 15.703 3.02988 15.8788L2.02988 19.8788C1.94468 20.2196 2.04453 20.58 2.29291 20.8284C2.54129 21.0768 2.90178 21.1767 3.24256 21.0915L7.24256 20.0915C7.41839 20.0475 7.57897 19.9566 7.70713 19.8284L20.2071 7.32843C20.497 7.03859 20.7269 6.69449 20.8837 6.3158C21.0406 5.9371 21.1213 5.53122 21.1213 5.12132C21.1213 4.71142 21.0406 4.30554 20.8837 3.92684C20.7269 3.54815 20.497 3.20405 20.2071 2.91421C19.9173 2.62437 19.5732 2.39446 19.1945 2.2376C18.8158 2.08074 18.4099 2 18 2ZM17.2071 4.32843C17.4174 4.11814 17.7026 4 18 4C18.1473 4 18.2931 4.029 18.4291 4.08536C18.5652 4.14171 18.6888 4.2243 18.7929 4.32843C18.897 4.43255 18.9796 4.55616 19.036 4.69221C19.0923 4.82825 19.1213 4.97407 19.1213 5.12132C19.1213 5.26857 19.0923 5.41439 19.036 5.55043C18.9796 5.68648 18.897 5.81009 18.7929 5.91421L6.48877 18.2184L4.37439 18.747L4.90299 16.6326L17.2071 4.32843Z" fill="#141415"/>
<path d="M12 19.1213C11.4477 19.1213 11 19.5691 11 20.1213C11 20.6736 11.4477 21.1213 12 21.1213H21C21.5523 21.1213 22 20.6736 22 20.1213C22 19.5691 21.5523 19.1213 21 19.1213H12Z" fill="#141415"/>
</svg>
