<svg width="24" height="24" viewBox="0 0 24 24" fill="none" xmlns="http://www.w3.org/2000/svg">
<path fill-rule="evenodd" clip-rule="evenodd" d="M12.8117 1.10977C12.2809 0.96341 11.7193 0.96341 11.1886 1.10977C10.8374 1.20661 10.5422 1.37306 10.264 1.56419C10.0029 1.74359 9.70792 1.98003 9.36968 2.25113L9.36967 2.25114L3.54349 6.92052L3.46953 6.97971L3.46953 6.97971C3.11046 7.26686 2.79408 7.51989 2.55881 7.84316C2.35231 8.12692 2.19881 8.44443 2.10548 8.78088C1.99915 9.16418 1.99958 9.56471 2.00007 10.0193L2.00013 10.1129L2.00013 18.9161C2.00011 19.4334 2.0001 19.8797 2.0307 20.2473C2.063 20.6353 2.13432 21.0212 2.32711 21.3925C2.61473 21.9465 3.07367 22.3969 3.63816 22.6791C4.01654 22.8683 4.40976 22.9383 4.8051 22.97C5.17969 23 5.63448 23 6.16165 23H17.8386C18.3658 23 18.8206 23 19.1952 22.97C19.5905 22.9383 19.9837 22.8683 20.3621 22.6791C20.9266 22.3969 21.3855 21.9465 21.6732 21.3925C21.8659 21.0212 21.9373 20.6353 21.9696 20.2473C22.0002 19.8797 22.0002 19.4334 22.0001 18.9161V10.1129L22.0002 10.0193C22.0007 9.56471 22.0011 9.16418 21.8948 8.78088C21.8015 8.44443 21.648 8.12692 21.4414 7.84316C21.2062 7.51989 20.8898 7.26687 20.5308 6.97973L20.5307 6.97972L20.4568 6.92052L14.6306 2.25116C14.2924 1.98005 13.9974 1.7436 13.7362 1.56418C13.458 1.37306 13.1628 1.20661 12.8117 1.10977ZM8.99984 16.9999C8.44756 16.9999 7.99984 17.4476 7.99984 17.9999C7.99984 18.5522 8.44756 18.9999 8.99984 18.9999H14.9998C15.5521 18.9999 15.9998 18.5522 15.9998 17.9999C15.9998 17.4476 15.5521 16.9999 14.9998 16.9999H8.99984Z" fill="#141415"/>
</svg>
