<svg width="24" height="24" viewBox="0 0 24 24" fill="none" xmlns="http://www.w3.org/2000/svg">
<path fill-rule="evenodd" clip-rule="evenodd" d="M20.4121 13.8457C20.4005 13.8589 20.3885 13.8717 20.3761 13.8843L12.681 21.7134C12.5007 21.897 12.256 22 12.0009 22H11.9994C11.7443 22 11.4996 21.897 11.3193 21.7134L3.6242 13.8843C3.61179 13.8717 3.5998 13.8589 3.58822 13.8457L2.87547 13.1206C0.375039 10.5766 0.375035 6.45196 2.87547 3.90797C5.3759 1.36398 9.4299 1.36398 11.9303 3.90797L12.0001 3.97899L12.07 3.90797C14.5704 1.36398 18.6244 1.36398 21.1248 3.90797C23.6253 6.45196 23.6252 10.5766 21.1248 13.1206L20.4121 13.8457Z" fill="#141415"/>
</svg>
