<svg width="24" height="24" viewBox="0 0 24 24" fill="none" xmlns="http://www.w3.org/2000/svg">
<path d="M20 9C19.7348 9 19.4804 9.10536 19.2929 9.29289C19.1054 9.48043 19 9.73478 19 10V13.38L17.52 11.9C16.9974 11.3815 16.2911 11.0906 15.555 11.0906C14.8189 11.0906 14.1126 11.3815 13.59 11.9L12.89 12.61L10.41 10.12C9.88742 9.60155 9.18113 9.31063 8.445 9.31063C7.70887 9.31063 7.00258 9.60155 6.48 10.12L5 11.61V6C5 5.73478 5.10536 5.48043 5.29289 5.29289C5.48043 5.10536 5.73478 5 6 5H14C14.2652 5 14.5196 4.89464 14.7071 4.70711C14.8946 4.51957 15 4.26522 15 4C15 3.73478 14.8946 3.48043 14.7071 3.29289C14.5196 3.10536 14.2652 3 14 3H6C5.20435 3 4.44129 3.31607 3.87868 3.87868C3.31607 4.44129 3 5.20435 3 6V18.22C3.00264 18.9565 3.29637 19.6621 3.81715 20.1828C4.33794 20.7036 5.04351 20.9974 5.78 21H18.22C18.4909 20.9963 18.76 20.9559 19.02 20.88C19.5974 20.718 20.1058 20.3711 20.4671 19.8924C20.8283 19.4137 21.0226 18.8297 21.02 18.23V10C21.02 9.86698 20.9935 9.73529 20.942 9.61264C20.8905 9.48999 20.8151 9.37885 20.7201 9.28573C20.6251 9.1926 20.5125 9.11936 20.3888 9.0703C20.2652 9.02124 20.133 8.99734 20 9ZM6 19C5.73478 19 5.48043 18.8946 5.29289 18.7071C5.10536 18.5196 5 18.2652 5 18V14.43L7.89 11.54C8.03615 11.3947 8.23389 11.3131 8.44 11.3131C8.64611 11.3131 8.84385 11.3947 8.99 11.54L16.46 19H6ZM19 18C18.9936 18.1936 18.931 18.3812 18.82 18.54L14.3 14L15.01 13.3C15.0817 13.2268 15.1673 13.1687 15.2617 13.129C15.3561 13.0893 15.4576 13.0689 15.56 13.0689C15.6624 13.0689 15.7639 13.0893 15.8583 13.129C15.9527 13.1687 16.0383 13.2268 16.11 13.3L19 16.21V18ZM22 3H21V2C21 1.73478 20.8946 1.48043 20.7071 1.29289C20.5196 1.10536 20.2652 1 20 1C19.7348 1 19.4804 1.10536 19.2929 1.29289C19.1054 1.48043 19 1.73478 19 2V3H18C17.7348 3 17.4804 3.10536 17.2929 3.29289C17.1054 3.48043 17 3.73478 17 4C17 4.26522 17.1054 4.51957 17.2929 4.70711C17.4804 4.89464 17.7348 5 18 5H19V6C19 6.26522 19.1054 6.51957 19.2929 6.70711C19.4804 6.89464 19.7348 7 20 7C20.2652 7 20.5196 6.89464 20.7071 6.70711C20.8946 6.51957 21 6.26522 21 6V5H22C22.2652 5 22.5196 4.89464 22.7071 4.70711C22.8946 4.51957 23 4.26522 23 4C23 3.73478 22.8946 3.48043 22.7071 3.29289C22.5196 3.10536 22.2652 3 22 3Z" fill="#141415"/>
</svg>
