<svg width="16" height="16" viewBox="0 0 16 16" fill="none" xmlns="http://www.w3.org/2000/svg">
<path fill-rule="evenodd" clip-rule="evenodd" d="M16 8C16 12.4183 12.4183 16 8 16C3.58172 16 0 12.4183 0 8C0 3.58172 3.58172 0 8 0C12.4183 0 16 3.58172 16 8ZM10.5312 10.7344C9.29688 10.7344 8.39844 10.0156 8.38281 9.00781H9.67969C9.69531 9.42969 10.0703 9.70312 10.5312 9.70312C11.0625 9.70312 11.4453 9.32812 11.4375 8.78125C11.4453 8.22656 11.0547 7.85156 10.5156 7.85156C10.1094 7.85156 9.84375 8.00781 9.6875 8.3125H8.49219L8.77344 5H12.3906V6.07812H9.86719L9.73438 7.42969H9.77344C9.96875 7.11719 10.4062 6.89844 10.9375 6.89844C11.9688 6.89844 12.7266 7.66406 12.7266 8.74219C12.7266 9.90625 11.8438 10.7344 10.5312 10.7344ZM3.25 5V10.6562H5.76562C7.01562 10.6562 7.72656 9.99219 7.72656 9.07812C7.72656 8.25781 7.13281 7.74219 6.45312 7.71094V7.65625C7.07031 7.53125 7.50781 7.08594 7.50781 6.4375C7.50781 5.57812 6.85156 5 5.58594 5H3.25ZM6.33594 8.92969C6.33594 9.33594 6.0625 9.57812 5.45312 9.57812H4.57812V8.20312H5.47656C6.00781 8.20312 6.33594 8.48438 6.33594 8.92969ZM6.14844 6.6875C6.14844 7.09375 5.82031 7.33594 5.36719 7.33594H4.57812V6.0625H5.38281C5.85938 6.0625 6.14844 6.30469 6.14844 6.6875Z" fill="white"/>
</svg>
