<svg width="16" height="16" viewBox="0 0 16 16" fill="none" xmlns="http://www.w3.org/2000/svg">
<path fill-rule="evenodd" clip-rule="evenodd" d="M16 8C16 12.4183 12.4183 16 8 16C3.58172 16 0 12.4183 0 8C0 3.58172 3.58172 0 8 0C12.4183 0 16 3.58172 16 8ZM10.4648 10.8125C9.17578 10.8125 8.26172 10.1016 8.24609 9.08594H9.58984C9.59766 9.46094 9.97266 9.72656 10.4727 9.72656C10.9727 9.72656 11.332 9.4375 11.3242 9.03125C11.332 8.625 10.9492 8.32812 10.3555 8.32812H9.80859V7.375H10.3555C10.8711 7.375 11.2305 7.10156 11.2305 6.69531C11.2305 6.3125 10.9258 6.03906 10.4727 6.03906C10.0117 6.03906 9.64453 6.30469 9.63672 6.70312H8.35547C8.37109 5.70312 9.26172 5 10.4805 5C11.6914 5 12.5195 5.69531 12.5117 6.61719C12.5195 7.25 12.0508 7.69531 11.4023 7.78906V7.82812C12.2695 7.92969 12.7305 8.42969 12.7227 9.13281C12.7305 10.1094 11.7852 10.8125 10.4648 10.8125ZM3.19922 5.07812V10.7344H5.71484C6.96484 10.7344 7.67578 10.0703 7.67578 9.15625C7.67578 8.33594 7.08203 7.82031 6.40234 7.78906V7.73438C7.01953 7.60938 7.45703 7.16406 7.45703 6.51562C7.45703 5.65625 6.80078 5.07812 5.53516 5.07812H3.19922ZM6.28516 9.00781C6.28516 9.41406 6.01172 9.65625 5.40234 9.65625H4.52734V8.28125H5.42578C5.95703 8.28125 6.28516 8.5625 6.28516 9.00781ZM6.09766 6.76562C6.09766 7.17188 5.76953 7.41406 5.31641 7.41406H4.52734V6.14062H5.33203C5.80859 6.14062 6.09766 6.38281 6.09766 6.76562Z" fill="white"/>
</svg>
