<svg width="43" height="45" viewBox="0 0 43 45" fill="none" xmlns="http://www.w3.org/2000/svg">
<path d="M0.722656 26V18.9297H1.79688V21.9961H5.3125V18.9297H6.38672V26H5.3125V22.9141H1.79688V26H0.722656ZM8.4375 26H7.29492L9.83398 18.9297H11.0742L13.623 26H12.4805L11.8359 24.1348H9.08203L8.4375 26ZM9.39453 23.2363H11.5234L10.4785 20.2188H10.4297L9.39453 23.2363ZM14.5215 26V18.9297H17.041C18.6816 18.9297 19.4922 19.8477 19.4922 21.1465C19.4922 22.0986 19.0625 22.8213 18.2031 23.1387L19.7656 26H18.5449L17.1094 23.334H17.041H15.5957V26H14.5215ZM15.5957 22.4062H16.9336C17.9785 22.4062 18.4082 21.9473 18.4082 21.1465C18.4082 20.3457 17.9785 19.8477 16.9336 19.8477H15.5957V22.4062ZM22.9785 26H20.6836V18.9297H23.0469C25.127 18.9297 26.377 20.2578 26.377 22.4551C26.377 24.6621 25.127 26 22.9785 26ZM21.7578 25.0625H22.9199C24.5215 25.0625 25.3125 24.125 25.3125 22.4551C25.3125 20.7949 24.5215 19.8672 22.9785 19.8672H21.7578V25.0625Z" fill="#AAABB1"/>
<path d="M39.5 19C39.2239 19 39 19.2239 39 19.5C39 19.7761 39.2239 20 39.5 20H41.2929L37.75 23.5429L35.6036 21.3964C35.4083 21.2012 35.0917 21.2012 34.8964 21.3964L31.1464 25.1464C30.9512 25.3417 30.9512 25.6583 31.1464 25.8536C31.3417 26.0488 31.6583 26.0488 31.8536 25.8536L35.25 22.4571L37.3964 24.6036C37.5917 24.7988 37.9083 24.7988 38.1036 24.6036L42 20.7071V22.5C42 22.7761 42.2239 23 42.5 23C42.7761 23 43 22.7761 43 22.5V19.5C43 19.2239 42.7761 19 42.5 19H39.5Z" fill="#FC7381"/>
</svg>
