<svg width="53" height="56" viewBox="0 0 53 56" fill="none" xmlns="http://www.w3.org/2000/svg">
<rect x="15.5869" y="16.3989" width="22.5487" height="20.4988" fill="#EFF0EF"/>
<mask id="path-2-inside-1_1351_2278" fill="white">
<path fill-rule="evenodd" clip-rule="evenodd" d="M0.84312 16.4031C1.84725 9.8815 6.68465 2.72298 15.2803 0.553005C23.8576 -1.4488 35.5213 1.80141 39.8436 13.3041C40.9494 16.2468 43.7767 20.3783 47.0601 22.2153C52.1495 25.0628 53.5287 29.526 51.738 34.7826C50.3054 38.9878 46.2087 40.581 41.7399 40.7114C37.8448 40.825 29.3664 42.3876 25.0882 49.6992C20.81 57.0107 13.7817 55.507 10.4619 54.4752C8.73111 53.8422 5.25455 52.2418 3.38107 45.9178C1.4149 39.2809 -0.93534 27.9537 0.84312 16.4031ZM20.2266 29.6477C22.3681 31.3021 25.3495 31.1061 26.8858 29.2098C28.4221 27.3135 27.9315 24.4352 25.79 22.7807C23.6486 21.1263 20.6671 21.3224 19.1308 23.2186C17.5945 25.1149 18.0851 27.9933 20.2266 29.6477Z"/>
<path fill-rule="evenodd" clip-rule="evenodd" d="M20.5575 29.9282C24.4553 32.9394 29.8547 32.6162 32.6174 29.2062C35.3801 25.7962 34.4599 20.5908 30.5621 17.5795C26.6642 14.5682 21.2649 14.8914 18.5022 18.3014C15.9276 21.4792 16.5515 26.2164 19.803 29.2838C19.8248 29.3046 19.8469 29.3252 19.8692 29.3457C20.0871 29.5476 20.3166 29.7421 20.5575 29.9282ZM19.8692 29.3457C19.983 29.4503 20.1025 29.5512 20.2277 29.6479C22.3692 31.3023 25.3506 31.1062 26.8869 29.21C28.4232 27.3137 27.9326 24.4353 25.7911 22.7809C23.6496 21.1265 20.6682 21.3225 19.1319 23.2188C17.703 24.9825 18.0275 27.5959 19.803 29.2838C19.8248 29.3046 19.8469 29.3252 19.8692 29.3457Z"/>
</mask>
<path fill-rule="evenodd" clip-rule="evenodd" d="M0.84312 16.4031C1.84725 9.8815 6.68465 2.72298 15.2803 0.553005C23.8576 -1.4488 35.5213 1.80141 39.8436 13.3041C40.9494 16.2468 43.7767 20.3783 47.0601 22.2153C52.1495 25.0628 53.5287 29.526 51.738 34.7826C50.3054 38.9878 46.2087 40.581 41.7399 40.7114C37.8448 40.825 29.3664 42.3876 25.0882 49.6992C20.81 57.0107 13.7817 55.507 10.4619 54.4752C8.73111 53.8422 5.25455 52.2418 3.38107 45.9178C1.4149 39.2809 -0.93534 27.9537 0.84312 16.4031ZM20.2266 29.6477C22.3681 31.3021 25.3495 31.1061 26.8858 29.2098C28.4221 27.3135 27.9315 24.4352 25.79 22.7807C23.6486 21.1263 20.6671 21.3224 19.1308 23.2186C17.5945 25.1149 18.0851 27.9933 20.2266 29.6477Z" fill="#26DE81"/>
<path fill-rule="evenodd" clip-rule="evenodd" d="M20.5575 29.9282C24.4553 32.9394 29.8547 32.6162 32.6174 29.2062C35.3801 25.7962 34.4599 20.5908 30.5621 17.5795C26.6642 14.5682 21.2649 14.8914 18.5022 18.3014C15.9276 21.4792 16.5515 26.2164 19.803 29.2838C19.8248 29.3046 19.8469 29.3252 19.8692 29.3457C20.0871 29.5476 20.3166 29.7421 20.5575 29.9282ZM19.8692 29.3457C19.983 29.4503 20.1025 29.5512 20.2277 29.6479C22.3692 31.3023 25.3506 31.1062 26.8869 29.21C28.4232 27.3137 27.9326 24.4353 25.7911 22.7809C23.6496 21.1265 20.6682 21.3225 19.1319 23.2188C17.703 24.9825 18.0275 27.5959 19.803 29.2838C19.8248 29.3046 19.8469 29.3252 19.8692 29.3457Z" fill="black"/>
<path d="M20.2076 28.9776C20.1873 28.959 20.1673 28.9403 20.1475 28.9214L19.4585 29.6462C19.4824 29.6689 19.5065 29.6914 19.5308 29.7138L20.2076 28.9776ZM15.2803 0.553005L15.053 -0.420826L15.0442 -0.41878L15.0355 -0.416576L15.2803 0.553005ZM0.84312 16.4031L-0.145233 16.2509L0.84312 16.4031ZM39.8436 13.3041L38.9075 13.6558L38.9075 13.6558L39.8436 13.3041ZM47.0601 22.2153L46.5719 23.088L46.5719 23.088L47.0601 22.2153ZM51.738 34.7826L52.6846 35.105L52.6846 35.105L51.738 34.7826ZM41.7399 40.7114L41.7107 39.7118L41.7107 39.7118L41.7399 40.7114ZM25.0882 49.6992L25.9513 50.2042L25.9513 50.2042L25.0882 49.6992ZM10.4619 54.4752L10.1185 55.4143L10.1416 55.4228L10.1651 55.4301L10.4619 54.4752ZM3.38107 45.9178L4.33988 45.6337L4.33988 45.6337L3.38107 45.9178ZM26.8858 29.2098L27.6628 29.8393L27.6628 29.8393L26.8858 29.2098ZM20.2266 29.6477L19.6152 30.4391L19.6152 30.4391L20.2266 29.6477ZM25.79 22.7807L26.4014 21.9894L26.4014 21.9894L25.79 22.7807ZM19.1308 23.2186L18.3538 22.5891L18.3538 22.5891L19.1308 23.2186ZM32.6174 29.2062L33.3944 29.8357L33.3944 29.8357L32.6174 29.2062ZM20.5575 29.9282L19.9462 30.7195L19.9462 30.7195L20.5575 29.9282ZM30.5621 17.5795L29.9507 18.3708L29.9507 18.3708L30.5621 17.5795ZM18.5022 18.3014L17.7252 17.6719L17.7252 17.6719L18.5022 18.3014ZM19.803 29.2838L19.1168 30.0112L20.492 28.5591L19.803 29.2838ZM19.8692 29.3457L20.5459 28.6095L19.1896 30.0793L19.8692 29.3457ZM20.2277 29.6479L20.839 28.8565L20.839 28.8565L20.2277 29.6479ZM26.8869 29.21L27.6639 29.8395L27.6639 29.8395L26.8869 29.21ZM25.7911 22.7809L26.4025 21.9896L26.4025 21.9895L25.7911 22.7809ZM19.1319 23.2188L18.3549 22.5893L18.3549 22.5893L19.1319 23.2188ZM15.0355 -0.416576C5.98896 1.86723 0.909798 9.39873 -0.145233 16.2509L1.83147 16.5553C2.7847 10.3643 7.38034 3.57873 15.5251 1.52259L15.0355 -0.416576ZM40.7797 12.9523C36.2359 0.860355 23.9841 -2.5052 15.053 -0.420826L15.5076 1.52684C23.7311 -0.392401 34.8066 2.74246 38.9075 13.6558L40.7797 12.9523ZM47.5484 21.3426C46.0643 20.5123 44.6336 19.1303 43.4276 17.5642C42.2248 16.0023 41.2935 14.3197 40.7797 12.9523L38.9075 13.6558C39.4995 15.2312 40.5348 17.0857 41.843 18.7845C43.1479 20.4791 44.7725 22.0813 46.5719 23.088L47.5484 21.3426ZM52.6846 35.105C53.6321 32.3235 53.7728 29.6547 52.9213 27.2605C52.0669 24.8582 50.2585 22.8589 47.5484 21.3426L46.5719 23.088C48.9511 24.4192 50.377 26.0753 51.0369 27.9306C51.6996 29.794 51.6345 31.9851 50.7914 34.4601L52.6846 35.105ZM41.7691 41.711C46.3949 41.576 51.0495 39.9047 52.6846 35.105L50.7914 34.4601C49.5613 38.0709 46.0225 39.586 41.7107 39.7118L41.7691 41.711ZM25.9513 50.2042C29.9628 43.3485 37.9832 41.8214 41.7691 41.711L41.7107 39.7118C37.7063 39.8287 28.7701 41.4268 24.2251 49.1941L25.9513 50.2042ZM10.1651 55.4301C11.8683 55.9595 14.6311 56.648 17.5651 56.2047C20.5563 55.7527 23.6524 54.133 25.9513 50.2042L24.2251 49.1941C22.2458 52.5769 19.6886 53.8611 17.2662 54.2271C14.7865 54.6019 12.3753 54.0226 10.7587 53.5202L10.1651 55.4301ZM2.42226 46.2018C3.40208 49.5093 4.82254 51.6473 6.28166 53.0512C7.74058 54.4549 9.18546 55.0731 10.1185 55.4143L10.8054 53.536C10.0076 53.2442 8.84876 52.7457 7.66833 51.61C6.4881 50.4745 5.23354 48.6503 4.33988 45.6337L2.42226 46.2018ZM-0.145233 16.2509C-1.95562 28.0089 0.436462 39.4987 2.42226 46.2018L4.33988 45.6337C2.39334 39.0631 0.0849361 27.8986 1.83147 16.5553L-0.145233 16.2509ZM26.1088 28.5803C24.9721 29.9834 22.6258 30.2375 20.838 28.8564L19.6152 30.4391C22.1104 32.3667 25.727 32.2288 27.6628 29.8393L26.1088 28.5803ZM25.1787 23.5721C26.9576 24.9464 27.23 27.1964 26.1088 28.5803L27.6628 29.8393C29.6142 27.4307 28.9054 23.9239 26.4014 21.9894L25.1787 23.5721ZM19.9078 23.8481C21.0446 22.4451 23.3909 22.1909 25.1787 23.5721L26.4014 21.9894C23.9062 20.0617 20.2897 20.1997 18.3538 22.5891L19.9078 23.8481ZM20.838 28.8564C19.059 27.482 18.7866 25.2321 19.9078 23.8481L18.3538 22.5891C16.4025 24.9977 17.1112 28.5046 19.6152 30.4391L20.838 28.8564ZM31.8404 28.5767C29.4838 31.4855 24.7221 31.8819 21.1689 29.1368L19.9462 30.7195C24.1885 33.997 30.2256 33.7469 33.3944 29.8357L31.8404 28.5767ZM29.9507 18.3708C33.4957 21.1096 34.181 25.6877 31.8404 28.5767L33.3944 29.8357C36.5791 25.9048 35.424 20.0719 31.1734 16.7881L29.9507 18.3708ZM19.2792 18.9309C21.6358 16.0222 26.3975 15.6258 29.9507 18.3708L31.1734 16.7881C26.931 13.5107 20.8939 13.7607 17.7252 17.6719L19.2792 18.9309ZM20.4892 28.5564C17.5433 25.7772 17.095 21.6269 19.2792 18.9309L17.7252 17.6719C14.7602 21.3316 15.5597 26.6555 19.1168 30.0112L20.4892 28.5564ZM21.1689 29.1368C20.9516 28.9689 20.7448 28.7937 20.5487 28.6121L19.1896 30.0793C19.4295 30.3015 19.6817 30.5152 19.9462 30.7195L21.1689 29.1368ZM20.839 28.8565C20.7364 28.7773 20.6387 28.6948 20.5459 28.6095L19.1924 30.0819C19.3273 30.2058 19.4686 30.3251 19.6163 30.4392L20.839 28.8565ZM26.1099 28.5805C24.9732 29.9835 22.6268 30.2377 20.839 28.8565L19.6163 30.4392C22.1115 32.3669 25.728 32.2289 27.6639 29.8395L26.1099 28.5805ZM25.1797 23.5723C26.9587 24.9466 27.2311 27.1965 26.1099 28.5805L27.6639 29.8395C29.6153 27.4309 28.9065 23.924 26.4025 21.9896L25.1797 23.5723ZM19.9089 23.8483C21.0456 22.4452 23.392 22.1911 25.1797 23.5723L26.4025 21.9895C23.9073 20.0619 20.2908 20.1998 18.3549 22.5893L19.9089 23.8483ZM20.492 28.5591C19.0279 27.1672 18.8632 25.1391 19.9089 23.8483L18.3549 22.5893C16.5428 24.826 17.0271 28.0246 19.114 30.0086L20.492 28.5591Z" fill="black" fill-opacity="0.17" mask="url(#path-2-inside-1_1351_2278)"/>
</svg>
