<svg width="24" height="24" viewBox="0 0 24 24" fill="none" xmlns="http://www.w3.org/2000/svg">
<path fill-rule="evenodd" clip-rule="evenodd" d="M20.6426 5.54364C21.0968 5.95507 21.1214 6.64595 20.6974 7.08677L10.4606 17.7312C10.4579 17.734 10.4548 17.7372 10.4516 17.7406C10.4159 17.7777 10.3505 17.846 10.2839 17.9045C10.2021 17.9764 10.0442 18.1028 9.80984 18.1802C9.52788 18.2733 9.22212 18.2733 8.94017 18.1802C8.70585 18.1028 8.54786 17.9764 8.46606 17.9045C8.39951 17.846 8.33407 17.7778 8.29844 17.7406C8.29516 17.7372 8.29214 17.734 8.28938 17.7312L3.30257 12.5458C2.87863 12.105 2.90318 11.4141 3.3574 11.0027C3.81162 10.5912 4.5235 10.6151 4.94744 11.0559L9.375 15.6597L19.0526 5.59685C19.4765 5.15603 20.1884 5.13221 20.6426 5.54364Z" fill="#141415"/>
</svg>
