<svg width="16" height="16" viewBox="0 0 16 16" fill="none" xmlns="http://www.w3.org/2000/svg">
<path fill-rule="evenodd" clip-rule="evenodd" d="M8 16C12.4183 16 16 12.4183 16 8C16 3.58172 12.4183 0 8 0C3.58172 0 0 3.58172 0 8C0 12.4183 3.58172 16 8 16ZM5.61056 10.2991V11.3332H10.4496V10.1599H7.5992V10.1135L8.5902 9.14234C9.05642 8.7181 9.41769 8.35462 9.67401 8.05191C9.93032 7.74698 10.1082 7.46968 10.2076 7.21999C10.3093 6.97031 10.3601 6.71731 10.3601 6.461C10.3601 6.0699 10.2595 5.72299 10.0585 5.42028C9.8574 5.11756 9.57568 4.88114 9.21331 4.711C8.85314 4.53865 8.43 4.45247 7.94389 4.45247C7.47104 4.45247 7.05343 4.54196 6.69105 4.72094C6.32868 4.89992 6.04695 5.15292 5.84588 5.47994C5.64481 5.80696 5.54427 6.19253 5.54427 6.63666H6.90649C6.90649 6.42012 6.94847 6.23341 7.03243 6.07653C7.1164 5.91965 7.23572 5.79922 7.39039 5.71526C7.54506 5.63129 7.72625 5.58931 7.93395 5.58931C8.13281 5.58931 8.31069 5.62908 8.46757 5.70863C8.62445 5.78597 8.74819 5.89755 8.83878 6.04338C8.92937 6.18701 8.97467 6.35825 8.97467 6.55711C8.97467 6.73609 8.93821 6.90292 8.86529 7.05759C8.79238 7.21005 8.68521 7.36583 8.5438 7.52492C8.40459 7.68401 8.23225 7.86299 8.02675 8.06185L5.61056 10.2991Z" fill="white"/>
</svg>
