<svg width="53" height="56" viewBox="0 0 53 56" fill="none" xmlns="http://www.w3.org/2000/svg">
<rect x="7.83008" y="16.3992" width="22.5487" height="20.4988" fill="#EFF0EF"/>
<path fill-rule="evenodd" clip-rule="evenodd" d="M1.2855 16.4031C2.28963 9.8815 7.12703 2.72298 15.7227 0.553004C24.3 -1.4488 35.9636 1.80141 40.286 13.3041C41.3918 16.2468 44.2191 20.3783 47.5025 22.2153C52.5919 25.0628 53.9711 29.526 52.1804 34.7826C50.7478 38.9878 46.6511 40.581 42.1823 40.7114C38.2872 40.825 29.8088 42.3876 25.5306 49.6992C21.2524 57.0107 14.2241 55.507 10.9043 54.4752C9.17349 53.8422 5.69693 52.2418 3.82345 45.9178C1.85728 39.2809 -0.492957 27.9537 1.2855 16.4031ZM20.669 29.6477C22.8105 31.3021 25.7919 31.1061 27.3282 29.2098C28.8645 27.3135 28.3739 24.4351 26.2324 22.7807C24.0909 21.1263 21.1095 21.3224 19.5732 23.2186C18.0369 25.1149 18.5275 27.9933 20.669 29.6477Z" fill="#A053E9"/>
<path fill-rule="evenodd" clip-rule="evenodd" d="M20.9999 29.9282C24.8977 32.9394 30.2971 32.6162 33.0598 29.2062C35.8225 25.7962 34.9022 20.5908 31.0044 17.5795C27.1066 14.5682 21.7072 14.8914 18.9446 18.3014C16.37 21.4792 16.9939 26.2164 20.2454 29.2838C20.2672 29.3046 20.2893 29.3252 20.3116 29.3457C20.5295 29.5476 20.759 29.7421 20.9999 29.9282ZM20.3116 29.3457C20.4254 29.4503 20.5449 29.5512 20.6701 29.6479C22.8115 31.3023 25.793 31.1062 27.3293 29.21C28.8656 27.3137 28.375 24.4353 26.2335 22.7809C24.092 21.1265 21.1106 21.3225 19.5743 23.2188C18.1453 24.9825 18.4699 27.5959 20.2454 29.2838C20.2672 29.3046 20.2893 29.3252 20.3116 29.3457Z" fill="#1F0736"/>
<path d="M18.5561 17.9867C15.7968 21.3925 16.4926 26.3979 19.8638 29.611C19.9158 29.6615 19.9691 29.7111 20.0234 29.76C20.2368 29.955 20.4605 30.1433 20.6942 30.3238C24.7643 33.4682 30.4826 33.1816 33.4483 29.521C36.422 25.8505 35.3843 20.3314 31.3101 17.1838C27.24 14.0394 21.5218 14.3261 18.5561 17.9867ZM18.2133 25.1852C17.4941 22.9012 17.8382 20.4613 19.3331 18.6162C21.8927 15.4568 26.9732 15.097 30.6988 17.9752C34.4202 20.8502 35.2229 25.742 32.6713 28.8915C30.8378 31.1545 27.711 31.9812 24.7152 31.2103C25.8752 31.0344 26.9495 30.473 27.7178 29.5247C29.4616 27.3723 28.8619 24.1797 26.5392 22.3852C25.7308 21.7607 24.8031 21.3742 23.8641 21.2266C22.1098 20.9505 20.3157 21.508 19.1847 22.9039C18.6323 23.5858 18.315 24.372 18.2133 25.1852ZM1.77968 16.4792C2.75819 10.124 7.47324 3.15328 15.8407 1.0389C24.2407 -0.91949 35.607 2.27388 39.818 13.4799C40.3904 15.0033 41.3997 16.8148 42.6815 18.4794C43.9617 20.1419 45.5379 21.6891 47.2584 22.6517C49.7204 24.0291 51.2419 25.771 51.9504 27.7631C52.6603 29.7592 52.5763 32.0697 51.7071 34.6213C50.3758 38.5293 46.558 40.0835 42.1677 40.2116C38.2179 40.3269 29.5106 41.9072 25.099 49.4467C23.0398 52.9659 20.3479 54.334 17.7833 54.7215C15.1963 55.1125 12.7029 54.5098 11.0645 54.0014C10.2331 53.6966 9.00835 53.1675 7.76405 51.9703C6.51409 50.7677 5.21806 48.8651 4.30286 45.7758C2.3465 39.172 0.0171808 27.9262 1.77968 16.4792Z" stroke="black" stroke-opacity="0.17"/>
</svg>
