<svg width="16" height="16" viewBox="0 0 16 16" fill="none" xmlns="http://www.w3.org/2000/svg">
<path fill-rule="evenodd" clip-rule="evenodd" d="M8 16C12.4183 16 16 12.4183 16 8C16 3.58172 12.4183 0 8 0C3.58172 0 0 3.58172 0 8C0 12.4183 3.58172 16 8 16ZM8.93375 4.62817C8.61115 4.51106 8.27529 4.45251 7.92617 4.45251C7.42017 4.4503 6.97604 4.55084 6.59378 4.75412C6.21373 4.95519 5.91765 5.2336 5.70553 5.58935C5.49341 5.94509 5.38845 6.35055 5.39066 6.80573C5.39066 7.22776 5.48125 7.60339 5.66244 7.93262C5.84363 8.26185 6.0911 8.52038 6.40486 8.70819C6.71863 8.89601 7.07548 8.98991 7.47541 8.98991C7.7251 8.98991 7.96042 8.95125 8.18138 8.87391C8.40455 8.79658 8.60231 8.6872 8.77466 8.54579C8.947 8.40216 9.084 8.23092 9.18564 8.03205H9.23204C9.22983 8.70377 9.11383 9.23297 8.88403 9.61965C8.65423 10.0041 8.31837 10.1964 7.87645 10.1964C7.61572 10.1964 7.39697 10.129 7.2202 9.99418C7.04344 9.85718 6.92743 9.66495 6.87219 9.41747H5.45695C5.50114 9.79752 5.62819 10.14 5.8381 10.4449C6.05022 10.7476 6.32974 10.9874 6.67664 11.1642C7.02355 11.3387 7.42349 11.426 7.87645 11.426C8.29628 11.426 8.67633 11.3442 9.01661 11.1807C9.35688 11.015 9.64745 10.7742 9.88829 10.4582C10.1291 10.1422 10.3136 9.75885 10.4418 9.3081C10.5722 8.85513 10.6373 8.34029 10.6373 7.76359C10.6351 7.14932 10.5589 6.63117 10.4087 6.20914C10.2606 5.7849 10.0584 5.44462 9.80212 5.18831C9.54801 4.93199 9.25856 4.74528 8.93375 4.62817ZM7.33952 5.73849C7.51408 5.63243 7.71294 5.5794 7.93611 5.5794C8.15486 5.5794 8.35152 5.63354 8.52608 5.74181C8.70063 5.85008 8.83763 5.9937 8.93706 6.17268C9.03649 6.35166 9.08731 6.54831 9.08952 6.76264C9.08952 6.92394 9.05969 7.0764 9.00003 7.22003C8.94038 7.36365 8.85752 7.4907 8.75145 7.60118C8.6476 7.70945 8.52497 7.79452 8.38356 7.85639C8.24214 7.91826 8.08858 7.9492 7.92286 7.9492C7.7019 7.9492 7.50524 7.89727 7.33289 7.79342C7.16276 7.68736 7.02797 7.54594 6.92854 7.36918C6.83132 7.1902 6.7827 6.98913 6.7827 6.76596C6.78049 6.545 6.82911 6.34503 6.92854 6.16605C7.03018 5.98707 7.16717 5.84456 7.33952 5.73849Z" fill="white"/>
</svg>
