<svg width="120" height="120" viewBox="0 0 120 120" fill="none" xmlns="http://www.w3.org/2000/svg">
<g clip-path="url(#clip0_2474_10335)">
<rect width="120" height="120" fill="#BFC0C4"/>
<path fill-rule="evenodd" clip-rule="evenodd" d="M60 54.9961C68.2843 54.9961 75 48.2804 75 39.9961C75 31.7118 68.2843 24.9961 60 24.9961C51.7157 24.9961 45 31.7118 45 39.9961C45 48.2804 51.7157 54.9961 60 54.9961ZM30.2687 71.8381C30 72.9737 30 74.0027 30 76.0608C30 79.7229 30 81.5539 30.4739 83.0379C31.4585 86.1214 33.8747 88.5376 36.9582 89.5222C38.4422 89.9961 40.2732 89.9961 43.9353 89.9961H76.0647C79.7268 89.9961 81.5578 89.9961 83.0418 89.5222C86.1253 88.5376 88.5415 86.1214 89.5261 83.0379C90 81.5539 90 79.7229 90 76.0608C90 74.0027 90 72.9737 89.7313 71.8381C89.2401 69.7622 87.5623 67.2587 85.829 66.0153C84.8808 65.335 84.185 65.0491 82.7935 64.4772C75.7658 61.5889 68.0689 59.9961 60 59.9961C51.9311 59.9961 44.2342 61.5889 37.2065 64.4772C35.815 65.0491 35.1192 65.335 34.171 66.0153C32.4377 67.2587 30.7599 69.7622 30.2687 71.8381Z" fill="white"/>
</g>
<defs>
<clipPath id="clip0_2474_10335">
<rect width="120" height="120" rx="60" fill="white"/>
</clipPath>
</defs>
</svg>
