<svg width="53" height="56" viewBox="0 0 53 56" fill="none" xmlns="http://www.w3.org/2000/svg">
<rect x="12.8125" y="15.3989" width="22.5487" height="20.4988" fill="#EFF0EF"/>
<path fill-rule="evenodd" clip-rule="evenodd" d="M1.1439 16.428C2.14803 9.9064 6.98541 2.74788 15.581 0.577907C24.1583 -1.4239 35.8219 1.82631 40.1443 13.329C41.2501 16.2717 44.0774 20.4032 47.3608 22.2402C52.4501 25.0877 53.8293 29.5509 52.0386 34.8075C50.6061 39.0127 46.5094 40.6059 42.0406 40.7363C38.1455 40.85 29.6671 42.4125 25.3889 49.7241C21.1107 57.0356 14.0824 55.5319 10.7627 54.5001C9.03186 53.8671 5.55532 52.2667 3.68184 45.9427C1.71568 39.3058 -0.634556 27.9786 1.1439 16.428ZM20.5273 29.6726C22.6688 31.327 25.6502 31.131 27.1865 29.2347C28.7228 27.3384 28.2322 24.4601 26.0908 22.8056C23.9493 21.1512 20.9679 21.3473 19.4316 23.2435C17.8953 25.1398 18.3859 28.0182 20.5273 29.6726Z" fill="#1FDFD5"/>
<path fill-rule="evenodd" clip-rule="evenodd" d="M20.8583 29.9531C24.756 32.9643 30.1554 32.6411 32.9181 29.2311C35.6808 25.8211 34.7606 20.6157 30.8628 17.6044C26.965 14.5931 21.5656 14.9163 18.8029 18.3263C16.2283 21.5041 16.8522 26.2413 20.1037 29.3087C20.1256 29.3295 20.1476 29.3501 20.1699 29.3706C20.3879 29.5725 20.6174 29.767 20.8583 29.9531ZM20.1699 29.3706C20.2837 29.4752 20.4032 29.5761 20.5284 29.6728C22.6699 31.3272 25.6513 31.1311 27.1876 29.2349C28.7239 27.3386 28.2333 24.4602 26.0918 22.8058C23.9503 21.1514 20.9689 21.3474 19.4326 23.2437C18.0037 25.0074 18.3283 27.6208 20.1037 29.3087C20.1257 29.3294 20.1477 29.35 20.1699 29.3706Z" fill="#1FDFD5"/>
<path fill-rule="evenodd" clip-rule="evenodd" d="M15.581 0.577907C6.98541 2.74788 2.14803 9.9064 1.1439 16.428C-0.126637 24.6798 0.710002 32.8176 2.0084 39.2126C3.05918 38.858 4.13062 38.5674 5.21436 38.3433C5.53666 38.2774 5.85443 38.4782 5.92242 38.7934C5.99006 39.1079 5.78499 39.4175 5.46116 39.4842C4.37524 39.7088 3.30221 40.0035 2.25125 40.3652C2.33624 40.7544 2.42267 41.1363 2.51012 41.5105C5.20732 40.5604 8.02673 40.0869 10.9198 40.1011C11.2502 40.1021 11.5159 40.3648 11.5145 40.6864C11.5135 41.0088 11.2453 41.2685 10.9146 41.2667C8.11672 41.2534 5.39127 41.7191 2.78615 42.6536C2.88328 43.0434 2.98112 43.4234 3.07913 43.7933C7.06216 42.3516 11.4379 42.0478 15.5851 42.9479C15.9077 43.0178 16.1105 43.3293 16.0386 43.6433C15.9677 43.9577 15.6477 44.1559 15.3259 44.0857C11.3656 43.2252 7.18467 43.5269 3.38804 44.9248C3.48655 45.2752 3.58466 45.6146 3.68184 45.9427L3.71396 46.0501C8.76444 44.1505 14.3623 44.3495 19.2795 46.6436C19.5766 46.7823 19.7025 47.1308 19.5604 47.4208C19.4175 47.711 19.0606 47.8346 18.7631 47.6952C14.1248 45.5317 8.8421 45.3524 4.08245 47.1608C4.22141 47.5428 4.36656 47.9047 4.51688 48.2477C10.4228 46.0128 17.1841 47.1043 22.0429 51.1585C22.2935 51.3684 22.3225 51.7359 22.1085 51.9808C21.8935 52.2252 21.5168 52.2535 21.2659 52.0448C16.7643 48.2882 10.5074 47.2639 5.0269 49.306C5.22113 49.6728 5.42133 50.0137 5.62571 50.3307C10.7775 48.4779 16.5832 49.5235 20.7318 53.1384C21.0005 53.3727 21.2592 53.6152 21.5075 53.8655C22.915 52.9934 24.2495 51.6714 25.3889 49.7241C29.6671 42.4125 38.1455 40.85 42.0406 40.7363C46.5094 40.6059 50.6061 39.0127 52.0386 34.8075C53.8293 29.5509 52.4501 25.0877 47.3608 22.2402C44.0774 20.4032 41.2501 16.2717 40.1443 13.329C35.8219 1.82631 24.1583 -1.4239 15.581 0.577907ZM19.1829 54.9124C19.5965 54.7877 20.0095 54.6341 20.4191 54.4476C20.2624 54.2971 20.1015 54.1497 19.9364 54.0059C16.1983 50.749 10.999 49.759 6.33459 51.3198C6.619 51.6764 6.9073 51.9939 7.19516 52.2771C11.3297 51.0689 15.8552 52.0128 19.1423 54.8769C19.1559 54.8887 19.1694 54.9006 19.1829 54.9124ZM17.7246 55.2396C15.0227 53.2011 11.5562 52.4762 8.28197 53.201C9.23537 53.8961 10.1195 54.2648 10.7627 54.5C12.4242 55.0165 15.0148 55.6511 17.7246 55.2396ZM23.5913 21.7361C22.0126 21.5058 20.4226 22.0218 19.4326 23.2437C18.0037 25.0074 18.3283 27.6208 20.1037 29.3087C20.0832 29.2894 20.0628 29.27 20.0426 29.2505C20.1031 29.3099 20.1653 29.3681 20.2293 29.4252C20.2094 29.4071 20.1896 29.3889 20.1699 29.3706C20.2837 29.4752 20.4032 29.5761 20.5284 29.6728C21.2748 30.2494 22.1233 30.6013 22.9771 30.7347C24.5724 30.9836 26.186 30.4697 27.1865 29.2347C28.7228 27.3384 28.2322 24.4601 26.0908 22.8056C25.3674 22.2468 24.5483 21.8991 23.7214 21.7568C23.678 21.7493 23.6347 21.7424 23.5913 21.7361ZM20.1037 29.3087C20.1256 29.3295 20.1476 29.3501 20.1699 29.3706C20.1477 29.35 20.1257 29.3294 20.1037 29.3087Z" fill="#1FDFD5"/>
<path fill-rule="evenodd" clip-rule="evenodd" d="M20.8697 29.9342C24.7394 32.9213 30.0999 32.6007 32.8427 29.2181C35.5855 25.8355 34.6719 20.6718 30.8022 17.6847C26.9324 14.6977 21.5719 15.0183 18.8291 18.4009C16.2813 21.543 16.8885 26.2221 20.0896 29.2657C20.1316 29.3063 20.1745 29.3464 20.2183 29.3859C20.4251 29.5756 20.6423 29.7587 20.8697 29.9342ZM20.2183 29.3859C20.3216 29.4793 20.4296 29.5696 20.5421 29.6565C22.6682 31.2976 25.6282 31.1031 27.1534 29.2221C28.6786 27.341 28.1916 24.4858 26.0655 22.8446C23.9394 21.2035 20.9795 21.398 19.4542 23.279C18.0439 25.0183 18.3541 27.5905 20.0896 29.2657C20.132 29.306 20.1749 29.3461 20.2183 29.3859Z" fill="#005C57"/>
</svg>
