<svg width="24" height="24" viewBox="0 0 24 24" fill="none" xmlns="http://www.w3.org/2000/svg">
<path fill-rule="evenodd" clip-rule="evenodd" d="M11.4141 23.8096C11.7812 24.0557 12.2188 24.0562 12.5547 23.832L12.5859 23.8096L12.6719 23.7529L12.9727 23.5391L13.5625 23.1001L14.0273 22.7354C14.8984 22.043 16.0625 21.043 17.2266 19.8125C19.5156 17.3955 22 13.9019 22 10C22 7.34766 20.9453 4.8042 19.0703 2.92871C17.1953 1.05371 14.6523 0 12 0C9.34766 0 6.80469 1.05371 4.92969 2.92871C3.05469 4.8042 2 7.34766 2 10C2 13.9019 4.48438 17.3955 6.77344 19.8125C7.9375 21.043 9.10156 22.043 9.97266 22.7354C10.4062 23.082 10.7695 23.3535 11.0273 23.5391L11.3281 23.7529M12 14C14.2109 14 16 12.209 16 10C16 7.79102 14.2109 6 12 6C9.78906 6 8 7.79102 8 10C8 10.832 8.25391 11.605 8.69141 12.2451C9.41016 13.3042 10.6211 14 12 14Z" fill="#141415"/>
</svg>
