<svg width="16" height="16" viewBox="0 0 16 16" fill="none" xmlns="http://www.w3.org/2000/svg">
<path fill-rule="evenodd" clip-rule="evenodd" d="M8 16C12.4183 16 16 12.4183 16 8C16 3.58172 12.4183 0 8 0C3.58172 0 0 3.58172 0 8C0 12.4183 3.58172 16 8 16ZM6.634 11.1774C7.03172 11.3431 7.4858 11.426 7.99621 11.426C8.50663 11.426 8.9596 11.3431 9.35511 11.1774C9.75284 11.0095 10.0644 10.7808 10.2898 10.4913C10.5152 10.2018 10.6289 9.87372 10.6312 9.50693C10.6289 9.2241 10.5616 8.96447 10.429 8.72804C10.2986 8.48941 10.1218 8.29165 9.89867 8.13477C9.67772 7.97568 9.43135 7.87403 9.15956 7.82984V7.78344C9.51531 7.71052 9.80698 7.53486 10.0346 7.25645C10.2622 6.97804 10.3771 6.65213 10.3793 6.27871C10.3771 5.92959 10.2732 5.61804 10.0677 5.34405C9.86222 5.06785 9.57939 4.8502 9.21922 4.69111C8.86127 4.53202 8.4536 4.45247 7.99621 4.45247C7.53883 4.45247 7.13005 4.53202 6.76989 4.69111C6.41193 4.84799 6.13021 5.06453 5.92472 5.34073C5.71922 5.61472 5.61648 5.92738 5.61648 6.27871C5.61648 6.64992 5.72917 6.97583 5.95455 7.25645C6.17992 7.53486 6.4738 7.71052 6.83617 7.78344V7.82984C6.55998 7.87403 6.31029 7.97568 6.08712 8.13477C5.86395 8.29165 5.68718 8.48941 5.55682 8.72804C5.42866 8.96447 5.36458 9.2241 5.36458 9.50693C5.36458 9.87372 5.47727 10.2018 5.70265 10.4913C5.92803 10.7808 6.23848 11.0095 6.634 11.1774ZM8.5928 10.2493C8.42266 10.3311 8.2238 10.372 7.99621 10.372C7.77083 10.372 7.57197 10.3311 7.39962 10.2493C7.22727 10.1654 7.09359 10.0505 6.99858 9.90465C6.90357 9.75661 6.85606 9.58647 6.85606 9.39424C6.85606 9.19758 6.90467 9.02413 7.00189 8.87388C7.10133 8.72141 7.23722 8.6021 7.40956 8.51592C7.58191 8.42754 7.77746 8.38335 7.99621 8.38335C8.21717 8.38335 8.41272 8.42754 8.58286 8.51592C8.753 8.6021 8.88778 8.72141 8.98722 8.87388C9.08665 9.02413 9.13636 9.19758 9.13636 9.39424C9.13636 9.58647 9.08775 9.75661 8.99053 9.90465C8.89552 10.0505 8.76294 10.1654 8.5928 10.2493ZM8.50331 7.22331C8.35527 7.30064 8.18624 7.33931 7.99621 7.33931C7.80619 7.33931 7.63715 7.30064 7.48911 7.22331C7.34107 7.14597 7.22506 7.03881 7.1411 6.90181C7.05713 6.76482 7.01515 6.60683 7.01515 6.42785C7.01515 6.25109 7.05603 6.09641 7.13778 5.96384C7.22175 5.82905 7.33775 5.7241 7.4858 5.64897C7.63384 5.57163 7.80398 5.53297 7.99621 5.53297C8.19066 5.53297 8.3608 5.57163 8.50663 5.64897C8.65246 5.7241 8.76736 5.82905 8.85133 5.96384C8.93529 6.09641 8.97727 6.25109 8.97727 6.42785C8.97727 6.60683 8.93529 6.76482 8.85133 6.90181C8.76736 7.03881 8.65136 7.14597 8.50331 7.22331Z" fill="white"/>
</svg>
