<svg width="120" height="120" viewBox="0 0 120 120" fill="none" xmlns="http://www.w3.org/2000/svg">
<g clip-path="url(#clip0_2514_12332)">
<rect width="120" height="120" fill="white"/>
<path fill-rule="evenodd" clip-rule="evenodd" d="M51.295 28.6395C41.4286 31.1487 35.876 39.4264 34.7234 46.9676C33.265 56.5097 34.2254 65.9199 35.7158 73.3148C36.9223 72.9046 38.1525 72.5684 39.3969 72.3092C39.7669 72.2329 40.1316 72.4651 40.2097 72.8296C40.2873 73.1932 40.0519 73.5513 39.6802 73.6285C38.4333 73.8883 37.2013 74.2291 35.9945 74.6476C36.0922 75.0981 36.1915 75.5402 36.292 75.9733C39.3895 74.8735 42.6275 74.3253 45.9502 74.3417C46.3294 74.3429 46.6344 74.6467 46.6328 75.0186C46.6316 75.3913 46.3238 75.6916 45.9442 75.6896C42.7308 75.6742 39.6007 76.2134 36.6089 77.2952C36.7202 77.7452 36.8323 78.184 36.9447 78.611C41.5164 76.9441 46.5388 76.5929 51.2989 77.6337C51.6692 77.7145 51.902 78.0747 51.8194 78.4378C51.7381 78.8014 51.3708 79.0306 51.0013 78.9494C46.4558 77.9545 41.657 78.3032 37.2992 79.9194C37.4123 80.3247 37.525 80.7174 37.6366 81.0968L37.6734 81.2208C43.4697 79.0254 49.8938 79.2561 55.5368 81.9083C55.8779 82.0687 56.0223 82.4717 55.8592 82.807C55.6952 83.1426 55.2856 83.2855 54.9441 83.1243C49.6211 80.6231 43.5588 80.4153 38.0963 82.5051C38.2561 82.9476 38.423 83.3668 38.5958 83.764C45.3757 81.1777 53.1385 82.4396 58.7166 87.1285C59.0042 87.3712 59.0375 87.7961 58.7919 88.0793C58.5451 88.3619 58.1127 88.3947 57.8246 88.1533C52.6566 83.8087 45.473 82.6245 39.1814 84.9876C39.4043 85.4117 39.6342 85.8059 39.8688 86.1723C45.783 84.0281 52.4487 85.2368 57.2115 89.4178C57.5194 89.6881 57.8156 89.968 58.1001 90.2568C59.7148 89.2482 61.2457 87.7199 62.5529 85.4693C67.4637 77.0147 77.1954 75.2078 81.6664 75.0764C86.7959 74.9257 91.4983 73.0833 93.1426 68.2206C95.1981 62.1423 93.615 56.9812 87.7732 53.6886C84.0044 51.5643 80.7591 46.7869 79.4898 43.3841C74.5284 30.083 61.1404 26.3247 51.295 28.6395ZM55.4353 91.4671C55.909 91.3229 56.3819 91.1455 56.851 90.9301C56.6716 90.7566 56.4874 90.5867 56.2985 90.4208C52.007 86.654 46.0374 85.5096 40.6826 87.3159C41.0095 87.7288 41.3409 88.0962 41.6718 88.424C46.4193 87.0241 51.6167 88.115 55.3915 91.4285C55.4062 91.4413 55.4207 91.4542 55.4353 91.4671ZM53.7621 91.8462C50.6593 89.4889 46.6787 88.6517 42.9195 89.4919C44.0128 90.2943 45.0267 90.7203 45.7643 90.992C47.6728 91.5896 50.6492 92.3241 53.7621 91.8462ZM60.4895 53.1056C58.6775 52.8393 56.8524 53.436 55.716 54.8489C54.0768 56.8872 54.4479 59.9067 56.4826 61.8586L56.4163 61.795C56.4857 61.8636 56.5571 61.9309 56.6305 61.9968L56.5645 61.9357C56.6945 62.056 56.8309 62.172 56.9738 62.2831C57.8306 62.95 58.8045 63.3568 59.7845 63.5111C61.6157 63.7989 63.4678 63.2047 64.6163 61.7766C66.3797 59.5839 65.8166 56.2554 63.3585 54.3424C62.5241 53.6929 61.5785 53.2901 60.6245 53.127C60.5795 53.1194 60.5345 53.1122 60.4895 53.1056ZM56.4864 61.8622C56.5114 61.8862 56.5367 61.91 56.5623 61.9337L56.4864 61.8622Z" fill="#A053E9"/>
<path fill-rule="evenodd" clip-rule="evenodd" d="M57.3705 62.5821C61.8141 66.0379 67.9671 65.6699 71.1137 61.7601C74.2603 57.8504 73.2089 51.8794 68.7653 48.4236C64.3218 44.9678 58.1687 45.3358 55.0221 49.2456C52.1888 52.7661 52.7592 57.9579 56.1451 61.4798C56.3825 61.7479 56.6483 62.0001 56.9418 62.2319C57.081 62.3513 57.2239 62.468 57.3705 62.5821ZM56.9418 62.2319C56.9543 62.2419 56.967 62.2518 56.9796 62.2616C59.421 64.1603 62.8186 63.9369 64.5684 61.7627C66.3182 59.5885 65.7576 56.2869 63.3162 54.3882C60.8749 52.4896 57.4773 52.713 55.7275 54.8871C54.1988 56.7866 54.4335 59.5466 56.1451 61.4798C56.3954 61.7401 56.661 61.9912 56.9418 62.2319Z" fill="#1F0736"/>
</g>
<rect x="0.75" y="0.75" width="118.5" height="118.5" rx="59.25" stroke="#7F818A" stroke-opacity="0.16" stroke-width="1.5"/>
<defs>
<clipPath id="clip0_2514_12332">
<rect width="120" height="120" rx="60" fill="white"/>
</clipPath>
</defs>
</svg>
