<svg width="343" height="48" viewBox="0 0 343 48" fill="none" xmlns="http://www.w3.org/2000/svg">
<rect width="343" height="48" rx="10" fill="white"/>
<rect x="0.5" y="0.5" width="342" height="47" rx="9.5" stroke="#7F818A" stroke-opacity="0.16"/>
<path d="M120.669 22.3678H119.997V22.3332H112.497V25.6665H117.207C116.52 27.6069 114.674 28.9998 112.497 28.9998C109.736 28.9998 107.497 26.7611 107.497 23.9998C107.497 21.2386 109.736 18.9998 112.497 18.9998C113.772 18.9998 114.932 19.4807 115.814 20.2661L118.172 17.909C116.683 16.5219 114.692 15.6665 112.497 15.6665C107.895 15.6665 104.164 19.3978 104.164 23.9998C104.164 28.6019 107.895 32.3332 112.497 32.3332C117.099 32.3332 120.831 28.6019 120.831 23.9998C120.831 23.4411 120.773 22.8957 120.669 22.3678Z" fill="#FFC107"/>
<path d="M105.125 20.1211L107.863 22.129C108.604 20.2948 110.398 18.9998 112.498 18.9998C113.772 18.9998 114.932 19.4807 115.815 20.2661L118.172 17.909C116.683 16.5219 114.693 15.6665 112.498 15.6665C109.297 15.6665 106.521 17.4736 105.125 20.1211Z" fill="#FF3D00"/>
<path d="M112.497 32.3336C114.649 32.3336 116.605 31.5099 118.084 30.1703L115.505 27.9878C114.64 28.6457 113.583 29.0015 112.497 29.0003C110.329 29.0003 108.489 27.6182 107.796 25.6895L105.078 27.7832C106.457 30.482 109.258 32.3336 112.497 32.3336Z" fill="#4CAF50"/>
<path d="M120.671 22.3676H120V22.333H112.5V25.6663H117.21C116.881 26.5898 116.289 27.3968 115.507 27.9876L115.508 27.9868L118.087 30.1693C117.905 30.3351 120.833 28.1663 120.833 23.9997C120.833 23.4409 120.776 22.8955 120.671 22.3676Z" fill="#1976D2"/>
<path d="M137.125 22.2969C136.766 21.0938 135.828 20.3594 134.453 20.3594C132.625 20.3594 131.312 21.7812 131.312 24.3281C131.312 26.9062 132.609 28.3281 134.5 28.3281C136.203 28.3281 137.297 27.2969 137.328 25.6875H134.703V24.0781H139.297V25.4375C139.297 28.3438 137.297 30.1562 134.5 30.1562C131.375 30.1562 129.266 27.9375 129.266 24.3438C129.266 20.7188 131.469 18.5312 134.438 18.5312C136.938 18.5312 138.859 20.0781 139.203 22.2969H137.125ZM144.75 30.1719C142.281 30.1719 140.688 28.4219 140.688 25.7969C140.688 23.1562 142.281 21.4062 144.75 21.4062C147.234 21.4062 148.812 23.1562 148.812 25.7969C148.812 28.4219 147.234 30.1719 144.75 30.1719ZM144.766 28.5781C146.125 28.5781 146.797 27.3438 146.797 25.7812C146.797 24.2344 146.125 22.9844 144.766 22.9844C143.375 22.9844 142.703 24.2344 142.703 25.7812C142.703 27.3438 143.375 28.5781 144.766 28.5781ZM154.062 30.1719C151.594 30.1719 150 28.4219 150 25.7969C150 23.1562 151.594 21.4062 154.062 21.4062C156.547 21.4062 158.125 23.1562 158.125 25.7969C158.125 28.4219 156.547 30.1719 154.062 30.1719ZM154.078 28.5781C155.438 28.5781 156.109 27.3438 156.109 25.7812C156.109 24.2344 155.438 22.9844 154.078 22.9844C152.688 22.9844 152.016 24.2344 152.016 25.7812C152.016 27.3438 152.688 28.5781 154.078 28.5781ZM163.375 33.3594C161.125 33.3594 159.703 32.3594 159.562 30.7656H161.547C161.688 31.5 162.391 31.8594 163.406 31.8594C164.594 31.8594 165.375 31.3438 165.375 30.0938V28.4688H165.281C164.969 29.0938 164.297 29.875 162.828 29.875C160.875 29.875 159.328 28.4531 159.328 25.6875C159.328 22.8906 160.875 21.4062 162.844 21.4062C164.344 21.4062 164.969 22.2969 165.281 22.9062H165.375V21.5156H167.344V30.1406C167.344 32.3125 165.672 33.3594 163.375 33.3594ZM163.375 28.3125C164.656 28.3125 165.391 27.3438 165.391 25.7188C165.391 24.1094 164.672 23.0312 163.375 23.0312C162.047 23.0312 161.359 24.1719 161.359 25.7188C161.359 27.2812 162.062 28.3125 163.375 28.3125ZM171.25 18.6875V30H169.25V18.6875H171.25ZM176.922 30.1719C174.359 30.1719 172.797 28.4688 172.797 25.8125C172.797 23.1875 174.391 21.4062 176.812 21.4062C178.891 21.4062 180.688 22.7031 180.688 25.6875V26.3125H174.766C174.789 27.7578 175.641 28.6094 176.938 28.6094C177.812 28.6094 178.406 28.2344 178.656 27.7344H180.609C180.25 29.2031 178.891 30.1719 176.922 30.1719ZM174.781 24.9531H178.781C178.766 23.7969 178 22.9531 176.844 22.9531C175.641 22.9531 174.844 23.8672 174.781 24.9531ZM194.656 28.3125V29.75H181.75V28.3125H187.312V26.0156H183.281V21.3906H191.406V19.6406H183.25V18.2344H193.125V22.7656H185.016V24.5938H193.453V26.0156H189.031V28.3125H194.656ZM212.281 28.3125V29.75H199.375V28.3125H204.938V26.0156H200.906V21.3906H209.031V19.6406H200.875V18.2344H210.75V22.7656H202.641V24.5938H211.078V26.0156H206.656V28.3125H212.281ZM224.438 18.6406V20.2344C224.438 22.125 224.438 24.0781 223.922 27.0469L222.156 26.8906C222.703 24.1094 222.703 22.0625 222.703 20.2344V20.0469H214.562V18.6406H224.438ZM226.078 28.0312V29.4531H213.203V28.0312H226.078ZM238.797 17.2812V27.4844H237.047V17.2812H238.797ZM239.188 29.7031V31.1094H229.453V26.4531H231.203V29.7031H239.188ZM231.094 18.2031C233.234 18.2031 234.891 19.6875 234.891 21.7344C234.891 23.8281 233.234 25.2812 231.094 25.2812C228.938 25.2812 227.281 23.8281 227.281 21.7344C227.281 19.6875 228.938 18.2031 231.094 18.2031ZM231.094 19.7188C229.891 19.7188 228.969 20.5156 228.984 21.7344C228.969 22.9844 229.891 23.7656 231.094 23.7656C232.266 23.7656 233.188 22.9844 233.188 21.7344C233.188 20.5156 232.266 19.7188 231.094 19.7188Z" fill="#27282B"/>
</svg>
