<svg width="16" height="16" viewBox="0 0 16 16" fill="none" xmlns="http://www.w3.org/2000/svg">
<circle cx="8" cy="8" r="8" fill="#95969D"/>
<path fill-rule="evenodd" clip-rule="evenodd" d="M11.8412 5.13051C12.043 5.31336 12.0539 5.62042 11.8655 5.81634L7.31583 10.5472C7.31461 10.5485 7.31326 10.5499 7.31181 10.5514C7.29597 10.5679 7.26689 10.5982 7.23731 10.6242C7.20095 10.6562 7.13073 10.7124 7.02659 10.7467C6.90128 10.7881 6.76539 10.7881 6.64007 10.7467C6.53593 10.7124 6.46571 10.6562 6.42936 10.6242C6.39978 10.5982 6.3707 10.5679 6.35486 10.5514C6.35341 10.5499 6.35206 10.5485 6.35084 10.5472L4.13447 8.24258C3.94606 8.04666 3.95697 7.7396 4.15884 7.55674C4.36072 7.37388 4.67711 7.38447 4.86553 7.58039L6.83333 9.62654L11.1345 5.15416C11.3229 4.95824 11.6393 4.94765 11.8412 5.13051Z" fill="white"/>
</svg>
