<svg width="16" height="16" viewBox="0 0 16 16" fill="none" xmlns="http://www.w3.org/2000/svg">
<path fill-rule="evenodd" clip-rule="evenodd" d="M16 8C16 12.4183 12.4183 16 8 16C3.58172 16 0 12.4183 0 8C0 3.58172 3.58172 0 8 0C12.4183 0 16 3.58172 16 8ZM8.85156 10.6562L11.1641 6.11719V6.07812H8.46094V5H12.5469V6.08594L10.2266 10.6562H8.85156ZM3.5 5V10.6562H6.01562C7.26562 10.6562 7.97656 9.99219 7.97656 9.07812C7.97656 8.25781 7.38281 7.74219 6.70312 7.71094V7.65625C7.32031 7.53125 7.75781 7.08594 7.75781 6.4375C7.75781 5.57812 7.10156 5 5.83594 5H3.5ZM6.58594 8.92969C6.58594 9.33594 6.3125 9.57812 5.70312 9.57812H4.82812V8.20312H5.72656C6.25781 8.20312 6.58594 8.48438 6.58594 8.92969ZM6.39844 6.6875C6.39844 7.09375 6.07031 7.33594 5.61719 7.33594H4.82812V6.0625H5.63281C6.10938 6.0625 6.39844 6.30469 6.39844 6.6875Z" fill="white"/>
</svg>
