<svg width="24" height="24" viewBox="0 0 24 24" fill="none" xmlns="http://www.w3.org/2000/svg">
<path fill-rule="evenodd" clip-rule="evenodd" d="M2.21799 3.09202C2 3.51984 2 4.0799 2 5.2V7.8C2 8.9201 2 9.48016 2.21799 9.90798C2.40973 10.2843 2.71569 10.5903 3.09202 10.782C3.51984 11 4.0799 11 5.2 11H18.8C19.9201 11 20.4802 11 20.908 10.782C21.2843 10.5903 21.5903 10.2843 21.782 9.90798C22 9.48016 22 8.9201 22 7.8V5.2C22 4.0799 22 3.51984 21.782 3.09202C21.5903 2.71569 21.2843 2.40973 20.908 2.21799C20.4802 2 19.9201 2 18.8 2H5.2C4.0799 2 3.51984 2 3.09202 2.21799C2.71569 2.40973 2.40973 2.71569 2.21799 3.09202ZM2.21799 14.092C2 14.5198 2 15.0799 2 16.2V18.8C2 19.9201 2 20.4802 2.21799 20.908C2.40973 21.2843 2.71569 21.5903 3.09202 21.782C3.51984 22 4.0799 22 5.2 22H18.8C19.9201 22 20.4802 22 20.908 21.782C21.2843 21.5903 21.5903 21.2843 21.782 20.908C22 20.4802 22 19.9201 22 18.8V16.2C22 15.0799 22 14.5198 21.782 14.092C21.5903 13.7157 21.2843 13.4097 20.908 13.218C20.4802 13 19.9201 13 18.8 13H5.2C4.0799 13 3.51984 13 3.09202 13.218C2.71569 13.4097 2.40973 13.7157 2.21799 14.092Z" fill="#141415"/>
</svg>
