<svg width="51" height="55" viewBox="0 0 51 55" fill="none" xmlns="http://www.w3.org/2000/svg">
<rect x="12.373" y="15.3989" width="22.5487" height="20.4988" fill="#EFF0EF"/>
<path fill-rule="evenodd" clip-rule="evenodd" d="M0.679733 16.1242C1.64449 9.72341 6.29218 2.69746 14.5507 0.567666C22.7917 -1.39707 33.9979 1.79295 38.1508 13.0826C39.2132 15.9708 41.9296 20.0258 45.0843 21.8288C49.9741 24.6236 51.2992 29.0042 49.5787 34.1634C48.2023 38.2907 44.2663 39.8544 39.9727 39.9824C36.2304 40.0939 28.0845 41.6276 23.974 48.8037C19.8636 55.9799 13.1109 54.504 9.92134 53.4913C8.25839 52.87 4.91817 51.2993 3.11816 45.0924C1.22909 38.5783 -1.02898 27.461 0.679733 16.1242ZM19.3031 29.1236C21.3606 30.7474 24.2251 30.5549 25.7012 28.6938C27.1772 26.8326 26.7058 24.0076 24.6483 22.3838C22.5908 20.76 19.7263 20.9524 18.2503 22.8136C16.7742 24.6747 17.2456 27.4998 19.3031 29.1236Z" fill="#E03535"/>
<path fill-rule="evenodd" clip-rule="evenodd" d="M19.621 29.3988C23.366 32.3543 28.5536 32.0371 31.208 28.6903C33.8623 25.3434 32.9782 20.2344 29.2332 17.2789C25.4883 14.3233 20.3006 14.6406 17.6463 17.9874C15.1727 21.1064 15.7721 25.7558 18.8961 28.7664C18.9171 28.7868 18.9383 28.8071 18.9597 28.8272C19.1691 29.0253 19.3896 29.2162 19.621 29.3988ZM18.9597 28.8272C19.069 28.9298 19.1839 29.0288 19.3041 29.1237C21.3616 30.7475 24.2261 30.5551 25.7022 28.694C27.1782 26.8328 26.7069 24.0077 24.6494 22.3839C22.5919 20.7602 19.7274 20.9526 18.2513 22.8137C16.8784 24.5448 17.1902 27.1098 18.8961 28.7664C18.9171 28.7868 18.9383 28.8071 18.9597 28.8272Z" fill="#3E0909"/>
<path d="M17.2545 17.6767C14.603 21.02 15.2694 25.9313 18.5098 29.0884C18.561 29.139 18.6133 29.1889 18.6668 29.238C18.8718 29.4294 19.0867 29.6141 19.3113 29.7913C23.2309 32.8847 28.7428 32.6032 31.5997 29.001C34.4574 25.3977 33.463 19.98 29.543 16.8864C25.6234 13.793 20.1115 14.0744 17.2545 17.6767ZM16.9361 24.6537C16.2816 22.439 16.6216 20.0841 18.038 18.2981C20.4898 15.2067 25.3532 14.8537 28.9235 17.6713C32.4933 20.4887 33.2672 25.2892 30.8162 28.3796C29.0683 30.5835 26.0948 31.3956 23.2379 30.6594C24.3416 30.4785 25.3621 29.9275 26.0939 29.0046C27.77 26.8913 27.1964 23.7571 24.9591 21.9914C24.1792 21.3759 23.2836 20.995 22.3769 20.8495C20.6829 20.5773 18.9499 21.1268 17.8585 22.5029C17.3473 23.1475 17.0454 23.887 16.9361 24.6537ZM1.17415 16.1987C2.11465 9.9588 6.64475 3.12498 14.6712 1.05297C22.7268 -0.865451 33.6371 2.26021 37.6815 13.2552C38.2316 14.7507 39.2016 16.5292 40.4337 18.1636C41.664 19.7957 43.1799 21.3163 44.8362 22.2629C47.1974 23.6124 48.6577 25.3194 49.3382 27.2738C50.0202 29.2329 49.9395 31.5009 49.1044 34.0052C47.8267 37.8366 44.1668 39.3572 39.9578 39.4826C36.1569 39.5959 27.782 41.1496 23.5402 48.5552C21.5628 52.0074 18.9808 53.3452 16.5261 53.7242C14.0477 54.1067 11.6577 53.5171 10.0846 53.0185C9.28794 52.7201 8.11447 52.2022 6.92163 51.0298C5.7226 49.8514 4.4777 47.9853 3.59837 44.9531C1.71878 38.4717 -0.519271 27.434 1.17415 16.1987Z" stroke="black" stroke-opacity="0.17"/>
</svg>
