<svg width="24" height="24" viewBox="0 0 24 24" fill="none" xmlns="http://www.w3.org/2000/svg">
<path fill-rule="evenodd" clip-rule="evenodd" d="M12 9.15385C13.6282 9.15385 15 7.80516 15 6.07692C15 4.34869 13.6282 3 12 3C10.3718 3 9 4.34869 9 6.07692C9 7.80516 10.3718 9.15385 12 9.15385ZM13.561 10.9015C15.558 10.2358 17 8.32733 17 6.07692C17 3.27302 14.7614 1 12 1C9.23858 1 7 3.27302 7 6.07692C7 8.32733 8.44201 10.2358 10.439 10.9015C10.9302 11.0653 11.4549 11.1538 12 11.1538C12.5451 11.1538 13.0698 11.0653 13.561 10.9015ZM13.7751 12.925C13.1902 12.8728 12.5982 12.8462 12 12.8462C11.4018 12.8462 10.8098 12.8728 10.2249 12.925C8.18019 13.1076 6.22374 13.6027 4.40218 14.3628C3.93833 14.5564 3.70641 14.6532 3.39032 14.8834C2.81255 15.3043 2.25331 16.1516 2.08957 16.8542C2 17.2386 2 17.5869 2 18.2834C2 19.5229 2 20.1426 2.15795 20.6449C2.48615 21.6886 3.29156 22.5064 4.3194 22.8396C4.81406 23 5.42441 23 6.6451 23H17.3549C18.5756 23 19.1859 23 19.6806 22.8396C20.7084 22.5064 21.5138 21.6886 21.842 20.6449C22 20.1426 22 19.5229 22 18.2834C22 17.5869 22 17.2386 21.9104 16.8542C21.7467 16.1516 21.1874 15.3043 20.6097 14.8834C20.2936 14.6532 20.0617 14.5564 19.5978 14.3628C17.7763 13.6027 15.8198 13.1076 13.7751 12.925ZM4.03738 17.3081C4.01064 17.4229 4 17.5197 4 18.2834C4 19.6739 4.02324 19.9095 4.06584 20.0449C4.20274 20.4803 4.53331 20.8065 4.93623 20.9371C5.05444 20.9754 5.26932 21 6.6451 21H17.3549C18.7307 21 18.9456 20.9754 19.0638 20.9371C19.4667 20.8065 19.7973 20.4803 19.9342 20.0449C19.9768 19.9095 20 19.6739 20 18.2834C20 17.5197 19.9894 17.4229 19.9626 17.3081C19.9475 17.2434 19.8839 17.0737 19.7461 16.8649C19.6078 16.6553 19.4793 16.5344 19.4321 16.5C19.3664 16.4522 19.326 16.4287 19.2699 16.4008C19.1853 16.3588 19.0779 16.313 18.8276 16.2086C16.7242 15.3308 14.4201 14.8462 12 14.8462C9.57994 14.8462 7.27575 15.3308 5.17243 16.2086L4.42649 14.4211L5.17243 16.2086C4.92213 16.313 4.81472 16.3588 4.73007 16.4008C4.67399 16.4287 4.63359 16.4521 4.56788 16.5C4.52072 16.5344 4.39219 16.6553 4.25389 16.8649C4.11607 17.0737 4.05247 17.2434 4.03738 17.3081Z" fill="#141415"/>
</svg>
