<svg width="16" height="16" viewBox="0 0 16 16" fill="none" xmlns="http://www.w3.org/2000/svg">
<path fill-rule="evenodd" clip-rule="evenodd" d="M8 16C12.4183 16 16 12.4183 16 8C16 3.58172 12.4183 0 8 0C3.58172 0 0 3.58172 0 8C0 12.4183 3.58172 16 8 16ZM6.6617 11.1708C7.04837 11.3409 7.48919 11.426 7.98414 11.426C8.49234 11.426 8.9431 11.3398 9.33641 11.1674C9.72972 10.9951 10.038 10.7587 10.2611 10.4582C10.4865 10.1577 10.5981 9.81406 10.5959 9.42738C10.5981 9.00535 10.4677 8.65402 10.2048 8.3734C9.94405 8.09057 9.564 7.91712 9.06463 7.85304V7.80001C9.44468 7.73151 9.75292 7.57021 9.98935 7.31611C10.228 7.06201 10.3462 6.74493 10.344 6.36488C10.3462 6.00692 10.249 5.68432 10.0523 5.39708C9.85788 5.10762 9.58499 4.87782 9.23366 4.70768C8.88234 4.53754 8.47246 4.45247 8.00402 4.45247C7.54001 4.45247 7.1235 4.53754 6.7545 4.70768C6.3877 4.87561 6.09604 5.10872 5.8795 5.40702C5.66296 5.70532 5.55137 6.05001 5.54474 6.44111H6.92022C6.92685 6.26876 6.97877 6.11851 7.07599 5.99035C7.17322 5.8622 7.30248 5.76387 7.46378 5.69537C7.62508 5.62466 7.80295 5.58931 7.9974 5.58931C8.18963 5.58931 8.35756 5.62577 8.50118 5.69869C8.64702 5.7716 8.75971 5.87324 8.83925 6.00361C8.92101 6.13177 8.96188 6.28091 8.96188 6.45105C8.96188 6.63003 8.91548 6.78691 8.82268 6.9217C8.72988 7.05427 8.59951 7.15812 8.43158 7.23325C8.26586 7.30838 8.07473 7.34594 7.85819 7.34594H7.22514V8.39992H7.85819C8.1145 8.39992 8.33546 8.43969 8.52107 8.51924C8.70889 8.59878 8.85251 8.70926 8.95194 8.85068C9.05358 8.98988 9.1044 9.15007 9.1044 9.33126C9.1044 9.51024 9.0569 9.66823 8.96188 9.80522C8.86687 9.94222 8.7354 10.0494 8.56747 10.1267C8.39954 10.2041 8.2062 10.2427 7.98745 10.2427C7.77754 10.2427 7.58862 10.2085 7.42069 10.14C7.25276 10.0715 7.11798 9.97536 7.01634 9.85162C6.9169 9.72567 6.86277 9.57984 6.85393 9.41412H5.40885C5.41548 9.80964 5.52928 10.1588 5.75024 10.4615C5.97341 10.762 6.27723 10.9984 6.6617 11.1708Z" fill="white"/>
</svg>
