<svg width="16" height="16" viewBox="0 0 16 16" fill="none" xmlns="http://www.w3.org/2000/svg">
<path fill-rule="evenodd" clip-rule="evenodd" d="M16 8C16 12.4183 12.4183 16 8 16C3.58172 16 0 12.4183 0 8C0 3.58172 3.58172 0 8 0C12.4183 0 16 3.58172 16 8ZM10.4493 5C11.6836 5 12.8008 5.73438 12.8008 7.78125C12.8086 9.67969 11.8633 10.8125 10.418 10.8125C9.22271 10.8125 8.41802 10.0625 8.30864 9.09375H9.62896C9.70708 9.47656 10.0118 9.67188 10.418 9.67188C11.129 9.67188 11.4805 9.02344 11.4883 7.97656H11.4493C11.1993 8.48438 10.6368 8.78125 9.99615 8.78125C8.98052 8.78125 8.25396 8.02344 8.25396 6.98438C8.24614 5.8125 9.13677 5 10.4493 5ZM10.4571 6.02344C9.92583 6.02344 9.54302 6.42969 9.54302 6.9375C9.55083 7.45312 9.91802 7.85156 10.4493 7.85156C10.9649 7.85156 11.3633 7.4375 11.3633 6.9375C11.3555 6.4375 10.9727 6.02344 10.4571 6.02344ZM3.19922 5.07812V10.7344H5.71484C6.96484 10.7344 7.67578 10.0703 7.67578 9.15625C7.67578 8.33594 7.08203 7.82031 6.40234 7.78906V7.73438C7.01953 7.60938 7.45703 7.16406 7.45703 6.51562C7.45703 5.65625 6.80078 5.07812 5.53516 5.07812H3.19922ZM6.28516 9.00781C6.28516 9.41406 6.01172 9.65625 5.40234 9.65625H4.52734V8.28125H5.42578C5.95703 8.28125 6.28516 8.5625 6.28516 9.00781ZM6.09766 6.76562C6.09766 7.17188 5.76953 7.41406 5.31641 7.41406H4.52734V6.14062H5.33203C5.80859 6.14062 6.09766 6.38281 6.09766 6.76562Z" fill="white"/>
</svg>
