<svg width="54" height="56" viewBox="0 0 54 56" fill="none" xmlns="http://www.w3.org/2000/svg">
<rect x="8.08301" y="16.3992" width="22.5487" height="20.4988" fill="#EFF0EF"/>
<path fill-rule="evenodd" clip-rule="evenodd" d="M1.53843 16.4031C2.54256 9.8815 7.37996 2.72298 15.9756 0.553005C24.5529 -1.4488 36.2166 1.80141 40.5389 13.3041C41.6447 16.2468 44.472 20.3783 47.7555 22.2153C52.8448 25.0628 54.224 29.526 52.4333 34.7826C51.0007 38.9878 46.904 40.581 42.4352 40.7114C38.5401 40.825 30.0618 42.3876 25.7835 49.6992C21.5053 57.0107 14.477 55.507 11.1572 54.4752C9.42642 53.8422 5.94986 52.2418 4.07638 45.9178C2.11021 39.2809 -0.240028 27.9537 1.53843 16.4031ZM20.9219 29.6477C23.0634 31.3021 26.0448 31.1061 27.5811 29.2098C29.1174 27.3135 28.6268 24.4352 26.4854 22.7807C24.3439 21.1263 21.3624 21.3224 19.8261 23.2186C18.2898 25.1149 18.7804 27.9933 20.9219 29.6477Z" fill="#2361F3"/>
<path fill-rule="evenodd" clip-rule="evenodd" d="M21.2528 29.9282C25.1506 32.9394 30.55 32.6162 33.3127 29.2062C36.0754 25.7962 35.1552 20.5908 31.2574 17.5795C27.3596 14.5682 21.9602 14.8914 19.1975 18.3014C16.6229 21.4792 17.2468 26.2164 20.4983 29.2838C20.5202 29.3046 20.5422 29.3252 20.5645 29.3457C20.7825 29.5476 21.012 29.7421 21.2528 29.9282ZM20.5645 29.3457C20.6783 29.4503 20.7978 29.5512 20.923 29.6479C23.0645 31.3023 26.0459 31.1062 27.5822 29.21C29.1185 27.3137 28.6279 24.4353 26.4864 22.7809C24.3449 21.1265 21.3635 21.3225 19.8272 23.2188C18.3983 24.9825 18.7228 27.5959 20.4983 29.2838C20.5202 29.3046 20.5422 29.3252 20.5645 29.3457Z" fill="black"/>
<path d="M18.809 17.9867C16.0497 21.3925 16.7456 26.3978 20.1166 29.6109C20.1688 29.6615 20.2221 29.7112 20.2766 29.7602C20.4899 29.9552 20.7135 30.1433 20.9472 30.3238C25.0173 33.4682 30.7355 33.1816 33.7012 29.521C36.6749 25.8505 35.6372 20.3314 31.563 17.1838C27.493 14.0394 21.7747 14.3261 18.809 17.9867ZM18.4662 25.1852C17.747 22.9012 18.0911 20.4613 19.586 18.6162C22.1456 15.4568 27.2262 15.097 30.9517 17.9752C34.6731 20.8502 35.4759 25.742 32.9242 28.8915C31.0908 31.1545 27.9639 31.9811 24.9681 31.2103C26.1281 31.0344 27.2024 30.473 27.9707 29.5247C29.7145 27.3723 29.1148 24.1797 26.7921 22.3852C25.9815 21.759 25.051 21.3721 24.1094 21.2254C22.3575 20.9521 20.5669 21.51 19.4376 22.9039C18.8852 23.5858 18.568 24.372 18.4662 25.1852ZM2.03261 16.4792C3.01112 10.124 7.72616 3.15328 16.0936 1.0389C24.4936 -0.919489 35.86 2.27388 40.0709 13.4799C40.6433 15.0033 41.6526 16.8148 42.9344 18.4794C44.2146 20.1419 45.7908 21.6891 47.5113 22.6517C49.9733 24.0291 51.4948 25.771 52.2033 27.7631C52.9132 29.7592 52.8292 32.0697 51.96 34.6213C50.6287 38.5293 46.8109 40.0835 42.4206 40.2116C38.4709 40.3269 29.7636 41.9072 25.352 49.4467C23.2927 52.9659 20.6009 54.334 18.0362 54.7215C15.4492 55.1125 12.9559 54.5098 11.3175 54.0014C10.486 53.6966 9.26128 53.1675 8.01698 51.9703C6.76702 50.7677 5.47099 48.8651 4.55579 45.7758C2.59943 39.172 0.27011 27.9262 2.03261 16.4792Z" stroke="black" stroke-opacity="0.17"/>
</svg>
