<svg width="24" height="24" viewBox="0 0 24 24" fill="none" xmlns="http://www.w3.org/2000/svg">
<path fill-rule="evenodd" clip-rule="evenodd" d="M12 4C9.00947 4 6.48373 6.50749 6.48373 9.72727V14.0333C6.48373 14.0403 6.48376 14.0484 6.48379 14.0575C6.48411 14.1474 6.48476 14.3322 6.4613 14.5228C6.44137 14.6845 6.40826 14.8444 6.36229 15.0008C6.30814 15.1851 6.23411 15.3545 6.19812 15.4369C6.19447 15.4452 6.19122 15.4527 6.18842 15.4592L5.52178 17H18.4782L17.8116 15.4592C17.8088 15.4527 17.8055 15.4452 17.8019 15.4369C17.7659 15.3545 17.6919 15.1851 17.6377 15.0008C17.5917 14.8444 17.5586 14.6845 17.5387 14.5228C17.5152 14.3322 17.5159 14.1474 17.5162 14.0575C17.5162 14.0484 17.5163 14.0403 17.5163 14.0333V9.72727C17.5163 6.50749 14.9905 4 12 4ZM19.8775 16.9843C19.8775 16.9843 19.8769 16.9844 19.8756 16.9846L19.8775 16.9843ZM4.12247 16.9843C4.12249 16.9843 4.1232 16.9844 4.12457 16.9846L4.12247 16.9843ZM4.98248 18.2854C4.98214 18.2866 4.98196 18.2873 4.98195 18.2873L4.98248 18.2854ZM4.47781 9.72727C4.47781 5.45962 7.84561 2 12 2C16.1544 2 19.5222 5.45962 19.5222 9.72727V14.0333C19.5222 14.1566 19.5222 14.2183 19.5297 14.279C19.5363 14.3329 19.5473 14.3862 19.5627 14.4384C19.5799 14.4971 19.6044 14.5537 19.6534 14.667L20.5617 16.7663C20.8843 17.5118 21.0455 17.8846 20.9888 18.1851C20.9392 18.4477 20.7862 18.6796 20.564 18.829C20.3098 19 19.9026 19 19.0882 19H4.91181C4.0974 19 3.6902 19 3.43599 18.829C3.21378 18.6796 3.06082 18.4477 3.01121 18.1851C2.95445 17.8846 3.11574 17.5118 3.43832 16.7663L4.34656 14.667C4.39557 14.5537 4.42008 14.4971 4.43733 14.4384C4.45265 14.3862 4.46369 14.3329 4.47033 14.279C4.47781 14.2183 4.47781 14.1566 4.47781 14.0333V9.72727Z" fill="#141415"/>
<path d="M8.48885 22C8.48885 21.4477 8.93789 21 9.49181 21H14.5066C15.0605 21 15.5096 21.4477 15.5096 22C15.5096 22.5523 15.0605 23 14.5066 23H9.49181C8.93789 23 8.48885 22.5523 8.48885 22Z" fill="#141415"/>
</svg>
