<svg width="16" height="16" viewBox="0 0 16 16" fill="none" xmlns="http://www.w3.org/2000/svg">
<path fill-rule="evenodd" clip-rule="evenodd" d="M16 8C16 12.4183 12.4183 16 8 16C3.58172 16 0 12.4183 0 8C0 3.58172 3.58172 0 8 0C12.4183 0 16 3.58172 16 8ZM10.5273 10.8125C9.19922 10.8125 8.23828 10.125 8.23828 9.20312C8.23828 8.5 8.79297 7.92969 9.51172 7.82031V7.78125C8.88672 7.66406 8.44922 7.15625 8.44922 6.53125C8.44922 5.64844 9.32422 5 10.5273 5C11.7148 5 12.5977 5.64844 12.5977 6.53125C12.5977 7.15625 12.1445 7.66406 11.5352 7.78125V7.82031C12.2383 7.92969 12.8086 8.5 12.8086 9.20312C12.8086 10.125 11.8477 10.8125 10.5273 10.8125ZM10.5273 9.82812C11.0508 9.82812 11.4102 9.50781 11.4102 9.0625C11.4102 8.61719 11.0352 8.28906 10.5273 8.28906C10.0117 8.28906 9.62891 8.61719 9.63672 9.0625C9.62891 9.50781 9.99609 9.82812 10.5273 9.82812ZM10.5273 7.375C10.9727 7.375 11.293 7.08594 11.293 6.67188C11.293 6.27344 10.9727 5.98438 10.5273 5.98438C10.0664 5.98438 9.75391 6.26562 9.75391 6.67188C9.75391 7.07812 10.0742 7.375 10.5273 7.375ZM3.19922 5.07812V10.7344H5.71484C6.96484 10.7344 7.67578 10.0703 7.67578 9.15625C7.67578 8.33594 7.08203 7.82031 6.40234 7.78906V7.73438C7.01953 7.60938 7.45703 7.16406 7.45703 6.51562C7.45703 5.65625 6.80078 5.07812 5.53516 5.07812H3.19922ZM6.28516 9.00781C6.28516 9.41406 6.01172 9.65625 5.40234 9.65625H4.52734V8.28125H5.42578C5.95703 8.28125 6.28516 8.5625 6.28516 9.00781ZM6.09766 6.76562C6.09766 7.17188 5.76953 7.41406 5.31641 7.41406H4.52734V6.14062H5.33203C5.80859 6.14062 6.09766 6.38281 6.09766 6.76562Z" fill="white"/>
</svg>
