<svg width="16" height="16" viewBox="0 0 16 16" fill="none" xmlns="http://www.w3.org/2000/svg">
<path fill-rule="evenodd" clip-rule="evenodd" d="M16 8C16 12.4183 12.4183 16 8 16C3.58172 16 0 12.4183 0 8C0 3.58172 3.58172 0 8 0C12.4183 0 16 3.58172 16 8ZM8.14062 9.70312V8.66406L10.4844 5H12.1641V8.65625H12.8516V9.70312H12.1641V10.6562H10.8906V9.70312H8.14062ZM9.46875 8.65625H10.9141V6.41406H10.8672L9.46875 8.60938V8.65625ZM3.10156 5V10.6562H5.61719C6.86719 10.6562 7.57812 9.99219 7.57812 9.07812C7.57812 8.25781 6.98438 7.74219 6.30469 7.71094V7.65625C6.92188 7.53125 7.35938 7.08594 7.35938 6.4375C7.35938 5.57812 6.70312 5 5.4375 5H3.10156ZM6.1875 8.92969C6.1875 9.33594 5.91406 9.57812 5.30469 9.57812H4.42969V8.20312H5.32812C5.85938 8.20312 6.1875 8.48438 6.1875 8.92969ZM6 6.6875C6 7.09375 5.67188 7.33594 5.21875 7.33594H4.42969V6.0625H5.23438C5.71094 6.0625 6 6.30469 6 6.6875Z" fill="white"/>
</svg>
