<svg width="24" height="24" viewBox="0 0 24 24" fill="none" xmlns="http://www.w3.org/2000/svg">
<g clip-path="url(#clip0_2434_13943)">
<path d="M18.32 23.0381C17.0135 24.3046 15.587 24.1046 14.2138 23.5047C12.7607 22.8914 11.4275 22.8648 9.89436 23.5047C7.97461 24.3312 6.9614 24.0913 5.81488 23.0381C-0.690967 16.3322 0.268913 6.1202 7.65465 5.74692C9.45442 5.84024 10.7076 6.73346 11.7608 6.81345C13.3339 6.49349 14.8404 5.57361 16.5202 5.69359C18.5333 5.85357 20.0531 6.65347 21.053 8.09329C16.8935 10.5863 17.88 16.0656 21.6929 17.5988C20.933 19.5985 19.9464 21.5849 18.3066 23.0514L18.32 23.0381ZM11.6275 5.66693C11.4275 2.69397 13.8405 0.240946 16.6135 0.000976562C17.0001 3.44054 13.4939 6.00022 11.6275 5.66693Z" fill="#141415"/>
</g>
<defs>
<clipPath id="clip0_2434_13943">
<rect width="24" height="24" fill="white"/>
</clipPath>
</defs>
</svg>
