<svg width="53" height="56" viewBox="0 0 53 56" fill="none" xmlns="http://www.w3.org/2000/svg">
<rect x="9.5752" y="16.3989" width="22.5487" height="20.4988" fill="#EFF0EF"/>
<path fill-rule="evenodd" clip-rule="evenodd" d="M0.980815 16.4031C1.98494 9.8815 6.82234 2.72298 15.418 0.553004C23.9953 -1.4488 35.6589 1.80141 39.9813 13.3041C41.0871 16.2468 43.9144 20.3783 47.1978 22.2153C52.2872 25.0628 53.6664 29.526 51.8757 34.7826C50.4431 38.9878 46.3464 40.581 41.8776 40.7114C37.9825 40.825 29.5041 42.3876 25.2259 49.6992C20.9477 57.0107 13.9194 55.507 10.5996 54.4752C8.8688 53.8422 5.39225 52.2418 3.51876 45.9178C1.5526 39.2809 -0.797645 27.9537 0.980815 16.4031ZM20.3643 29.6477C22.5058 31.3021 25.4872 31.1061 27.0235 29.2098C28.5598 27.3135 28.0692 24.4351 25.9277 22.7807C23.7863 21.1263 20.8048 21.3224 19.2685 23.2186C17.7322 25.1149 18.2228 27.9933 20.3643 29.6477Z" fill="#FF58BC"/>
<path fill-rule="evenodd" clip-rule="evenodd" d="M20.6952 29.9282C24.593 32.9394 29.9924 32.6162 32.7551 29.2062C35.5178 25.7962 34.5976 20.5908 30.6997 17.5795C26.8019 14.5682 21.4026 14.8914 18.6399 18.3014C16.0653 21.4792 16.6892 26.2164 19.9407 29.2838C19.9625 29.3046 19.9846 29.3252 20.0069 29.3457C20.2248 29.5476 20.4543 29.7421 20.6952 29.9282ZM20.0069 29.3457C20.1207 29.4503 20.2402 29.5512 20.3654 29.6479C22.5069 31.3023 25.4883 31.1062 27.0246 29.21C28.5609 27.3137 28.0703 24.4353 25.9288 22.7809C23.7873 21.1265 20.8059 21.3225 19.2696 23.2188C17.8407 24.9825 18.1652 27.5959 19.9407 29.2838C19.9625 29.3046 19.9846 29.3252 20.0069 29.3457Z" fill="#48002B"/>
<path d="M18.2514 17.9867C15.4921 21.3925 16.188 26.3979 19.5591 29.611C19.6112 29.6615 19.6644 29.7111 19.7187 29.76C19.9321 29.955 20.1558 30.1433 20.3895 30.3238C24.4596 33.4682 30.1779 33.1816 33.1436 29.521C36.1173 25.8505 35.0796 20.3314 31.0054 17.1838C26.9353 14.0394 21.2171 14.3261 18.2514 17.9867ZM17.9086 25.1852C17.1894 22.9012 17.5335 20.4613 19.0284 18.6162C21.588 15.4568 26.6686 15.097 30.3941 17.9752C34.1155 20.8502 34.9182 25.742 32.3666 28.8915C30.5331 31.1545 27.4063 31.9812 24.4105 31.2103C25.5705 31.0344 26.6448 30.473 27.4131 29.5247C29.1569 27.3723 28.5572 24.1797 26.2345 22.3852C25.4261 21.7607 24.4984 21.3742 23.5594 21.2266C21.8051 20.9505 20.011 21.508 18.88 22.9039C18.3276 23.5858 18.0103 24.372 17.9086 25.1852ZM1.47499 16.4792C2.4535 10.124 7.16855 3.15328 15.536 1.0389C23.936 -0.91949 35.3024 2.27388 39.5133 13.4799C40.0857 15.0033 41.095 16.8148 42.3768 18.4794C43.657 20.1419 45.2332 21.6891 46.9537 22.6517C49.4157 24.0291 50.9372 25.771 51.6457 27.7631C52.3556 29.7592 52.2716 32.0697 51.4024 34.6213C50.0711 38.5293 46.2533 40.0835 41.863 40.2116C37.9132 40.3269 29.2059 41.9072 24.7944 49.4467C22.7351 52.9659 20.0432 54.334 17.4786 54.7215C14.8916 55.1125 12.3982 54.5098 10.7598 54.0014C9.92842 53.6966 8.70366 53.1675 7.45936 51.9703C6.20941 50.7677 4.91337 48.8651 3.99817 45.7758C2.04182 39.172 -0.287507 27.9262 1.47499 16.4792Z" stroke="black" stroke-opacity="0.17"/>
</svg>
