<svg width="343" height="48" viewBox="0 0 343 48" fill="none" xmlns="http://www.w3.org/2000/svg">
<rect width="343" height="48" rx="10" fill="#141415"/>
<g clip-path="url(#clip0_2727_10941)">
<path d="M122.266 33.1986C121.177 34.254 119.988 34.0873 118.844 33.5874C117.633 33.0763 116.522 33.0541 115.245 33.5874C113.645 34.2762 112.801 34.0762 111.845 33.1986C106.424 27.6104 107.223 19.1003 113.378 18.7893C114.878 18.867 115.922 19.6114 116.8 19.678C118.111 19.4114 119.366 18.6448 120.766 18.7448C122.444 18.8781 123.71 19.5447 124.543 20.7446C121.077 22.8221 121.899 27.3882 125.077 28.6658C124.443 30.3322 123.621 31.9876 122.255 33.2097L122.266 33.1986ZM116.689 18.7226C116.522 16.2451 118.533 14.201 120.844 14.001C121.166 16.8673 118.244 19.0003 116.689 18.7226Z" fill="white"/>
</g>
<path d="M135.484 30H133.312L137.297 18.6875H139.797L143.797 30H141.625L140.688 27.2031H136.422L135.484 30ZM136.969 25.5625H140.141L138.594 21H138.5L136.969 25.5625ZM145.047 33.1875V21.5156H147V22.9062H147.125C147.438 22.2969 148.062 21.4062 149.562 21.4062C151.516 21.4062 153.062 22.9375 153.062 25.7656C153.062 28.5625 151.562 30.1562 149.562 30.1562C148.094 30.1562 147.438 29.2812 147.125 28.6562H147.047V33.1875H145.047ZM147 25.75C147 27.4062 147.719 28.5156 149.016 28.5156C150.328 28.5156 151.031 27.3594 151.031 25.75C151.031 24.1719 150.344 23.0312 149.016 23.0312C147.719 23.0312 147 24.1094 147 25.75ZM154.625 33.1875V21.5156H156.578V22.9062H156.703C157.016 22.2969 157.641 21.4062 159.141 21.4062C161.094 21.4062 162.641 22.9375 162.641 25.7656C162.641 28.5625 161.141 30.1562 159.141 30.1562C157.672 30.1562 157.016 29.2812 156.703 28.6562H156.625V33.1875H154.625ZM156.578 25.75C156.578 27.4062 157.297 28.5156 158.594 28.5156C159.906 28.5156 160.609 27.3594 160.609 25.75C160.609 24.1719 159.922 23.0312 158.594 23.0312C157.297 23.0312 156.578 24.1094 156.578 25.75ZM166.203 18.6875V30H164.203V18.6875H166.203ZM171.875 30.1719C169.312 30.1719 167.75 28.4688 167.75 25.8125C167.75 23.1875 169.344 21.4062 171.766 21.4062C173.844 21.4062 175.641 22.7031 175.641 25.6875V26.3125H169.719C169.742 27.7578 170.594 28.6094 171.891 28.6094C172.766 28.6094 173.359 28.2344 173.609 27.7344H175.562C175.203 29.2031 173.844 30.1719 171.875 30.1719ZM169.734 24.9531H173.734C173.719 23.7969 172.953 22.9531 171.797 22.9531C170.594 22.9531 169.797 23.8672 169.734 24.9531ZM189.609 28.3125V29.75H176.703V28.3125H182.266V26.0156H178.234V21.3906H186.359V19.6406H178.203V18.2344H188.078V22.7656H179.969V24.5938H188.406V26.0156H183.984V28.3125H189.609ZM207.234 28.3125V29.75H194.328V28.3125H199.891V26.0156H195.859V21.3906H203.984V19.6406H195.828V18.2344H205.703V22.7656H197.594V24.5938H206.031V26.0156H201.609V28.3125H207.234ZM219.391 18.6406V20.2344C219.391 22.125 219.391 24.0781 218.875 27.0469L217.109 26.8906C217.656 24.1094 217.656 22.0625 217.656 20.2344V20.0469H209.516V18.6406H219.391ZM221.031 28.0312V29.4531H208.156V28.0312H221.031ZM233.75 17.2812V27.4844H232V17.2812H233.75ZM234.141 29.7031V31.1094H224.406V26.4531H226.156V29.7031H234.141ZM226.047 18.2031C228.188 18.2031 229.844 19.6875 229.844 21.7344C229.844 23.8281 228.188 25.2812 226.047 25.2812C223.891 25.2812 222.234 23.8281 222.234 21.7344C222.234 19.6875 223.891 18.2031 226.047 18.2031ZM226.047 19.7188C224.844 19.7188 223.922 20.5156 223.938 21.7344C223.922 22.9844 224.844 23.7656 226.047 23.7656C227.219 23.7656 228.141 22.9844 228.141 21.7344C228.141 20.5156 227.219 19.7188 226.047 19.7188Z" fill="white"/>
<defs>
<clipPath id="clip0_2727_10941">
<rect width="20" height="20" fill="white" transform="translate(107 14)"/>
</clipPath>
</defs>
</svg>
