<svg width="24" height="24" viewBox="0 0 24 24" fill="none" xmlns="http://www.w3.org/2000/svg">
<path fill-rule="evenodd" clip-rule="evenodd" d="M12.5062 4C8.36671 4 5.01101 7.35569 5.01101 11.4952C5.01101 12.6933 5.2914 13.823 5.78922 14.8251C5.90684 15.0618 5.92594 15.3355 5.84234 15.5862L4.57349 19.3927L8.41838 18.1529C8.66699 18.0727 8.93709 18.093 9.17093 18.2094C10.1743 18.7089 11.3059 18.9903 12.5062 18.9903C16.6456 18.9903 20.0013 15.6346 20.0013 11.4952C20.0013 7.35569 16.6456 4 12.5062 4ZM3.01101 11.4952C3.01101 6.25113 7.26214 2 12.5062 2C17.7502 2 22.0013 6.25113 22.0013 11.4952C22.0013 16.7392 17.7502 20.9903 12.5062 20.9903C11.1376 20.9903 9.83449 20.7002 8.65689 20.1774L3.30692 21.9025C2.9481 22.0182 2.55472 21.9223 2.28945 21.6544C2.02418 21.3865 1.93212 20.9922 2.05135 20.6345L3.81869 15.3326C3.29921 14.1581 3.01101 12.8591 3.01101 11.4952Z" fill="#141415"/>
</svg>
