<svg width="53" height="56" viewBox="0 0 53 56" fill="none" xmlns="http://www.w3.org/2000/svg">
<rect x="13.3213" y="16.3989" width="22.5487" height="20.4988" fill="#EFF0EF"/>
<path fill-rule="evenodd" clip-rule="evenodd" d="M0.6273 16.4031C1.63143 9.8815 6.46883 2.72298 15.0645 0.553004C23.6418 -1.4488 35.3054 1.80141 39.6278 13.3041C40.7336 16.2468 43.5609 20.3783 46.8443 22.2153C51.9337 25.0628 53.3129 29.526 51.5222 34.7826C50.0896 38.9878 45.9929 40.581 41.5241 40.7114C37.629 40.8251 29.1506 42.3876 24.8724 49.6992C20.5942 57.0107 13.5659 55.507 10.2461 54.4752C8.51529 53.8422 5.03873 52.2418 3.16525 45.9178C1.19908 39.2809 -1.15116 27.9537 0.6273 16.4031ZM20.0108 29.6477C22.1523 31.3021 25.1337 31.1061 26.67 29.2098C28.2063 27.3135 27.7157 24.4352 25.5742 22.7807C23.4327 21.1263 20.4513 21.3224 18.915 23.2186C17.3787 25.1149 17.8693 27.9933 20.0108 29.6477Z" fill="#0B1013"/>
<path fill-rule="evenodd" clip-rule="evenodd" d="M20.3417 29.9282C24.2395 32.9394 29.6389 32.6162 32.4016 29.2062C35.1642 25.7962 34.244 20.5908 30.3462 17.5795C26.4484 14.5682 21.049 14.8914 18.2864 18.3014C15.7118 21.4792 16.3357 26.2164 19.5872 29.2838C19.609 29.3046 19.6311 29.3252 19.6534 29.3457C19.8713 29.5476 20.1008 29.7421 20.3417 29.9282ZM19.6534 29.3457C19.7672 29.4503 19.8867 29.5512 20.0119 29.6479C22.1533 31.3023 25.1348 31.1062 26.6711 29.21C28.2074 27.3137 27.7168 24.4353 25.5753 22.7809C23.4338 21.1265 20.4524 21.3225 18.9161 23.2188C17.4871 24.9825 17.8117 27.5959 19.5872 29.2838C19.609 29.3046 19.6311 29.3252 19.6534 29.3457Z" fill="#686767"/>
<path d="M17.8979 17.9867C15.1386 21.3925 15.8344 26.3979 19.2056 29.611C19.2576 29.6614 19.3108 29.711 19.365 29.7599C19.5785 29.955 19.8022 30.1432 20.036 30.3238C24.1061 33.4682 29.8244 33.1816 32.7901 29.521C35.7638 25.8505 34.7261 20.3314 30.6519 17.1838C26.5818 14.0394 20.8636 14.3261 17.8979 17.9867ZM17.5551 25.1852C16.8359 22.9012 17.18 20.4613 18.6749 18.6162C21.2345 15.4568 26.315 15.097 30.0406 17.9752C33.762 20.8502 34.5647 25.742 32.0131 28.8915C30.1796 31.1545 27.0528 31.9812 24.057 31.2103C25.2169 31.0344 26.2913 30.473 27.0596 29.5247C28.8034 27.3723 28.2037 24.1797 25.881 22.3852C25.0726 21.7607 24.1449 21.3742 23.2059 21.2266C21.4516 20.9505 19.6575 21.508 18.5265 22.9039C17.9741 23.5858 17.6568 24.372 17.5551 25.1852ZM1.12148 16.4792C2.09998 10.124 6.81503 3.15328 15.1825 1.0389C23.5825 -0.91949 34.9488 2.27388 39.1597 13.4799C39.7322 15.0033 40.7415 16.8148 42.0233 18.4794C43.3035 20.1419 44.8797 21.6891 46.6002 22.6517C49.0621 24.0291 50.5837 25.771 51.2922 27.7631C52.0021 29.7592 51.9181 32.0697 51.0489 34.6213C49.7176 38.5293 45.8998 40.0835 41.5095 40.2116C37.5597 40.3269 28.8524 41.9072 24.4408 49.4467C22.3816 52.9659 19.6897 54.334 17.1251 54.7215C14.5381 55.1125 12.0447 54.5098 10.4063 54.0014C9.5749 53.6966 8.35014 53.1675 7.10584 51.9703C5.85589 50.7677 4.55986 48.8651 3.64465 45.7758C1.6883 39.172 -0.641022 27.9262 1.12148 16.4792Z" stroke="#6F6767" stroke-opacity="0.17"/>
</svg>
