<svg width="53" height="56" viewBox="0 0 53 56" fill="none" xmlns="http://www.w3.org/2000/svg">
<rect x="14.5576" y="15.3989" width="22.5487" height="20.4988" fill="#EFF0EF"/>
<path fill-rule="evenodd" clip-rule="evenodd" d="M0.838235 16.428C1.84236 9.9064 6.67975 2.74788 15.2754 0.577907C23.8527 -1.4239 35.5163 1.82631 39.8386 13.329C40.9444 16.2717 43.7717 20.4032 47.0551 22.2402C52.1445 25.0877 53.5236 29.5509 51.733 34.8075C50.3004 39.0127 46.2037 40.6059 41.7349 40.7363C37.8398 40.85 29.3615 42.4125 25.0833 49.7241C20.805 57.0356 13.7768 55.5319 10.457 54.5001C8.7262 53.8671 5.24965 52.2667 3.37618 45.9427C1.41002 39.3058 -0.94022 27.9786 0.838235 16.428ZM20.2217 29.6726C22.3632 31.327 25.3446 31.131 26.8809 29.2347C28.4172 27.3384 27.9266 24.4601 25.7851 22.8056C23.6436 21.1512 20.6622 21.3473 19.1259 23.2435C17.5896 25.1398 18.0802 28.0182 20.2217 29.6726Z" fill="#ABABAB"/>
<path fill-rule="evenodd" clip-rule="evenodd" d="M20.5526 29.9531C24.4504 32.9643 29.8498 32.6411 32.6124 29.2311C35.3751 25.8211 34.4549 20.6157 30.5571 17.6044C26.6593 14.5931 21.2599 14.9163 18.4973 18.3263C15.9227 21.5041 16.5466 26.2413 19.7981 29.3087C19.8199 29.3295 19.842 29.3501 19.8642 29.3706C20.0822 29.5725 20.3117 29.767 20.5526 29.9531ZM19.8642 29.3706C19.9781 29.4752 20.0976 29.5761 20.2227 29.6728C22.3642 31.3272 25.3456 31.1311 26.8819 29.2349C28.4182 27.3386 27.9276 24.4602 25.7862 22.8058C23.6447 21.1514 20.6633 21.3474 19.127 23.2437C17.698 25.0074 18.0226 27.6208 19.7981 29.3087C19.82 29.3294 19.8421 29.35 19.8642 29.3706Z" fill="#ABABAB"/>
<path fill-rule="evenodd" clip-rule="evenodd" d="M15.2754 0.577907C6.67975 2.74788 1.84236 9.9064 0.838235 16.428C-0.432301 24.6798 0.404338 32.8176 1.70274 39.2126C2.75352 38.858 3.82497 38.5674 4.90871 38.3433C5.23101 38.2773 5.54878 38.4782 5.61677 38.7934C5.68441 39.1078 5.47934 39.4175 5.15551 39.4842C4.06959 39.7088 2.99655 40.0035 1.94558 40.3652C2.03058 40.7544 2.117 41.1363 2.20445 41.5105C4.90166 40.5604 7.72108 40.0869 10.6141 40.1011C10.9445 40.1021 11.2103 40.3648 11.2089 40.6864C11.2078 41.0088 10.9397 41.2685 10.6089 41.2667C7.81107 41.2534 5.08561 41.7191 2.48048 42.6536C2.57762 43.0434 2.67546 43.4234 2.77347 43.7933C6.7565 42.3516 11.1322 42.0478 15.2795 42.9479C15.6021 43.0178 15.8049 43.3293 15.7329 43.6433C15.6621 43.9577 15.342 44.1559 15.0202 44.0857C11.0599 43.2252 6.87901 43.5269 3.08237 44.9248C3.18088 45.2752 3.279 45.6146 3.37618 45.9427L3.4083 46.0501C8.45878 44.1504 14.0567 44.3495 18.9738 46.6436C19.271 46.7823 19.3968 47.1308 19.2547 47.4208C19.1119 47.711 18.755 47.8346 18.4575 47.6952C13.8191 45.5317 8.53644 45.3524 3.77678 47.1608C3.91575 47.5428 4.0609 47.9047 4.21121 48.2477C10.1171 46.0127 16.8785 47.1043 21.7373 51.1585C21.9878 51.3684 22.0169 51.7359 21.8029 51.9807C21.5878 52.2252 21.2112 52.2535 20.9602 52.0448C16.4586 48.2882 10.2018 47.2639 4.72123 49.306C4.91546 49.6728 5.11567 50.0137 5.32005 50.3307C10.4718 48.4779 16.2775 49.5234 20.4261 53.1384C20.6949 53.3727 20.9535 53.6152 21.2018 53.8655C22.6094 52.9934 23.9438 51.6714 25.0833 49.7241C29.3615 42.4125 37.8398 40.85 41.7349 40.7363C46.2037 40.6059 50.3004 39.0127 51.733 34.8075C53.5236 29.5509 52.1445 25.0877 47.0551 22.2402C43.7717 20.4032 40.9444 16.2717 39.8386 13.329C35.5163 1.82631 23.8527 -1.4239 15.2754 0.577907ZM18.8772 54.9124C19.2908 54.7877 19.7038 54.6341 20.1134 54.4476C19.9567 54.297 19.7958 54.1497 19.6307 54.0059C15.8927 50.749 10.6933 49.759 6.02893 51.3198C6.31334 51.6764 6.60164 51.9939 6.8895 52.2771C11.024 51.0689 15.5495 52.0127 18.8367 54.8769C18.8502 54.8887 18.8637 54.9006 18.8772 54.9124ZM17.419 55.2396C14.717 53.2011 11.2506 52.4762 7.97631 53.201C8.92971 53.8961 9.81388 54.2648 10.457 54.5C12.1186 55.0165 14.7092 55.6511 17.419 55.2396ZM23.2856 21.7361C21.707 21.5058 20.1169 22.0218 19.127 23.2437C17.698 25.0074 18.0226 27.6208 19.7981 29.3087C19.7776 29.2894 19.7572 29.27 19.7369 29.2505C19.7974 29.3099 19.8597 29.3681 19.9237 29.4252C19.9038 29.4071 19.884 29.3889 19.8642 29.3706C19.9781 29.4752 20.0976 29.5761 20.2227 29.6728C20.9692 30.2494 21.8177 30.6013 22.6714 30.7347C24.2667 30.9836 25.8803 30.4697 26.8809 29.2347C28.4172 27.3384 27.9266 24.4601 25.7851 22.8056C25.0618 22.2468 24.2426 21.8991 23.4157 21.7568C23.3724 21.7493 23.329 21.7424 23.2856 21.7361ZM19.7981 29.3087C19.8199 29.3295 19.842 29.3501 19.8642 29.3706C19.8421 29.35 19.82 29.3294 19.7981 29.3087Z" fill="#ABABAB"/>
<path fill-rule="evenodd" clip-rule="evenodd" d="M20.565 29.9342C24.4347 32.9213 29.7952 32.6007 32.538 29.2181C35.2808 25.8355 34.3672 20.6718 30.4975 17.6847C26.6277 14.6977 21.2672 15.0183 18.5244 18.4009C15.9766 21.543 16.5838 26.2221 19.7849 29.2657C19.8269 29.3063 19.8698 29.3464 19.9136 29.3859C20.1204 29.5756 20.3376 29.7587 20.565 29.9342ZM19.9136 29.3859C20.0169 29.4793 20.1249 29.5696 20.2374 29.6565C22.3635 31.2976 25.3235 31.1031 26.8487 29.2221C28.374 27.341 27.8869 24.4858 25.7608 22.8446C23.6348 21.2035 20.6748 21.398 19.1496 23.279C17.7393 25.0183 18.0494 27.5905 19.7849 29.2657C19.8273 29.306 19.8702 29.3461 19.9136 29.3859Z" fill="#2B2B2B"/>
</svg>
