<svg width="24" height="24" viewBox="0 0 24 24" fill="none" xmlns="http://www.w3.org/2000/svg">
<path fill-rule="evenodd" clip-rule="evenodd" d="M12.8117 1.10977C12.2809 0.96341 11.7193 0.96341 11.1886 1.10977C10.8374 1.20661 10.5422 1.37306 10.264 1.56419C10.0029 1.74359 9.70792 1.98004 9.36967 2.25114L3.54349 6.92052L3.46953 6.97971C3.11047 7.26686 2.79408 7.51989 2.55881 7.84316C2.35231 8.12692 2.19881 8.44443 2.10548 8.78088C1.99915 9.16418 1.99958 9.56471 2.00007 10.0193L2.00013 10.1129L2.00013 18.9161C2.00011 19.4334 2.0001 19.8797 2.0307 20.2473C2.063 20.6353 2.13432 21.0212 2.32711 21.3925C2.61473 21.9465 3.07367 22.3969 3.63816 22.6791C4.01654 22.8683 4.40976 22.9383 4.8051 22.97C5.17969 23 5.63448 23 6.16165 23H17.8386C18.3658 23 18.8206 23 19.1952 22.97C19.5905 22.9383 19.9837 22.8683 20.3621 22.6791C20.9266 22.3969 21.3855 21.9465 21.6732 21.3925C21.8659 21.0212 21.9373 20.6353 21.9696 20.2473C22.0002 19.8797 22.0002 19.4334 22.0001 18.9161V10.1129L22.0002 10.0193C22.0007 9.56471 22.0011 9.16418 21.8948 8.78088C21.8015 8.44443 21.648 8.12692 21.4414 7.84316C21.2062 7.51989 20.8898 7.26687 20.5307 6.97972L20.4568 6.92052L14.6306 2.25116C14.2924 1.98005 13.9974 1.7436 13.7362 1.56418C13.458 1.37306 13.1628 1.20661 12.8117 1.10977ZM11.7296 2.99932C11.9065 2.95053 12.0937 2.95053 12.2706 2.99932C12.3207 3.01312 12.4064 3.04649 12.5892 3.17204C12.7823 3.3047 13.0197 3.49419 13.3917 3.79232L19.1917 8.44071C19.6662 8.82101 19.7544 8.90211 19.8139 8.98386C19.8827 9.07845 19.9339 9.18429 19.965 9.29644C19.9919 9.39337 20.0001 9.5117 20.0001 10.1129V18.8783C20.0001 19.4441 19.9994 19.8094 19.9762 20.0875C19.954 20.3541 19.9163 20.4529 19.8911 20.5014C19.7953 20.6861 19.6423 20.8362 19.4541 20.9303C19.4047 20.955 19.304 20.992 19.0323 21.0138C18.749 21.0365 18.3767 21.0373 17.8001 21.0373H6.20013C5.62358 21.0373 5.2513 21.0365 4.96797 21.0138C4.6963 20.992 4.59558 20.955 4.54614 20.9303C4.35798 20.8362 4.205 20.6861 4.10913 20.5014C4.08393 20.4529 4.04625 20.3541 4.02406 20.0875C4.00091 19.8094 4.00013 19.4441 4.00013 18.8783V10.1129C4.00013 9.5117 4.00836 9.39337 4.03525 9.29644C4.06636 9.18429 4.11752 9.07845 4.18636 8.98386C4.24585 8.90211 4.33404 8.82101 4.80856 8.44071L10.6086 3.79233C10.9806 3.49419 11.218 3.3047 11.4111 3.17204C11.5938 3.04649 11.6796 3.01312 11.7296 2.99932ZM9 17C8.44772 17 8 17.4477 8 18C8 18.5523 8.44772 19 9 19H15C15.5523 19 16 18.5523 16 18C16 17.4477 15.5523 17 15 17H9Z" fill="#141415"/>
</svg>
