<svg width="56" height="58" viewBox="0 0 56 58" fill="none" xmlns="http://www.w3.org/2000/svg">
<rect x="12.0664" y="17.3992" width="22.5487" height="20.4988" fill="#EFF0EF"/>
<path fill-rule="evenodd" clip-rule="evenodd" d="M2.44761 17.4031C3.45174 10.8815 8.28914 3.72298 16.8848 1.553C25.4621 -0.448799 37.1257 2.80141 41.4481 14.3041C42.5539 17.2468 45.3812 21.3783 48.6646 23.2153C53.754 26.0628 55.1332 30.526 53.3425 35.7826C51.9099 39.9878 47.8132 41.581 43.3444 41.7114C39.4493 41.8251 30.9709 43.3876 26.6927 50.6992C22.4145 58.0107 15.3862 56.507 12.0664 55.4752C10.3356 54.8422 6.85904 53.2418 4.98556 46.9178C3.01939 40.2809 0.669152 28.9537 2.44761 17.4031ZM21.8311 30.6477C23.9726 32.3021 26.954 32.1061 28.4903 30.2098C30.0266 28.3135 29.536 25.4352 27.3945 23.7807C25.2531 22.1263 22.2716 22.3224 20.7353 24.2186C19.199 26.1149 19.6896 28.9933 21.8311 30.6477Z" fill="white"/>
<path fill-rule="evenodd" clip-rule="evenodd" d="M22.162 30.9282C26.0598 33.9394 31.4592 33.6162 34.2219 30.2062C36.9846 26.7962 36.0644 21.5908 32.1665 18.5795C28.2687 15.5682 22.8693 15.8914 20.1067 19.3014C17.5321 22.4792 18.156 27.2164 21.4075 30.2838C21.4293 30.3046 21.4514 30.3252 21.4737 30.3457C21.6916 30.5476 21.9211 30.7421 22.162 30.9282ZM21.4737 30.3457C21.5875 30.4503 21.707 30.5512 21.8322 30.6479C23.9736 32.3023 26.9551 32.1062 28.4914 30.21C30.0277 28.3137 29.5371 25.4353 27.3956 23.7809C25.2541 22.1265 22.2727 22.3225 20.7364 24.2188C19.3075 25.9825 19.632 28.5959 21.4075 30.2838C21.4293 30.3046 21.4514 30.3252 21.4737 30.3457Z" fill="#919191"/>
<path d="M21.812 29.9776C21.7919 29.959 21.7718 29.9403 21.752 29.9214C20.1322 28.3816 19.8876 26.0608 21.1249 24.5336C21.9864 23.4702 23.3995 22.9987 24.8213 23.2044C24.8466 23.2081 24.8719 23.212 24.8973 23.2161C25.6555 23.3389 26.4135 23.6547 27.0889 24.1764C29.0491 25.6908 29.4306 28.255 28.1018 29.8951C27.2288 30.9727 25.7893 31.4424 24.3483 31.2155C23.5837 31.095 22.8188 30.7783 22.1378 30.2522C22.024 30.1642 21.9153 30.0725 21.812 29.9776ZM16.7711 1.06609L16.7711 1.06601L16.7624 1.06821C7.9413 3.29511 2.98302 10.6401 1.95344 17.327C0.159014 28.9813 2.53017 40.3898 4.50616 47.0598C5.46444 50.2945 6.84342 52.3541 8.23282 53.6909C9.62212 55.0276 10.9955 55.6159 11.8947 55.9447L11.9063 55.949L11.918 55.9526C13.5996 56.4753 16.2745 57.1365 19.0948 56.7103C21.9439 56.2798 24.9053 54.744 27.1243 50.9517C31.2691 43.8681 39.5185 42.3232 43.359 42.2112C47.9063 42.0785 52.2819 40.4463 53.8158 35.9438C54.7372 33.2389 54.859 30.6895 54.0547 28.428C53.2489 26.1624 51.5362 24.249 48.9088 22.779C47.3459 21.9045 45.8666 20.4675 44.6359 18.8693C43.4068 17.2731 42.4495 15.5475 41.9162 14.1282C37.4831 2.33088 25.5254 -0.976997 16.7711 1.06609Z" stroke="black" stroke-opacity="0.17"/>
</svg>
