<svg width="24" height="24" viewBox="0 0 24 24" fill="none" xmlns="http://www.w3.org/2000/svg">
<path fill-rule="evenodd" clip-rule="evenodd" d="M10.8119 2.14989C10.8119 1.51464 11.3276 1 11.9604 1C12.1713 1 12.3666 1.05566 12.5346 1.15283C12.8783 1.35107 13.1127 1.72314 13.1127 2.14989V3.07322C15.3393 3.3574 17.4291 4.45944 19.0307 6.22163C20.6908 8.04779 21.7104 10.4501 21.9213 13.0009C21.933 13.1473 21.9096 13.2865 21.8588 13.412C21.7182 13.7582 21.3666 13.9999 20.9604 13.9999H2.96037C2.40959 13.9999 1.95646 13.5512 2.00334 13.0009C2.21428 10.4501 3.2299 8.04779 4.89006 6.22163C6.49162 4.45846 8.58146 3.35594 10.8119 3.07273V2.14989ZM19.3862 11.7001C19.0229 10.2074 18.3119 8.84954 17.3315 7.76898C16.6713 7.04194 15.9135 6.46821 15.101 6.05757C14.1127 5.55806 13.0424 5.29977 11.9604 5.29977C9.99553 5.29977 8.05803 6.15767 6.59318 7.76898C5.60881 8.84954 4.89787 10.2074 4.53459 11.7001H19.3862ZM8.51094 16.85C8.51094 17.4852 7.99607 18 7.36094 18C6.72581 18 6.21094 17.4852 6.21094 16.85C6.21094 16.2149 6.72581 15.7001 7.36094 15.7001C7.99607 15.7001 8.51094 16.2149 8.51094 16.85ZM8.51094 20.85C8.51094 21.4851 7.99607 22 7.36094 22C6.72581 22 6.21094 21.4851 6.21094 20.85C6.21094 20.2149 6.72581 19.7 7.36094 19.7C7.99607 19.7 8.51094 20.2149 8.51094 20.85ZM11.9625 18C12.5976 18 13.1125 17.4852 13.1125 16.85C13.1125 16.2149 12.5976 15.7001 11.9625 15.7001C11.3274 15.7001 10.8125 16.2149 10.8125 16.85C10.8125 17.4852 11.3274 18 11.9625 18ZM13.1125 20.85C13.1125 21.4851 12.5976 22 11.9625 22C11.3274 22 10.8125 21.4851 10.8125 20.85C10.8125 20.2149 11.3274 19.7 11.9625 19.7C12.5976 19.7 13.1125 20.2149 13.1125 20.85ZM16.5602 18C17.1953 18 17.7102 17.4852 17.7102 16.85C17.7102 16.2149 17.1953 15.7001 16.5602 15.7001C15.925 15.7001 15.4102 16.2149 15.4102 16.85C15.4102 17.4852 15.925 18 16.5602 18ZM17.7102 20.85C17.7102 21.4851 17.1953 22 16.5602 22C15.925 22 15.4102 21.4851 15.4102 20.85C15.4102 20.2149 15.925 19.7 16.5602 19.7C17.1953 19.7 17.7102 20.2149 17.7102 20.85Z" fill="#141415"/>
</svg>
