<svg width="24" height="24" viewBox="0 0 24 24" fill="none" xmlns="http://www.w3.org/2000/svg">
<path d="M7.13718 4.9944C8.65613 4.15687 10.4061 3.8357 12.1235 4.0793C13.8409 4.32289 15.4325 5.11805 16.6586 6.34495C16.6658 6.3521 16.6731 6.35914 16.6804 6.36608L19.4294 8.99805H15.9961C15.4438 8.99805 14.9961 9.44576 14.9961 9.99805C14.9961 10.5503 15.4438 10.998 15.9961 10.998H21.9961C22.5484 10.998 22.9961 10.5503 22.9961 9.99805V3.99805C22.9961 3.44576 22.5484 2.99805 21.9961 2.99805C21.4438 2.99805 20.9961 3.44576 20.9961 3.99805V7.72921L18.0623 4.9202C16.5311 3.39281 14.5459 2.40288 12.4044 2.09912C10.2577 1.79462 8.07016 2.19608 6.17147 3.243C4.27279 4.28992 2.7658 5.92557 1.8776 7.90348C0.98939 9.88139 0.76809 12.0944 1.24704 14.209C1.726 16.3236 2.87925 18.2253 4.53303 19.6275C6.18681 21.0296 8.25151 21.8563 10.416 21.9829C12.5805 22.1096 14.7275 21.5293 16.5335 20.3295C18.3395 19.1298 19.7066 17.3755 20.4289 15.3312C20.6128 14.8104 20.3398 14.2392 19.8191 14.0552C19.2984 13.8712 18.7271 14.1442 18.5431 14.6649C17.9653 16.3004 16.8716 17.7038 15.4268 18.6636C13.982 19.6234 12.2644 20.0877 10.5328 19.9864C8.80121 19.8851 7.14945 19.2237 5.82643 18.102C4.5034 16.9803 3.5808 15.4589 3.19764 13.7672C2.81447 12.0755 2.99151 10.3051 3.70208 8.72278C4.41264 7.14046 5.61823 5.83194 7.13718 4.9944Z" fill="#141415"/>
</svg>
