<svg width="16" height="16" viewBox="0 0 16 16" fill="none" xmlns="http://www.w3.org/2000/svg">
<path fill-rule="evenodd" clip-rule="evenodd" d="M16 8C16 12.4183 12.4183 16 8 16C3.58172 16 0 12.4183 0 8C0 3.58172 3.58172 0 8 0C12.4183 0 16 3.58172 16 8ZM8.51562 10.7344V9.77344L10.5781 7.96094C11.0547 7.52344 11.3281 7.23438 11.3359 6.80469C11.3281 6.33594 10.9844 6.03906 10.5078 6.03906C10.0234 6.03906 9.70312 6.34375 9.70312 6.85938H8.4375C8.4375 5.71875 9.27344 5 10.5156 5C11.7891 5 12.625 5.6875 12.625 6.70312C12.625 7.35156 12.3047 7.89062 11.0781 8.96094L10.3672 9.61719V9.65625H12.6953V10.7344H8.51562ZM3.39844 5.07812V10.7344H5.91406C7.16406 10.7344 7.875 10.0703 7.875 9.15625C7.875 8.33594 7.28125 7.82031 6.60156 7.78906V7.73438C7.21875 7.60938 7.65625 7.16406 7.65625 6.51562C7.65625 5.65625 7 5.07812 5.73438 5.07812H3.39844ZM6.48438 9.00781C6.48438 9.41406 6.21094 9.65625 5.60156 9.65625H4.72656V8.28125H5.625C6.15625 8.28125 6.48438 8.5625 6.48438 9.00781ZM6.29688 6.76562C6.29688 7.17188 5.96875 7.41406 5.51562 7.41406H4.72656V6.14062H5.53125C6.00781 6.14062 6.29688 6.38281 6.29688 6.76562Z" fill="white"/>
</svg>
