<svg width="16" height="16" viewBox="0 0 16 16" fill="none" xmlns="http://www.w3.org/2000/svg">
<path fill-rule="evenodd" clip-rule="evenodd" d="M8 16C12.4183 16 16 12.4183 16 8C16 3.58172 12.4183 0 8 0C3.58172 0 0 3.58172 0 8C0 12.4183 3.58172 16 8 16ZM6.52726 11.0614C6.93824 11.3398 7.42877 11.4801 7.99885 11.4823C8.56892 11.4823 9.05835 11.3431 9.46713 11.0647C9.8759 10.7863 10.1897 10.383 10.4084 9.85494C10.6294 9.32684 10.7399 8.69048 10.7399 7.94585C10.7421 7.20563 10.6327 6.5759 10.4117 6.05664C10.1908 5.53518 9.8748 5.13745 9.46381 4.86346C9.05504 4.58947 8.56672 4.45247 7.99885 4.45247C7.43098 4.45247 6.94156 4.58947 6.53057 4.86346C6.1218 5.13524 5.80693 5.53186 5.58597 6.05333C5.36722 6.57479 5.25785 7.20563 5.25785 7.94585C5.25564 8.68827 5.36391 9.32353 5.58266 9.85162C5.80362 10.3797 6.11848 10.783 6.52726 11.0614ZM8.93019 9.70579C8.69819 10.0969 8.38774 10.2924 7.99885 10.2924C7.74033 10.2924 7.51495 10.2063 7.32271 10.0339C7.13048 9.85935 6.98133 9.59862 6.87527 9.25172C6.77142 8.9026 6.71949 8.46731 6.71949 7.94585C6.7217 7.1747 6.83881 6.59578 7.07082 6.2091C7.30283 5.82242 7.61217 5.62908 7.99885 5.62908C8.25737 5.62908 8.48165 5.71526 8.67167 5.88761C8.86391 6.05996 9.01195 6.31737 9.1158 6.65986C9.22186 7.00235 9.27489 7.43101 9.27489 7.94585C9.2771 8.72804 9.1622 9.31469 8.93019 9.70579Z" fill="white"/>
</svg>
