<svg width="16" height="16" viewBox="0 0 16 16" fill="none" xmlns="http://www.w3.org/2000/svg">
<path fill-rule="evenodd" clip-rule="evenodd" d="M8 16C12.4183 16 16 12.4183 16 8C16 3.58172 12.4183 0 8 0C3.58172 0 0 3.58172 0 8C0 12.4183 3.58172 16 8 16ZM6.76823 11.1677C7.13502 11.3401 7.55264 11.4263 8.02107 11.4263C8.52486 11.4263 8.96678 11.3257 9.34683 11.1246C9.72909 10.9214 10.0263 10.643 10.2384 10.2894C10.4527 9.93367 10.5588 9.52711 10.5566 9.06972C10.5588 8.63443 10.4671 8.24996 10.2815 7.91631C10.0959 7.58045 9.84288 7.31641 9.52249 7.12417C9.2021 6.93194 8.83752 6.83582 8.42874 6.83582C8.13044 6.83582 7.86087 6.89106 7.62003 7.00154C7.37918 7.11202 7.1991 7.25122 7.07978 7.41915H7.04001L7.21567 5.71887H10.1821V4.54557H6.03243L5.71094 8.12512L6.98698 8.35381C7.09083 8.2124 7.23556 8.10081 7.42116 8.01906C7.60898 7.9373 7.80232 7.89642 8.00118 7.89642C8.22877 7.89863 8.43095 7.95056 8.60772 8.0522C8.78448 8.15384 8.92259 8.29526 9.02202 8.47644C9.12366 8.65763 9.17448 8.86754 9.17448 9.10618C9.17448 9.3404 9.12476 9.5481 9.02533 9.72929C8.92811 9.90826 8.79222 10.0486 8.61766 10.1502C8.44531 10.2496 8.24645 10.2994 8.02107 10.2994C7.73824 10.2994 7.49408 10.2176 7.28859 10.0541C7.0831 9.89059 6.97262 9.67736 6.95715 9.41442H5.5651C5.57394 9.80552 5.68553 10.1524 5.89986 10.4551C6.11419 10.7579 6.40365 10.9954 6.76823 11.1677Z" fill="white"/>
</svg>
