<svg width="24" height="24" viewBox="0 0 24 24" fill="none" xmlns="http://www.w3.org/2000/svg">
<path fill-rule="evenodd" clip-rule="evenodd" d="M10.5704 5.29149C8.82095 3.51159 5.98457 3.51159 4.23514 5.29149C2.48571 7.07139 2.48571 9.95719 4.23514 11.7371L4.98485 12.4999C4.99711 12.5123 5.009 12.5251 5.02051 12.5382L12 19.6392L18.9792 12.5385C18.9908 12.5254 19.0028 12.5125 19.0151 12.4999L19.7649 11.7371C21.5143 9.95719 21.5143 7.07139 19.7649 5.29149C18.0154 3.51159 15.1791 3.51159 13.4296 5.29149L12.6799 6.05427C12.3044 6.43631 11.6956 6.43631 11.3201 6.05427L10.5704 5.29149ZM20.4119 13.8458C20.4003 13.8589 20.3883 13.8718 20.3759 13.8844L12.6809 21.7135C12.5005 21.897 12.2559 22.0001 12.0008 22H11.9992C11.7441 22.0001 11.4995 21.897 11.3191 21.7135L3.62405 13.8844C3.61165 13.8718 3.59966 13.8589 3.58808 13.8458L2.87533 13.1206C0.374894 10.5766 0.37489 6.45198 2.87532 3.90799C5.37576 1.364 9.42976 1.364 11.9302 3.90799L12 3.97902L12.0698 3.90799C14.5702 1.364 18.6242 1.364 21.1247 3.90799C23.6251 6.45198 23.6251 10.5766 21.1247 13.1206L20.4119 13.8458Z" fill="#141415"/>
</svg>
