<svg width="16" height="16" viewBox="0 0 16 16" fill="none" xmlns="http://www.w3.org/2000/svg">
<path fill-rule="evenodd" clip-rule="evenodd" d="M8 16C12.4183 16 16 12.4183 16 8C16 3.58172 12.4183 0 8 0C3.58172 0 0 3.58172 0 8C0 12.4183 3.58172 16 8 16ZM7.06487 11.2503C7.38968 11.3652 7.72664 11.4237 8.07576 11.426C8.57955 11.4282 9.02147 11.3287 9.40152 11.1277C9.78378 10.9244 10.081 10.6438 10.2931 10.2858C10.5074 9.92785 10.6146 9.51908 10.6146 9.05948C10.6146 8.63524 10.524 8.2585 10.3428 7.92927C10.1616 7.60004 9.91414 7.34152 9.60038 7.15371C9.28662 6.96368 8.92866 6.86867 8.52652 6.86867C8.27904 6.86867 8.04372 6.90734 7.82055 6.98467C7.59959 7.0598 7.40183 7.16917 7.22727 7.3128C7.05492 7.45421 6.91793 7.62545 6.81629 7.82653H6.76989C6.77431 7.16586 6.89031 6.64329 7.1179 6.25882C7.3477 5.87435 7.68355 5.68211 8.12547 5.68211C8.38621 5.68211 8.60496 5.74951 8.78172 5.88429C8.95849 6.01908 9.0745 6.20468 9.12974 6.44111H10.545C10.5008 6.06769 10.3726 5.73073 10.1605 5.43022C9.9506 5.12972 9.67219 4.89218 9.32528 4.71763C8.97838 4.54086 8.57844 4.45247 8.12547 4.45247C7.70565 4.45247 7.3267 4.53533 6.98864 4.70105C6.65057 4.86456 6.36001 5.1032 6.11695 5.41696C5.87611 5.73073 5.6905 6.11299 5.56013 6.56374C5.43198 7.01229 5.36679 7.5216 5.36458 8.09168C5.36458 8.71257 5.4386 9.23625 5.58665 9.6627C5.7369 10.0892 5.94018 10.4316 6.1965 10.6902C6.45281 10.9487 6.74227 11.1354 7.06487 11.2503ZM8.66241 10.14C8.48785 10.246 8.29009 10.2991 8.06913 10.2991C7.84817 10.2991 7.65041 10.2449 7.47585 10.1367C7.3035 10.0284 7.16651 9.88366 7.06487 9.70247C6.96544 9.52129 6.91572 9.32132 6.91572 9.10257C6.91572 8.93906 6.94555 8.78549 7.00521 8.64187C7.06487 8.49603 7.14662 8.36788 7.25047 8.2574C7.35653 8.14692 7.47917 8.06074 7.61837 7.99888C7.75979 7.93701 7.91335 7.90607 8.07907 7.90607C8.30003 7.90607 8.49669 7.9591 8.66903 8.06516C8.84138 8.17122 8.97617 8.31374 9.07339 8.49272C9.17282 8.6717 9.22254 8.87388 9.22254 9.09925C9.22254 9.32463 9.17282 9.52792 9.07339 9.7091C8.97396 9.89029 8.83696 10.0339 8.66241 10.14Z" fill="white"/>
</svg>
