<svg width="24" height="24" viewBox="0 0 24 24" fill="none" xmlns="http://www.w3.org/2000/svg">
<path fill-rule="evenodd" clip-rule="evenodd" d="M7 6C7.55228 6 8 5.55228 8 5C8 4.44772 7.55228 4 7 4C6.44772 4 6 4.44772 6 5C6 5.55228 6.44772 6 7 6ZM9.82929 6C9.41746 7.16519 8.30622 8 7 8C5.69378 8 4.58254 7.16519 4.17071 6H3C2.44772 6 2 5.55228 2 5C2 4.44772 2.44772 4 3 4H4.17071C4.58254 2.83481 5.69378 2 7 2C8.30622 2 9.41746 2.83481 9.82929 4H21C21.5523 4 22 4.44772 22 5C22 5.55228 21.5523 6 21 6H9.82929ZM17 13C16.4477 13 16 12.5523 16 12C16 11.4477 16.4477 11 17 11C17.5523 11 18 11.4477 18 12C18 12.5523 17.5523 13 17 13ZM14.1707 13C14.5825 14.1652 15.6938 15 17 15C18.3062 15 19.4175 14.1652 19.8293 13H21C21.5523 13 22 12.5523 22 12C22 11.4477 21.5523 11 21 11H19.8293C19.4175 9.83481 18.3062 9 17 9C15.6938 9 14.5825 9.83481 14.1707 11H3C2.44772 11 2 11.4477 2 12C2 12.5523 2.44772 13 3 13H14.1707ZM8 19C8 19.5523 7.55228 20 7 20C6.44772 20 6 19.5523 6 19C6 18.4477 6.44772 18 7 18C7.55228 18 8 18.4477 8 19ZM7 22C8.30622 22 9.41746 21.1652 9.82929 20H21C21.5523 20 22 19.5523 22 19C22 18.4477 21.5523 18 21 18H9.82929C9.41746 16.8348 8.30622 16 7 16C5.69378 16 4.58254 16.8348 4.17071 18H3C2.44772 18 2 18.4477 2 19C2 19.5523 2.44772 20 3 20H4.17071C4.58254 21.1652 5.69378 22 7 22Z" fill="#141415"/>
</svg>
