<svg width="54" height="56" viewBox="0 0 54 56" fill="none" xmlns="http://www.w3.org/2000/svg">
<rect x="12.1201" y="16.3989" width="22.5487" height="20.4988" fill="#EFF0EF"/>
<path fill-rule="evenodd" clip-rule="evenodd" d="M1.47593 16.4031C2.48006 9.8815 7.31746 2.72298 15.9131 0.553005C24.4904 -1.4488 36.1541 1.80141 40.4764 13.3041C41.5822 16.2468 44.4095 20.3783 47.693 22.2153C52.7823 25.0628 54.1615 29.526 52.3708 34.7826C50.9382 38.9878 46.8415 40.581 42.3727 40.7114C38.4776 40.8251 29.9993 42.3876 25.721 49.6992C21.4428 57.0107 14.4145 55.507 11.0947 54.4752C9.36392 53.8422 5.88736 52.2418 4.01388 45.9178C2.04771 39.2809 -0.302528 27.9537 1.47593 16.4031ZM20.8594 29.6477C23.0009 31.3021 25.9823 31.1061 27.5186 29.2098C29.0549 27.3135 28.5643 24.4352 26.4229 22.7807C24.2814 21.1263 21.2999 21.3224 19.7636 23.2186C18.2273 25.1149 18.7179 27.9933 20.8594 29.6477Z" fill="#FD9644"/>
<path fill-rule="evenodd" clip-rule="evenodd" d="M21.1903 29.9282C25.0881 32.9394 30.4875 32.6162 33.2502 29.2062C36.0129 25.7962 35.0927 20.5908 31.1949 17.5795C27.2971 14.5682 21.8977 14.8914 19.135 18.3014C16.5604 21.4792 17.1843 26.2164 20.4358 29.2838C20.4577 29.3046 20.4797 29.3252 20.502 29.3457C20.72 29.5476 20.9495 29.7421 21.1903 29.9282ZM20.502 29.3457C20.6158 29.4503 20.7353 29.5512 20.8605 29.6479C23.002 31.3023 25.9834 31.1062 27.5197 29.21C29.056 27.3137 28.5654 24.4353 26.4239 22.7809C24.2824 21.1265 21.301 21.3225 19.7647 23.2188C18.3358 24.9825 18.6603 27.5959 20.4358 29.2838C20.4577 29.3046 20.4797 29.3252 20.502 29.3457Z" fill="#421D01"/>
<path d="M24.0545 21.2266C22.3003 20.9505 20.5061 21.508 19.3751 22.9039C18.8227 23.5858 18.5055 24.372 18.4037 25.1852C17.6845 22.9012 18.0286 20.4613 19.5235 18.6162C22.0831 15.4568 27.1637 15.097 30.8892 17.9752C34.6106 20.8502 35.4134 25.742 32.8617 28.8915C31.0283 31.1545 27.9014 31.9812 24.9056 31.2103C26.0656 31.0344 27.1399 30.473 27.9082 29.5247C29.652 27.3723 29.0523 24.1797 26.7296 22.3852C25.9212 21.7607 24.9936 21.3742 24.0545 21.2266ZM20.214 29.7602C20.4274 29.9552 20.651 30.1433 20.8847 30.3238C24.9548 33.4682 30.673 33.1816 33.6387 29.521C36.6124 25.8505 35.5747 20.3314 31.5006 17.1838C27.4305 14.0394 21.7122 14.3261 18.7465 17.9867C15.9873 21.3924 16.683 26.3977 20.054 29.6108C20.1062 29.6614 20.1596 29.7112 20.214 29.7602ZM1.97011 16.4792C2.94862 10.124 7.66366 3.15328 16.0311 1.0389C24.4311 -0.91949 35.7975 2.27388 40.0084 13.4799C40.5808 15.0033 41.5901 16.8148 42.8719 18.4794C44.1521 20.1419 45.7283 21.6891 47.4488 22.6517C49.9108 24.0291 51.4323 25.771 52.1408 27.7631C52.8507 29.7592 52.7667 32.0697 51.8975 34.6213C50.5662 38.5293 46.7484 40.0835 42.3581 40.2116C38.4084 40.3269 29.7011 41.9072 25.2895 49.4467C23.2302 52.9659 20.5384 54.334 17.9737 54.7215C15.3867 55.1125 12.8934 54.5098 11.255 54.0014C10.4235 53.6966 9.19878 53.1675 7.95448 51.9703C6.70452 50.7677 5.40849 48.8651 4.49329 45.7758C2.53693 39.172 0.20761 27.9262 1.97011 16.4792Z" stroke="black" stroke-opacity="0.17"/>
</svg>
