<svg width="24" height="24" viewBox="0 0 24 24" fill="none" xmlns="http://www.w3.org/2000/svg">
<path fill-rule="evenodd" clip-rule="evenodd" d="M12.8967 1.55685C12.7283 1.21587 12.3806 1 12 1C11.6194 1 11.2718 1.21587 11.1033 1.55685L8.24577 7.34043L1.8554 8.27358C1.47884 8.32857 1.16616 8.59233 1.04878 8.95399C0.931405 9.31565 1.02968 9.71253 1.3023 9.97781L5.92551 14.4765L4.83442 20.8321C4.77007 21.2069 4.92432 21.5857 5.2323 21.8092C5.54027 22.0327 5.94856 22.0622 6.28548 21.8852L12 18.8828L17.7146 21.8852C18.0515 22.0622 18.4598 22.0327 18.7678 21.8092C19.0757 21.5857 19.23 21.2069 19.1656 20.8321L18.0746 14.4765L22.6978 9.97781C22.9704 9.71253 23.0687 9.31565 22.9513 8.95399C22.8339 8.59233 22.5212 8.32857 22.1447 8.27358L15.7543 7.34043L12.8967 1.55685ZM9.80674 8.69529L12 4.25615L14.1933 8.69529C14.3389 8.98986 14.62 9.19413 14.9454 9.24164L19.8516 9.95807L16.3023 13.4118C16.0664 13.6413 15.9588 13.9722 16.0144 14.2964L16.8518 19.1744L12.4655 16.8698C12.1741 16.7167 11.826 16.7167 11.5346 16.8698L7.14821 19.1744L7.98564 14.2964C8.0413 13.9722 7.93364 13.6413 7.69776 13.4118L4.14844 9.95807L9.05466 9.24164C9.38001 9.19413 9.6612 8.98986 9.80674 8.69529Z" fill="#141415"/>
</svg>
