<svg width="225" height="60" viewBox="0 0 225 60" fill="none" xmlns="http://www.w3.org/2000/svg">
<path fill-rule="evenodd" clip-rule="evenodd" d="M17.8022 4.27456C9.7857 6.33292 5.27424 13.1232 4.33777 19.3094C3.15282 27.1369 3.93312 34.8561 5.14407 40.9223C6.12436 40.5858 7.12394 40.31 8.13499 40.0974C8.43558 40.0348 8.73193 40.2253 8.79534 40.5243C8.85842 40.8226 8.66717 41.1163 8.36516 41.1796C7.35208 41.3927 6.35102 41.6723 5.37056 42.0156C5.44991 42.3852 5.53061 42.7478 5.61226 43.1031C8.129 42.2009 10.7599 41.7513 13.4595 41.7647C13.7676 41.7657 14.0155 42.0149 14.0142 42.3199C14.0132 42.6257 13.7631 42.872 13.4546 42.8704C10.8438 42.8578 8.30058 43.3 5.86971 44.1875C5.96017 44.5566 6.05128 44.9166 6.14255 45.2669C9.85707 43.8995 13.9377 43.6114 17.8054 44.4652C18.1063 44.5314 18.2954 44.8269 18.2283 45.1248C18.1622 45.423 17.8637 45.611 17.5636 45.5444C13.8703 44.7283 9.97132 45.0144 6.43064 46.3401C6.52253 46.6726 6.61406 46.9947 6.70471 47.3059L6.73461 47.4077C11.4441 45.6068 16.6637 45.796 21.2486 47.9717C21.5258 48.1032 21.6431 48.4338 21.5106 48.7088C21.3774 48.9842 21.0445 49.1013 20.7671 48.9691C16.4421 46.9174 11.5165 46.7469 7.07825 48.4612C7.20807 48.8242 7.34367 49.168 7.48411 49.4939C12.9928 47.3724 19.3 48.4075 23.8322 52.2539C24.0659 52.4529 24.093 52.8015 23.8934 53.0338C23.6929 53.2656 23.3416 53.2925 23.1075 53.0945C18.9085 49.5305 13.0718 48.5591 7.95987 50.4976C8.14103 50.8455 8.32775 51.1689 8.51837 51.4695C13.3237 49.7106 18.7396 50.7021 22.6093 54.1318C22.8595 54.3535 23.1002 54.5831 23.3313 54.82C24.6433 53.9927 25.8871 52.739 26.9493 50.8928C30.9392 43.9574 38.8463 42.4752 42.479 42.3674C46.6467 42.2437 50.4674 40.7324 51.8034 36.7435C53.4734 31.7573 52.1872 27.5236 47.4408 24.8227C44.3785 23.0801 41.7417 19.1611 40.7105 16.3698C36.6793 5.45875 25.8016 2.37572 17.8022 4.27456ZM21.1662 55.8128C21.551 55.6946 21.9353 55.549 22.3165 55.3724C22.1707 55.23 22.021 55.0907 21.8675 54.9546C18.3807 51.8646 13.5304 50.9258 9.17959 52.4076C9.44522 52.7462 9.71449 53.0477 9.98334 53.3166C13.8407 52.1682 18.0636 53.0631 21.1306 55.7812C21.1425 55.7917 21.1544 55.8023 21.1662 55.8128ZM19.8067 56.1238C17.2857 54.1901 14.0515 53.5034 10.9971 54.1926C11.8854 54.8508 12.7092 55.2002 13.3085 55.4231C14.8592 55.9134 17.2775 56.5159 19.8067 56.1238ZM25.2728 24.3444C23.8004 24.126 22.3175 24.6154 21.3943 25.7745C20.0624 27.4465 20.3639 29.9235 22.0171 31.5246L21.9632 31.4725C22.0196 31.5287 22.0776 31.5839 22.1373 31.638L22.0836 31.5879C22.1893 31.6865 22.3001 31.7817 22.4162 31.8729C23.1124 32.4199 23.9037 32.7536 24.6999 32.8802C26.1877 33.1163 27.6926 32.6289 28.6257 31.4574C30.0585 29.6586 29.601 26.9283 27.6038 25.359C26.9258 24.8262 26.1576 24.4958 25.3824 24.362C25.3459 24.3557 25.3093 24.3499 25.2728 24.3444ZM22.0202 31.5276C22.0405 31.5473 22.0611 31.5668 22.0819 31.5863L22.0202 31.5276Z" fill="white"/>
<path fill-rule="evenodd" clip-rule="evenodd" d="M22.7385 32.1181C26.3489 34.9529 31.3483 34.6511 33.9049 31.4438C36.4615 28.2366 35.6072 23.3386 31.9968 20.5037C28.3864 17.6689 23.3871 17.9708 20.8305 21.178C18.5284 24.066 18.9919 28.3249 21.7429 31.2139C21.9358 31.4338 22.1517 31.6407 22.3902 31.8309C22.5033 31.9288 22.6194 32.0246 22.7385 32.1181ZM22.3902 31.8309C22.4004 31.839 22.4107 31.8472 22.421 31.8552C24.4045 33.4127 27.1651 33.2295 28.5868 31.446C30.0085 29.6625 29.553 26.9541 27.5694 25.3966C25.5859 23.8391 22.8253 24.0223 21.4036 25.8059C20.1615 27.364 20.3522 29.628 21.7429 31.2139C21.9462 31.4274 22.1621 31.6334 22.3902 31.8309Z" fill="#313235" fill-opacity="0.2"/>
<path fill-rule="evenodd" clip-rule="evenodd" d="M151.367 45C153.115 45 154.532 43.5414 154.532 41.7421L154.532 18.2579C154.532 16.4586 153.115 15 151.367 15C149.619 15 148.203 16.4586 148.203 18.2579V41.7421C148.203 43.5414 149.619 45 151.367 45ZM97.0554 16.4932C97.6591 16.4932 98.2365 16.7365 98.7876 17.2231C99.3388 17.6827 99.6144 18.318 99.6144 19.129C99.6144 19.3723 99.575 19.6426 99.4963 19.94L91.7408 43.4591C91.5833 43.9457 91.2946 44.3241 90.8747 44.5945C90.481 44.8378 90.061 44.9729 89.6149 45C89.1687 45 88.7225 44.8648 88.2764 44.5945C87.8564 44.3241 87.5284 43.9322 87.2921 43.4185L81.6946 30.3289L76.0722 43.4185C75.836 43.9322 75.4948 44.3241 75.0487 44.5945C74.6287 44.8648 74.1957 45 73.7495 45C73.3296 44.9729 72.9097 44.8378 72.4897 44.5945C72.0698 44.3241 71.7811 43.9457 71.6236 43.4591L63.8681 19.94C63.7894 19.6426 63.75 19.3723 63.75 19.129C63.75 18.318 64.0256 17.6827 64.5767 17.2231C65.1541 16.7365 65.7447 16.4932 66.3483 16.4932C66.847 16.4932 67.3063 16.6284 67.7262 16.8987C68.1724 17.169 68.4742 17.561 68.6316 18.0747L74.5011 36.4018L79.6154 23.7517C79.8253 23.2651 80.1271 22.8866 80.5208 22.6163C80.9145 22.3189 81.3607 22.1837 81.8593 22.2108C82.358 22.1837 82.8042 22.3189 83.1979 22.6163C83.5915 22.8866 83.8802 23.2651 84.064 23.7517L88.9081 36.2641L94.7327 18.0747C94.8902 17.561 95.192 17.169 95.6382 16.8987C96.0844 16.6284 96.5568 16.4932 97.0554 16.4932ZM110.5 45C108.273 45 106.334 44.5263 104.684 43.5789C103.059 42.6045 101.802 41.2917 100.911 39.6406C100.047 37.9894 99.6144 36.1217 99.6144 34.0375C99.6144 31.6014 100.086 29.5307 101.029 27.8255C101.998 26.0931 103.256 24.7668 104.802 23.8465C106.347 22.9262 107.985 22.4661 109.714 22.4661C111.05 22.4661 112.308 22.7503 113.486 23.3187C114.692 23.8871 115.753 24.6721 116.67 25.6736C117.587 26.648 118.307 27.7849 118.831 29.0841C119.381 30.3834 119.656 31.7638 119.656 33.2255C119.63 33.8751 119.381 34.4029 118.91 34.809C118.438 35.215 117.888 35.418 117.259 35.418H104.282C104.422 36.169 104.661 36.8456 104.998 37.4481C105.601 38.4496 106.36 39.221 107.277 39.7624C108.221 40.2766 109.216 40.5338 110.264 40.5338C111.233 40.5338 112.006 40.4526 112.583 40.2902C113.159 40.1278 113.617 39.9383 113.958 39.7218C114.325 39.4781 114.652 39.2751 114.941 39.1127C115.412 38.8691 115.857 38.7473 116.277 38.7473C116.853 38.7473 117.325 38.9503 117.691 39.3563C118.084 39.7624 118.281 40.236 118.281 40.7774C118.281 41.5082 117.914 42.1714 117.18 42.7669C116.499 43.3624 115.543 43.8902 114.312 44.3503C113.08 44.7834 111.81 45 110.5 45ZM104.566 30.424C104.471 30.7101 104.391 31.0214 104.327 31.3578H114.626V31.0736C114.574 30.2886 114.299 29.5849 113.801 28.9623C113.329 28.3398 112.727 27.8525 111.993 27.5007C111.286 27.1217 110.526 26.9322 109.714 26.9322C108.928 26.9322 108.194 27.0405 107.513 27.2571C106.832 27.4736 106.243 27.839 105.745 28.3533C105.247 28.8676 104.854 29.5578 104.566 30.424ZM159.542 21.5158C161.29 21.5158 162.707 20.0572 162.707 18.2579C162.707 16.4586 161.29 15 159.542 15C157.794 15 156.378 16.4586 156.378 18.2579C156.378 20.0572 157.794 21.5158 159.542 21.5158ZM159.542 45C161.29 45 162.707 43.5414 162.707 41.7421V26.6742C162.707 24.8749 161.29 23.4163 159.542 23.4163C157.794 23.4163 156.378 24.8749 156.378 26.6742V41.7421C156.378 43.5414 157.794 45 159.542 45ZM205.407 42.1175C205.226 43.7398 203.887 45 202.263 45C200.515 45 199.098 43.5412 199.098 41.7421V18.2579C199.098 16.4587 200.515 15 202.263 15C204.011 15 205.427 16.4587 205.427 18.2579V25.3942C207.107 23.6154 209.325 22.5339 211.756 22.5339C216.999 22.5339 221.25 27.5632 221.25 33.767C221.25 39.9707 216.999 45 211.756 45C209.315 45 207.089 43.9092 205.407 42.1175ZM210.174 39.4344C207.553 39.4344 205.427 37.0946 205.427 34.2081C205.427 31.3217 207.553 28.9819 210.174 28.9819C212.796 28.9819 214.921 31.3217 214.921 34.2081C214.921 37.0946 212.796 39.4344 210.174 39.4344ZM195.67 23.552C194.517 22.5225 192.271 21.5158 189.969 21.5158C187.431 21.5158 185.126 22.6946 183.422 24.6144C183.186 24.2578 182.877 23.9023 182.485 23.552C181.331 22.5225 179.086 21.5158 176.784 21.5158C174.228 21.5158 171.907 22.7113 170.201 24.6552C169.621 23.9007 168.724 23.4163 167.717 23.4163C165.97 23.4163 164.553 24.875 164.553 26.6742V41.7421C164.553 43.5412 165.97 45 167.717 45C169.465 45 170.882 43.5412 170.882 41.7421V30.6313C171.114 28.8944 172.561 27.5565 174.312 27.5565C176.056 27.5565 177.499 28.8851 177.738 30.613V41.7421C177.738 43.5412 179.155 45 180.903 45C182.65 45 184.067 43.5412 184.067 41.7421V30.6313C184.3 28.8944 185.747 27.5565 187.497 27.5565C189.241 27.5565 190.685 28.8851 190.923 30.613V41.7421C190.923 43.5412 192.34 45 194.088 45C195.836 45 197.253 43.5412 197.253 41.7421V26.6742C197.253 25.6561 196.824 24.5815 195.67 23.552ZM137.745 44.833C140.466 44.4043 143.005 43.1656 145.051 41.2691L145.045 41.2617C145.803 40.6598 146.291 39.7154 146.291 38.6539C146.291 36.8359 144.859 35.362 143.093 35.362C142.172 35.362 141.342 35.7631 140.758 36.405C139.642 37.4321 138.26 38.1034 136.779 38.3368C135.289 38.5714 133.765 38.3524 132.395 37.7063C131.024 37.0604 129.867 36.0158 129.067 34.7013C128.266 33.3868 127.856 31.8599 127.887 30.3086C127.919 28.7571 128.391 27.2493 129.244 25.9706C130.098 24.6916 131.296 23.6979 132.692 23.1117C134.087 22.5252 135.619 22.3722 137.098 22.6708C138.474 22.9489 139.749 23.6069 140.787 24.572C141.373 25.2378 142.219 25.6561 143.159 25.6561C144.925 25.6561 146.357 24.1823 146.357 22.3643C146.357 21.487 146.023 20.6897 145.48 20.0995L145.482 20.0974L145.359 19.9755C143.412 18.0594 140.972 16.7565 138.327 16.222C135.626 15.6764 132.829 15.9561 130.28 17.0269C127.731 18.0978 125.543 19.9126 123.983 22.2481C122.424 24.5837 121.563 27.3376 121.505 30.171C121.448 33.0042 122.196 35.7928 123.659 38.1936C125.122 40.5943 127.235 42.5019 129.737 43.6818C132.24 44.8613 135.024 45.2614 137.745 44.833Z" fill="white"/>
</svg>
