<svg width="343" height="48" viewBox="0 0 343 48" fill="none" xmlns="http://www.w3.org/2000/svg">
<rect width="343" height="48" rx="10" fill="#FEE500"/>
<path fill-rule="evenodd" clip-rule="evenodd" d="M117.997 29.4502C122.6 29.4502 126.331 26.3735 126.331 22.5781C126.331 18.7828 122.6 15.7061 117.997 15.7061C113.395 15.7061 109.664 18.7828 109.664 22.5781C109.664 24.784 110.924 26.7472 112.884 28.0046L112.443 32.2937L117.195 29.4188C117.459 29.4396 117.727 29.4502 117.997 29.4502Z" fill="#141415"/>
<path d="M141.812 18.6562C141.812 22.9219 140.641 26.5781 135.438 29.1719L134.484 27.8594C136.93 26.6484 138.383 25.2422 139.203 23.5625L134.812 23.9844L134.594 22.4844L139.734 22.1562C139.914 21.5 140.023 20.8047 140.078 20.0625H135.328V18.6562H141.812ZM145.531 17.2656V22.7969H147.625V24.2188H145.531V31.3594H143.797V17.2656H145.531ZM155.641 18.6562C155.641 22.9219 154.469 26.5781 149.266 29.1719L148.312 27.8594C150.758 26.6484 152.211 25.2422 153.031 23.5625L148.641 23.9844L148.422 22.4844L153.562 22.1562C153.742 21.5 153.852 20.8047 153.906 20.0625H149.156V18.6562H155.641ZM159.359 17.2656V22.7969H161.453V24.2188H159.359V31.3594H157.625V17.2656H159.359ZM168.547 18.0625C171.578 18.0625 173.812 19.5781 173.812 21.875C173.812 23.9922 171.992 25.4062 169.406 25.6562V28.25H175.031V29.6719H162.125V28.25H167.688V25.6562C165.117 25.4062 163.297 23.9922 163.312 21.875C163.297 19.5781 165.531 18.0625 168.547 18.0625ZM168.547 19.4688C166.484 19.4531 165 20.3906 165.016 21.875C165 23.4062 166.484 24.3125 168.547 24.3125C170.641 24.3125 172.109 23.4062 172.109 21.875C172.109 20.3906 170.641 19.4531 168.547 19.4688ZM188.859 28.3125V29.75H175.953V28.3125H181.516V26.0156H177.484V21.3906H185.609V19.6406H177.453V18.2344H187.328V22.7656H179.219V24.5938H187.656V26.0156H183.234V28.3125H188.859ZM206.484 28.3125V29.75H193.578V28.3125H199.141V26.0156H195.109V21.3906H203.234V19.6406H195.078V18.2344H204.953V22.7656H196.844V24.5938H205.281V26.0156H200.859V28.3125H206.484ZM218.641 18.6406V20.2344C218.641 22.125 218.641 24.0781 218.125 27.0469L216.359 26.8906C216.906 24.1094 216.906 22.0625 216.906 20.2344V20.0469H208.766V18.6406H218.641ZM220.281 28.0312V29.4531H207.406V28.0312H220.281ZM233 17.2812V27.4844H231.25V17.2812H233ZM233.391 29.7031V31.1094H223.656V26.4531H225.406V29.7031H233.391ZM225.297 18.2031C227.438 18.2031 229.094 19.6875 229.094 21.7344C229.094 23.8281 227.438 25.2812 225.297 25.2812C223.141 25.2812 221.484 23.8281 221.484 21.7344C221.484 19.6875 223.141 18.2031 225.297 18.2031ZM225.297 19.7188C224.094 19.7188 223.172 20.5156 223.188 21.7344C223.172 22.9844 224.094 23.7656 225.297 23.7656C226.469 23.7656 227.391 22.9844 227.391 21.7344C227.391 20.5156 226.469 19.7188 225.297 19.7188Z" fill="#27282B"/>
</svg>
