<svg width="20" height="20" viewBox="0 0 20 20" fill="none" xmlns="http://www.w3.org/2000/svg">
<path fill-rule="evenodd" clip-rule="evenodd" d="M14.3862 8.87372C14.3862 11.9177 11.9187 14.3852 8.87495 14.3852C5.83126 14.3852 3.36376 11.9177 3.36376 8.87372C3.36376 5.82979 5.83126 3.36229 8.87495 3.36229C11.9187 3.36229 14.3862 5.82979 14.3862 8.87372ZM13.3364 14.5343C12.1093 15.5029 10.5596 16.0809 8.87495 16.0809C4.89465 16.0809 1.66797 12.8542 1.66797 8.87372C1.66797 4.89329 4.89465 1.6665 8.87495 1.6665C12.8553 1.6665 16.0819 4.89329 16.0819 8.87372C16.0819 10.5584 15.504 12.108 14.5355 13.3352L18.0863 16.8861C18.4174 17.2172 18.4174 17.7541 18.0863 18.0852C17.7552 18.4164 17.2183 18.4164 16.8872 18.0852L13.3364 14.5343Z" fill="#AAABB1"/>
</svg>
