<svg width="24" height="24" viewBox="0 0 24 24" fill="none" xmlns="http://www.w3.org/2000/svg">
<path fill-rule="evenodd" clip-rule="evenodd" d="M17.2618 10.6487C17.2618 14.3014 14.3008 17.2624 10.6484 17.2624C6.99595 17.2624 4.03495 14.3014 4.03495 10.6487C4.03495 6.99595 6.99595 4.03495 10.6484 4.03495C14.3008 4.03495 17.2618 6.99595 17.2618 10.6487ZM16.0021 17.4414C14.5296 18.6037 12.67 19.2973 10.6484 19.2973C5.87201 19.2973 2 15.4252 2 10.6487C2 5.87214 5.87201 2 10.6484 2C15.4248 2 19.2968 5.87214 19.2968 10.6487C19.2968 12.6702 18.6032 14.5298 17.441 16.0024L21.702 20.2635C22.0993 20.6609 22.0993 21.3051 21.702 21.7025C21.3047 22.0998 20.6604 22.0998 20.2631 21.7025L16.0021 17.4414Z" fill="#141415"/>
</svg>
